<svg width="26" height="26" viewBox="0 0 26 26" fill="none" xmlns="http://www.w3.org/2000/svg">
<path d="M11.85 14.15H1.15C0.816667 14.15 0.533334 14.05 0.300001 13.85C0.1 13.6167 2.38419e-07 13.3333 2.38419e-07 13C2.38419e-07 12.6667 0.1 12.4 0.300001 12.2C0.533334 11.9667 0.816667 11.85 1.15 11.85H11.85V1.15C11.85 0.816664 11.95 0.549997 12.15 0.349998C12.3833 0.116665 12.6667 -1.90735e-06 13 -1.90735e-06C13.3333 -1.90735e-06 13.6 0.116665 13.8 0.349998C14.0333 0.549997 14.15 0.816664 14.15 1.15V11.85H24.85C25.1833 11.85 25.45 11.9667 25.65 12.2C25.8833 12.4 26 12.6667 26 13C26 13.3333 25.8833 13.6167 25.65 13.85C25.45 14.05 25.1833 14.15 24.85 14.15H14.15V24.85C14.15 25.1833 14.0333 25.4667 13.8 25.7C13.6 25.9 13.3333 26 13 26C12.6667 26 12.3833 25.9 12.15 25.7C11.95 25.4667 11.85 25.1833 11.85 24.85V14.15Z" fill="#002776"/>
</svg>
