<svg width="36" height="30" viewBox="0 0 36 30" fill="none" xmlns="http://www.w3.org/2000/svg">
<path d="M19.95 29.5C19.55 29.5 19.2 29.3667 18.9 29.1C18.6333 28.8 18.5 28.45 18.5 28.05V27.05C18.5 26.85 18.5333 26.6667 18.6 26.5C18.6667 26.3333 18.7833 26.1667 18.95 26L29.1 15.85L32.15 18.9L22 29.05C21.8333 29.2167 21.6667 29.3333 21.5 29.4C21.3333 29.4667 21.15 29.5 20.95 29.5H19.95ZM1.65 19.15C1.31667 19.15 1.03333 19.05 0.800001 18.85C0.6 18.6167 0.5 18.3333 0.5 18C0.5 17.6667 0.6 17.4 0.800001 17.2C1.03333 16.9667 1.31667 16.85 1.65 16.85H14.1C14.4333 16.85 14.7 16.9667 14.9 17.2C15.1333 17.4 15.25 17.6667 15.25 18C15.25 18.3333 15.1333 18.6167 14.9 18.85C14.7 19.05 14.4333 19.15 14.1 19.15H1.65ZM34.1 16.95L31.05 13.9L32.5 12.45C32.7 12.25 32.95 12.15 33.25 12.15C33.5833 12.15 33.8667 12.25 34.1 12.45L35.55 13.9C35.75 14.1333 35.85 14.4167 35.85 14.75C35.85 15.05 35.75 15.3 35.55 15.5L34.1 16.95ZM1.65 10.95C1.31667 10.95 1.03333 10.85 0.800001 10.65C0.6 10.4167 0.5 10.1333 0.5 9.8C0.5 9.5 0.6 9.23333 0.800001 9C1.03333 8.76667 1.31667 8.65 1.65 8.65H22.45C22.7833 8.65 23.05 8.76667 23.25 9C23.4833 9.23333 23.6 9.51666 23.6 9.85C23.6 10.15 23.4833 10.4167 23.25 10.65C23.05 10.85 22.7833 10.95 22.45 10.95H1.65ZM1.65 2.75C1.31667 2.75 1.03333 2.65 0.800001 2.45C0.6 2.21667 0.5 1.93333 0.5 1.6C0.5 1.3 0.6 1.05 0.800001 0.849998C1.03333 0.616665 1.31667 0.499998 1.65 0.499998H22.45C22.7833 0.499998 23.05 0.616665 23.25 0.849998C23.4833 1.05 23.6 1.31666 23.6 1.65C23.6 1.98333 23.4833 2.25 23.25 2.45C23.05 2.65 22.7833 2.75 22.45 2.75H1.65Z" fill="white"/>
</svg>
