<svg width="41" height="30" viewBox="0 0 41 30" fill="none" xmlns="http://www.w3.org/2000/svg">
<path d="M2.75 30C2.05 30 1.41667 29.7167 0.85 29.15C0.283334 28.5833 2.38419e-07 27.95 2.38419e-07 27.25V2.9C2.38419e-07 2.16667 0.3 1.5 0.9 0.899998C1.5 0.299997 2.16667 -2.86102e-06 2.9 -2.86102e-06H14.15C14.55 -2.86102e-06 14.9333 0.0833311 15.3 0.249999C15.6667 0.416665 15.9833 0.616665 16.25 0.849998L18.65 3.25H35.1C35.7667 3.25 36.35 3.48333 36.85 3.95C37.3833 4.41666 37.7167 4.95 37.85 5.55H17.65L14.4 2.25H2.9C2.7 2.25 2.53333 2.31666 2.4 2.45C2.3 2.55 2.25 2.7 2.25 2.9V27.75C2.25 27.55 2.28333 27.4833 2.35 27.55C2.45 27.5833 2.55 27.6333 2.65 27.7L6.95 11.35C7.11667 10.7167 7.46667 10.2 8 9.8C8.53333 9.4 9.13333 9.2 9.8 9.2H37.6C38.5333 9.2 39.3 9.58333 39.9 10.35C40.5 11.0833 40.6667 11.9167 40.4 12.85L36.4 27.9C36.2 28.6333 35.85 29.1667 35.35 29.5C34.8833 29.8333 34.2667 30 33.5 30H2.75ZM5.05 27.75H33.65C33.7833 27.75 33.9 27.7167 34 27.65C34.1 27.55 34.1833 27.4333 34.25 27.3L38.05 12.25C38.1167 12.05 38.0833 11.8667 37.95 11.7C37.85 11.5333 37.6833 11.45 37.45 11.45H9.7C9.56667 11.45 9.43333 11.5 9.3 11.6C9.2 11.6667 9.13333 11.7667 9.1 11.9L5.05 27.75ZM2.25 11.4V2.9C2.25 2.7 2.25 2.55 2.25 2.45C2.25 2.31666 2.25 2.25 2.25 2.25V5.55C2.25 5.55 2.25 6.08333 2.25 7.15C2.25 8.18333 2.25 9.6 2.25 11.4ZM5.05 27.75L9.1 11.9C9.13333 11.7667 9.16667 11.6667 9.2 11.6C9.23333 11.5 9.25 11.45 9.25 11.45C9.25 11.45 9.21667 11.5333 9.15 11.7C9.11667 11.8667 9.06667 12.05 9 12.25L5.15 27.3C5.11667 27.4333 5.08333 27.55 5.05 27.65C5.05 27.7167 5.05 27.75 5.05 27.75Z" fill="#002776"/>
</svg>
