<svg width="34" height="32" viewBox="0 0 34 32" fill="none" xmlns="http://www.w3.org/2000/svg">
<path d="M14.4 32H5.45C5.05 32 4.7 31.8667 4.4 31.6C4.13333 31.3 4 30.95 4 30.55V16.2H1.35C0.983334 16.2 0.733334 16.05 0.600001 15.75C0.5 15.4167 0.583333 15.1333 0.85 14.9L16.05 1.2C16.3167 0.966664 16.6333 0.849998 17 0.849998C17.3667 0.849998 17.6667 0.949998 17.9 1.15L26.25 8.55V4.35C26.25 4.01666 26.35 3.75 26.55 3.55C26.7833 3.31667 27.05 3.2 27.35 3.2H28.25C28.5833 3.2 28.85 3.31667 29.05 3.55C29.2833 3.75 29.4 4.01666 29.4 4.35V11.45L33.15 14.9C33.4167 15.1333 33.4833 15.4167 33.35 15.75C33.25 16.05 33.0167 16.2 32.65 16.2H30V30.55C30 30.95 29.85 31.3 29.55 31.6C29.2833 31.8667 28.95 32 28.55 32H19.6V20.75H14.4V32ZM6.25 29.75H12.15V19.95C12.15 19.55 12.2833 19.2167 12.55 18.95C12.8167 18.65 13.1667 18.5 13.6 18.5H20.4C20.8333 18.5 21.1833 18.65 21.45 18.95C21.7167 19.2167 21.85 19.55 21.85 19.95V29.75H27.75V13.05L17 3.35L6.25 13.05V29.75ZM13 12.65H21C21 11.6167 20.6 10.7667 19.8 10.1C19 9.43333 18.0667 9.1 17 9.1C15.9333 9.1 15 9.43333 14.2 10.1C13.4 10.7333 13 11.5833 13 12.65ZM13.6 18.5H17H20.4H13.6Z" fill="#002776"/>
</svg>
