<svg width="42" height="31" viewBox="0 0 42 31" fill="none" xmlns="http://www.w3.org/2000/svg">
<path d="M9.55 24.75C11.3833 24.75 13.15 24.9667 14.85 25.4C16.5833 25.8333 18.2833 26.5 19.95 27.4V6.5C18.45 5.43333 16.8 4.63333 15 4.1C13.2 3.53333 11.3833 3.25 9.55 3.25C8.28333 3.25 7.11667 3.36666 6.05 3.6C5.01667 3.83333 3.9 4.16667 2.7 4.6C2.53333 4.66667 2.41667 4.75 2.35 4.85C2.28333 4.95 2.25 5.05 2.25 5.15V25.45C2.25 25.6167 2.31667 25.75 2.45 25.85C2.58333 25.9167 2.73333 25.9333 2.9 25.9C3.73333 25.5 4.73333 25.2167 5.9 25.05C7.06667 24.85 8.28333 24.75 9.55 24.75ZM22.2 27.4C23.9 26.5 25.5667 25.8333 27.2 25.4C28.8667 24.9667 30.6167 24.75 32.45 24.75C33.7167 24.75 34.9333 24.85 36.1 25.05C37.3 25.2167 38.3 25.4333 39.1 25.7C39.2667 25.7667 39.4167 25.7667 39.55 25.7C39.6833 25.6 39.75 25.45 39.75 25.25V5.15C39.75 5.05 39.7167 4.95 39.65 4.85C39.5833 4.75 39.4667 4.66667 39.3 4.6C38.2 4.13333 37.1 3.8 36 3.6C34.9 3.36666 33.7167 3.25 32.45 3.25C30.6167 3.25 28.8167 3.53333 27.05 4.1C25.3167 4.63333 23.7 5.43333 22.2 6.5V27.4ZM21.1 30.3C20.8667 30.3 20.65 30.2833 20.45 30.25C20.25 30.1833 20.0667 30.1 19.9 30C18.3333 29.0667 16.6667 28.35 14.9 27.85C13.1667 27.3167 11.3833 27.05 9.55 27.05C8.48333 27.05 7.41667 27.1667 6.35 27.4C5.31667 27.6333 4.26667 27.9167 3.2 28.25C2.43333 28.6167 1.7 28.5667 1 28.1C0.333333 27.6 0 26.9167 0 26.05V5C0 4.46666 0.133333 3.98333 0.4 3.55C0.666667 3.11666 1.03333 2.78333 1.5 2.55C2.76667 2.01666 4.06667 1.61666 5.4 1.35C6.76667 1.08333 8.15 0.949998 9.55 0.949998C11.6167 0.949998 13.6167 1.25 15.55 1.85C17.5167 2.41666 19.3667 3.28333 21.1 4.45C22.7667 3.28333 24.5667 2.41666 26.5 1.85C28.4333 1.25 30.4167 0.949998 32.45 0.949998C33.8167 0.949998 35.1667 1.08333 36.5 1.35C37.8667 1.61666 39.1833 2.01666 40.45 2.55C40.95 2.78333 41.3333 3.11666 41.6 3.55C41.8667 3.98333 42 4.46666 42 5V26.05C42 26.95 41.6167 27.65 40.85 28.15C40.1167 28.6167 39.3833 28.65 38.65 28.25C37.6167 27.8833 36.5833 27.6 35.55 27.4C34.5167 27.1667 33.4833 27.05 32.45 27.05C30.65 27.05 28.8833 27.3167 27.15 27.85C25.4167 28.35 23.7833 29.0667 22.25 30C22.0833 30.1 21.9 30.1833 21.7 30.25C21.5 30.2833 21.3 30.3 21.1 30.3ZM24.9 9.75C24.9 9.61666 24.9333 9.48333 25 9.35C25.1 9.18333 25.2333 9.08333 25.4 9.05C26.4 8.61666 27.45 8.28333 28.55 8.05C29.65 7.81666 30.8 7.7 32 7.7C32.7 7.7 33.3667 7.75 34 7.85C34.6667 7.91666 35.3167 8.01666 35.95 8.15C36.1167 8.21667 36.2667 8.33333 36.4 8.5C36.5333 8.63333 36.6 8.78333 36.6 8.95C36.6 9.28333 36.5 9.53333 36.3 9.7C36.1 9.83333 35.85 9.86666 35.55 9.8C35.0167 9.66666 34.45 9.56666 33.85 9.5C33.25 9.4 32.6333 9.35 32 9.35C30.9667 9.35 29.95 9.45 28.95 9.65C27.9833 9.85 27.05 10.15 26.15 10.55C25.7833 10.6833 25.4833 10.6833 25.25 10.55C25.0167 10.3833 24.9 10.1167 24.9 9.75ZM24.9 20.7C24.9 20.5333 24.9333 20.3833 25 20.25C25.1 20.0833 25.2333 19.9667 25.4 19.9C26.3667 19.4667 27.4167 19.15 28.55 18.95C29.6833 18.75 30.8333 18.65 32 18.65C32.7 18.65 33.3667 18.6833 34 18.75C34.6667 18.8167 35.3167 18.9333 35.95 19.1C36.1167 19.1667 36.2667 19.2667 36.4 19.4C36.5333 19.5333 36.6 19.7 36.6 19.9C36.6 20.2 36.5 20.4333 36.3 20.6C36.1 20.7333 35.85 20.7667 35.55 20.7C35.0167 20.5667 34.45 20.4667 33.85 20.4C33.25 20.3333 32.6333 20.3 32 20.3C30.9667 20.3 29.95 20.4 28.95 20.6C27.9833 20.8 27.05 21.0833 26.15 21.45C25.7833 21.6167 25.4833 21.6333 25.25 21.5C25.0167 21.3333 24.9 21.0667 24.9 20.7ZM24.9 15.25C24.9 15.1167 24.9333 14.9833 25 14.85C25.1 14.6833 25.2333 14.5667 25.4 14.5C26.4 14.0667 27.45 13.75 28.55 13.55C29.65 13.3167 30.8 13.2 32 13.2C32.7 13.2 33.3667 13.2333 34 13.3C34.6667 13.3667 35.3167 13.4833 35.95 13.65C36.1167 13.7167 36.2667 13.8167 36.4 13.95C36.5333 14.0833 36.6 14.25 36.6 14.45C36.6 14.75 36.5 14.9833 36.3 15.15C36.1 15.3167 35.85 15.35 35.55 15.25C35.0167 15.1167 34.45 15.0167 33.85 14.95C33.25 14.8833 32.6333 14.85 32 14.85C30.9667 14.85 29.95 14.95 28.95 15.15C27.9833 15.35 27.05 15.6333 26.15 16C25.7833 16.1667 25.4833 16.1833 25.25 16.05C25.0167 15.8833 24.9 15.6167 24.9 15.25Z" fill="#002776"/>
</svg>
