<svg width="30" height="39" viewBox="0 0 30 39" fill="none" xmlns="http://www.w3.org/2000/svg">
<path d="M1.15 32.75C0.816667 32.75 0.533334 32.65 0.3 32.45C0.100001 32.2167 7.15256e-07 31.9333 7.15256e-07 31.6C7.15256e-07 31.3 0.100001 31.05 0.3 30.85C0.533334 30.6167 0.816667 30.5 1.15 30.5H3.6V14.7C3.6 12 4.41667 9.6 6.05 7.5C7.71667 5.36666 9.86667 4.03333 12.5 3.5V2.5C12.5 1.8 12.7333 1.21667 13.2 0.749998C13.7 0.249998 14.3 -1.90735e-06 15 -1.90735e-06C15.7 -1.90735e-06 16.2833 0.249998 16.75 0.749998C17.25 1.21667 17.5 1.8 17.5 2.5V3.5C20.1333 4.03333 22.2667 5.36666 23.9 7.5C25.5667 9.6 26.4 12 26.4 14.7V30.5H28.85C29.1833 30.5 29.45 30.6167 29.65 30.85C29.8833 31.05 30 31.3167 30 31.65C30 31.9833 29.8833 32.25 29.65 32.45C29.45 32.65 29.1833 32.75 28.85 32.75H1.15ZM15 38.4C14 38.4 13.15 38.05 12.45 37.35C11.75 36.6167 11.4 35.75 11.4 34.75H18.6C18.6 35.75 18.25 36.6167 17.55 37.35C16.85 38.05 16 38.4 15 38.4ZM5.9 30.5H24.1V14.7C24.1 12.1667 23.2167 10.0167 21.45 8.25C19.6833 6.48333 17.5333 5.6 15 5.6C12.4667 5.6 10.3167 6.48333 8.55 8.25C6.78333 10.0167 5.9 12.1667 5.9 14.7V30.5Z" fill="white"/>
</svg>
