<svg width="44" height="29" viewBox="0 0 44 29" fill="none" xmlns="http://www.w3.org/2000/svg">
<path d="M35.75 17.5C35.4167 17.5 35.1333 17.4 34.9 17.2C34.7 16.9667 34.6 16.6833 34.6 16.35V11.15H29.4C29.0667 11.15 28.7833 11.05 28.55 10.85C28.35 10.6167 28.25 10.3333 28.25 10C28.25 9.66666 28.35 9.4 28.55 9.2C28.7833 8.96667 29.0667 8.85 29.4 8.85H34.6V3.65C34.6 3.31666 34.7 3.05 34.9 2.85C35.1333 2.61666 35.4167 2.5 35.75 2.5C36.0833 2.5 36.35 2.61666 36.55 2.85C36.7833 3.05 36.9 3.31666 36.9 3.65V8.85H42.1C42.4333 8.85 42.7 8.96667 42.9 9.2C43.1333 9.4 43.25 9.66666 43.25 10C43.25 10.3333 43.1333 10.6167 42.9 10.85C42.7 11.05 42.4333 11.15 42.1 11.15H36.9V16.35C36.9 16.6833 36.7833 16.9667 36.55 17.2C36.35 17.4 36.0833 17.5 35.75 17.5ZM15.75 13.35C13.8167 13.35 12.2167 12.7333 10.95 11.5C9.71667 10.2333 9.1 8.63333 9.1 6.7C9.1 4.76666 9.71667 3.18333 10.95 1.95C12.2167 0.716664 13.8167 0.0999975 15.75 0.0999975C17.6833 0.0999975 19.2667 0.716664 20.5 1.95C21.7667 3.18333 22.4 4.76666 22.4 6.7C22.4 8.63333 21.7667 10.2333 20.5 11.5C19.2667 12.7333 17.6833 13.35 15.75 13.35ZM2.2 28.6C1.8 28.6 1.45 28.4667 1.15 28.2C0.883333 27.9333 0.75 27.5833 0.75 27.15V24.8C0.75 23.8 1.01667 22.8833 1.55 22.05C2.11667 21.2167 2.86667 20.5833 3.8 20.15C6.1 19.15 8.18333 18.4333 10.05 18C11.95 17.5667 13.85 17.35 15.75 17.35C17.65 17.35 19.5333 17.5667 21.4 18C23.3 18.4333 25.3833 19.15 27.65 20.15C28.6167 20.6167 29.3667 21.2667 29.9 22.1C30.4667 22.9 30.75 23.8 30.75 24.8V27.15C30.75 27.5833 30.6 27.9333 30.3 28.2C30.0333 28.4667 29.7 28.6 29.3 28.6H2.2ZM3 26.35H28.5V24.8C28.5 24.3 28.35 23.8167 28.05 23.35C27.75 22.85 27.3 22.4667 26.7 22.2C24.6 21.1667 22.7167 20.4833 21.05 20.15C19.3833 19.7833 17.6167 19.6 15.75 19.6C13.8833 19.6 12.1167 19.7833 10.45 20.15C8.78333 20.5167 6.88333 21.2 4.75 22.2C4.21667 22.4667 3.78333 22.85 3.45 23.35C3.15 23.8167 3 24.3 3 24.8V26.35ZM15.75 11.1C16.9833 11.1 18.0167 10.6833 18.85 9.85C19.6833 9.01667 20.1 7.96667 20.1 6.7C20.1 5.46667 19.6833 4.43333 18.85 3.6C18.0167 2.76666 16.9833 2.35 15.75 2.35C14.5167 2.35 13.4833 2.76666 12.65 3.6C11.8167 4.43333 11.4 5.46667 11.4 6.7C11.4 7.96667 11.8167 9.01667 12.65 9.85C13.4833 10.6833 14.5167 11.1 15.75 11.1Z" fill="white"/>
</svg>
