<?xml version="1.0" encoding="UTF-8"?>
<svg id="Layer_2" data-name="Layer 2" xmlns="http://www.w3.org/2000/svg" viewBox="0 0 41.54 28.5">
  <defs>
    <style>
      .cls-1 {
        fill: #fff;
        stroke-width: 0px;
      }
    </style>
  </defs>
  <g id="Layer_1-2" data-name="Layer 1">
    <path class="cls-1" d="M35.19,11.05h-5.2c-.33,0-.62-.1-.85-.3-.2-.23-.3-.52-.3-.85s.1-.6.3-.8c.23-.23.52-.35.85-.35h5.2M35.19,8.75h5.2c.33,0,.6.12.8.35.23.2.35.47.35.8s-.12.62-.35.85c-.2.2-.47.3-.8.3h-5.2M15,13.25c-1.93,0-3.53-.62-4.8-1.85-1.23-1.27-1.85-2.87-1.85-4.8s.62-3.52,1.85-4.75c1.27-1.23,2.87-1.85,4.8-1.85s3.52.62,4.75,1.85c1.27,1.23,1.9,2.82,1.9,4.75s-.63,3.53-1.9,4.8c-1.23,1.23-2.82,1.85-4.75,1.85ZM1.45,28.5c-.4,0-.75-.13-1.05-.4-.27-.27-.4-.62-.4-1.05v-2.35c0-1,.27-1.92.8-2.75.57-.83,1.32-1.47,2.25-1.9,2.3-1,4.38-1.72,6.25-2.15,1.9-.43,3.8-.65,5.7-.65s3.78.22,5.65.65c1.9.43,3.98,1.15,6.25,2.15.97.47,1.72,1.12,2.25,1.95.57.8.85,1.7.85,2.7v2.35c0,.43-.15.78-.45,1.05-.27.27-.6.4-1,.4H1.45ZM2.25,26.25h25.5v-1.55c0-.5-.15-.98-.45-1.45-.3-.5-.75-.88-1.35-1.15-2.1-1.03-3.98-1.72-5.65-2.05-1.67-.37-3.43-.55-5.3-.55s-3.63.18-5.3.55c-1.67.37-3.57,1.05-5.7,2.05-.53.27-.97.65-1.3,1.15-.3.47-.45.95-.45,1.45v1.55ZM15,11c1.23,0,2.27-.42,3.1-1.25.83-.83,1.25-1.88,1.25-3.15s-.42-2.27-1.25-3.1c-.83-.83-1.87-1.25-3.1-1.25s-2.27.42-3.1,1.25c-.83.83-1.25,1.87-1.25,3.1s.42,2.32,1.25,3.15c.83.83,1.87,1.25,3.1,1.25Z"/>
  </g>
</svg>