<?xml version="1.0" encoding="UTF-8"?>
<svg id="Layer_2" data-name="Layer 2" xmlns="http://www.w3.org/2000/svg" viewBox="0 0 124.87 141.03">
  <defs>
    <style>
      .cls-1 {
        fill: #005aa4;
      }

      .cls-1, .cls-2, .cls-3, .cls-4, .cls-5, .cls-6, .cls-7 {
        stroke-width: 0px;
      }

      .cls-2 {
        fill: none;
      }

      .cls-3 {
        fill: #ee8d9c;
      }

      .cls-4 {
        fill: #ee8d9c;
      }

      .cls-5 {
        fill: #002776;
      }

      .cls-6 {
        fill: #f8e9dd;
      }

      .cls-7 {
        fill: #002776;
      }
    </style>
  </defs>
  <g id="Layer_1-2" data-name="Layer 1">
    <g>
      <g>
        <path class="cls-4" d="M51.62,34.44c-.81,3.22-2.55,6.03-5.84,6.03-5.26,0-9.06-6.57-9.06-11.16,0-.11,0-.21,0-.31-.38.09-.78.12-1.19.12-8.82,0-12.76-5.27-12.76-11.86,0-3.54,2.45-6.24,5.34-7.37-.16-.52-.25-1.08-.25-1.64,0-4.98,6.44-8.24,11.98-8.24,4.78,0,9.52,2.08,11.31,6.41,1.29-.31,2.61-.48,3.89-.48,2.19,0,4.24.52,5.77,1.75.51-.08,1.02-.12,1.53-.12,5.04,0,8.03,4.06,8.03,7.51,0,2.64-1.96,3.83-4.54,4.47"/>
        <path class="cls-6" d="M71.1,49.33c-2.37-1.29-4.94-1.49-7.18-2.83-.13-1.1-.2-2.21-.2-3.3,0-1.4.11-2.78.36-4.06l-19.06-7.92c1.34,3.24,3.56,9.37,3.56,14.35,0,.3,0,.59-.02.88-1.59,1.62-3.83,2.07-6.63,3.19,14.9,22.57,20.47,14.77,29.18-.32Z"/>
        <path class="cls-6" d="M45.78,28.58c-1.51-1.55-3.29-2.15-4.32-2.15s-1.49.65-1.49,1.59c0,2.54,3.13,7.21,5.76,7.21.3,0,.6-.06.88-.2,2.81,5.38,8.41,10.14,14.32,10.14,6.72,0,12.4-5.42,12.4-13.2,0-3.69-1.22-7.42-2.65-10.73-2.34-4.53-5.46-8.32-9.54-10.32-2.22,3.25-6.96,4.2-11.04,4.2-.84,0-2.07-.03-3.3-.17,1.57,1.61,2.32,3.69,2.32,5.81,0,2.74-1.25,5.56-3.6,7.56"/>
        <g>
          <g>
            <line class="cls-2" x1="55.77" y1="22.76" x2="54.05" y2="23.55"/>
            <line class="cls-2" x1="61.18" y1="21.6" x2="59.31" y2="21.93"/>
            <path class="cls-7" d="M60.67,24.97c.08-.22.13-.43.18-.64.06-.3.1-.6.1-.89.02-.56-.12-1.07-.19-1.59-.02-.09-.25-.12-.52-.08-.27.05-.48.15-.48.23,0,.45.03.9-.07,1.31-.04.22-.11.41-.19.6-.06.13-.14.24-.22.34-.02.02-.04.04-.07.06-.12.55-.65.81-1.12.74-.08-.01-.17-.03-.25-.05h-.18c-.33-.03-.69-.16-1-.39-.23-.16-.43-.37-.61-.6-.22-.29-.42-.62-.64-.94-.04-.06-.28-.03-.52.09-.24.11-.41.27-.38.35.14.43.38.83.65,1.18.22.29.46.56.73.82.38.36.82.69,1.36.92l.29.11c.17.02.34.03.52.02,1.02-.03,1.95-.68,2.54-1.45.02-.05.04-.1.05-.15Z"/>
          </g>
          <g>
            <line class="cls-2" x1="66.92" y1="20.97" x2="65.36" y2="22.06"/>
            <line class="cls-2" x1="70.82" y1="20.14" x2="69.15" y2="21.04"/>
            <path class="cls-7" d="M71.41,23.22c0-.23-.02-.44-.05-.64-.04-.29-.12-.55-.21-.8-.17-.47-.4-.9-.65-1.3-.04-.07-.28-.02-.52.11-.24.13-.41.29-.38.35.16.38.27.78.32,1.16.03.2.04.39.02.56,0,.12-.04.24-.08.33l-.04.06c.05.4-.12.46-.55.3-.07-.03-.14-.06-.22-.11-.06,0-.11-.02-.17-.03-.31-.1-.65-.27-.94-.5-.22-.16-.41-.36-.6-.57-.23-.26-.46-.54-.71-.81-.05-.05-.27.03-.49.18-.22.15-.36.33-.33.4.18.35.43.67.69.97l.64.7c.32.32.65.65,1.06.94.07.06.15.11.22.16.14.05.29.1.44.13.43.09.98.12,1.52-.16.54-.28.85-.82,1.02-1.28v-.16Z"/>
          </g>
          <g>
            <line class="cls-2" x1="66.12" y1="22.68" x2="65.17" y2="24.32"/>
            <line class="cls-2" x1="65.23" y1="30.19" x2="65.02" y2="32.08"/>
            <path class="cls-3" d="M69.3,29.53c-.21.14-.44.26-.68.37-.35.15-.71.29-1.08.39-.7.21-1.44.35-2.14.35-.12,0-.25.23-.28.5-.03.27.06.5.22.51.86.08,1.68.01,2.49-.12.43-.07.85-.17,1.27-.3.29-.09.59-.18.89-.3l.21-.08c.55-.39,1.13-.81,1.57-1.47.21-.33.4-.73.43-1.16.04-.42-.01-.82-.14-1.2-.08-.26-.22-.49-.35-.72l-.34-.36c-.63-.6-1.33-.97-2.01-1.32l-1.46-.69c-.6-.27-1.23-.53-1.81-.77-.11-.05-.32.1-.45.33-.14.23-.14.48-.02.56.6.38,1.23.64,1.82.91.47.22.93.43,1.35.7.59.36,1.14.79,1.49,1.27l.15.26c.08.12.18.24.22.36.16.37.18.72-.04,1.06-.22.35-.67.65-1.16.82l-.14.1Z"/>
          </g>
          <g>
            <line class="cls-2" x1="72.99" y1="32.3" x2="71.51" y2="31.13"/>
            <line class="cls-2" x1="56.03" y1="30.3" x2="54.76" y2="31.7"/>
            <path class="cls-3" d="M60.5,33c-.32-.07-.63-.17-.94-.27-.44-.16-.88-.34-1.31-.54-.81-.38-1.59-.83-2.29-1.38-.12-.1-.38,0-.56.2-.18.2-.23.46-.1.57.73.66,1.53,1.24,2.37,1.74.44.26.89.49,1.35.71l.98.45.23.11c1.47.31,2.95.66,4.44.79l.78.04.5-.06c.92-.11,1.83-.29,2.72-.59.63-.22,1.26-.48,1.84-.82.73-.42,1.43-.98,1.94-1.68.11-.14.02-.39-.2-.55-.21-.16-.46-.21-.57-.1-.52.53-1.11,1-1.74,1.36-.5.29-1.05.51-1.62.66-.79.22-1.62.27-2.45.26l-.43-.03h-.7c-1.34,0-2.76-.22-4.02-.8l-.22-.05Z"/>
          </g>
          <g>
            <line class="cls-2" x1="53.27" y1="18.47" x2="54.71" y2="19.7"/>
            <line class="cls-2" x1="59.03" y1="18.12" x2="59.41" y2="16.27"/>
            <path class="cls-3" d="M57.54,17.87c.09-.03.18-.08.27-.09.13-.03.27-.05.41-.05l.81-.04s.13-.23.19-.49c.06-.27.06-.49,0-.5l-.95-.23c-.17-.05-.34-.08-.52-.09-.12-.02-.25-.03-.38-.05l-.09-.02c-.5.23-1.01.31-1.52.47l-.26.09-.13.12c-.25.2-.48.42-.7.63l-.48.44c-.2.18-.39.39-.52.63-.03.05.12.23.32.4.2.17.4.29.44.26.2-.14.36-.31.53-.46.13-.12.27-.24.43-.32.21-.13.45-.22.69-.27l.13-.02.17-.11c.32-.2.71-.36,1.11-.25l.06-.03Z"/>
          </g>
          <g>
            <line class="cls-2" x1="65.6" y1="15.95" x2="65.69" y2="17.85"/>
            <line class="cls-2" x1="68.88" y1="18.36" x2="69.85" y2="16.73"/>
            <path class="cls-3" d="M68.09,17.84c.06-.01.13-.02.19-.02l.27.02c.17.02.34.05.51.11.03,0,.17-.18.31-.41s.23-.44.2-.46c-.17-.14-.35-.28-.53-.41-.1-.07-.2-.13-.3-.19-.07-.04-.14-.09-.21-.14l-.05-.04c-.37.06-.69-.05-1.01-.13l-.17-.04-.11.04c-.2.05-.4.1-.59.12-.14.03-.27.04-.4.04-.17,0-.34.01-.51.07-.03.01-.05.24-.04.51s.05.49.08.5c.16.05.33.05.48.05.13,0,.25,0,.38.02.17.03.34.09.5.16l.08.05h.14c.26-.04.54-.05.74.17h.05Z"/>
          </g>
        </g>
      </g>
      <path class="cls-5" d="M112.17,127.74c4.47-4.12,8.26-8.91,11.09-14.21,4.73-8.85-1.52-19.74-11.55-19.79-.06,0-.12,0-.18,0-10.88,0-26.97,5.38-37.99,10.63-7.21,3.43-15.64,3.37-22.73-.29-11.44-5.89-24.34-7.95-37.4-8.53-.05,0-.11,0-.16,0-8.17-.33-14.46,7.12-13.05,15.18s4.6,14.66,9.82,20.17c6.24,6.58,15.04,10.14,24.11,10.14h43.43c12.78,0,25.2-4.64,34.6-13.29Z"/>
      <g>
        <path class="cls-1" d="M68.7,46.99c1.79.49,3.56,1.05,5.29,1.64,4.44,1.52,8.19,4.57,10.6,8.59,6.93,11.56,13.23,25.44,14.31,38.21-12.11,3.54-21.66,26.24-35.11,14.53l-6.6,1.04c-12.13,8.61-16.73-9.99-37.59-15.05h.01c.21-11.29,2.74-22.86,6.48-33.73,1.63-4.74,4.96-8.68,9.34-11.11,2.64-1.46,5.28-2.75,8-3.76,3.33,6.64,8.38,9.81,14.27,12.73,4.27-2.51,8.87-8.11,11-13.1Z"/>
        <g>
          <line class="cls-2" x1="18.65" y1="97.11" x2="20.54" y2="97.15"/>
          <line class="cls-2" x1="41.41" y1="49.18" x2="40.66" y2="47.45"/>
          <path class="cls-7" d="M25.94,65.09c.37-1.21.73-2.49,1.19-3.65.48-1.17,1.1-2.29,1.85-3.29.8-1.11,1.59-2.04,2.39-2.88.44-.47.89-.93,1.37-1.37.44-.4.9-.79,1.38-1.14.71-.5,1.4-.99,2.2-1.38l4.44-2.36c.26-.14.38-.46.27-.71-.11-.25-.41-.35-.69-.22l-4.66,2.18c-.81.35-1.61.84-2.37,1.32-.54.35-1.06.72-1.58,1.1-.55.43-1.1.87-1.6,1.37-.89.89-1.74,1.93-2.51,3.21-.67,1.17-1.28,2.39-1.79,3.64-.51,1.27-.9,2.49-1.33,3.72l-.43,1.27c-.67,2.4-1.35,4.85-2.01,7.23-.68,2.56-1.31,5.24-1.67,7.92-.15.99-.26,2-.39,3-.17,1.58-.32,3.17-.46,4.75l-.28,3.43c-.1,1.43-.17,2.9-.15,4.36,0,.3.22.53.49.54s.5-.22.52-.51c.09-1.44.18-2.9.27-4.31.08-1.13.19-2.25.33-3.38.19-1.57.46-3.12.74-4.67.19-.97.39-1.94.58-2.9.54-2.62,1.08-5.27,1.61-7.83.52-2.37,1.13-4.82,1.91-7.14l.37-1.28Z"/>
        </g>
        <g>
          <line class="cls-2" x1="74.29" y1="47.73" x2="73.68" y2="49.52"/>
          <line class="cls-2" x1="97.95" y1="96.58" x2="99.83" y2="96.42"/>
          <path class="cls-7" d="M92.19,74.05c.99,2.31,1.97,4.73,2.6,7.22.38,1.34.73,2.54,1.05,3.68l.59,1.89.49,1.75c.24.84.4,1.7.6,2.55.35,1.62.63,3.25.82,4.89.04.29.3.5.57.48.27-.02.47-.28.44-.58-.13-1.69-.32-3.38-.58-5.05-.15-.87-.27-1.74-.46-2.6l-.35-1.82c-.15-.66-.3-1.31-.45-1.97-.3-1.17-.69-2.38-1.18-3.73-.94-2.41-1.83-4.89-2.73-7.28l-.49-1.23c-1.02-2.25-2.05-4.53-3.06-6.75-1.1-2.38-2.35-4.79-3.76-7.05-.53-.84-1.04-1.68-1.65-2.53-.96-1.31-2.05-2.5-3.26-3.57-.87-.76-1.79-1.47-2.76-2.1-1.21-.78-2.55-1.46-3.95-1.91-.29-.09-.58.04-.67.3-.09.25.05.54.31.65,1.29.53,2.56,1.18,3.7,1.92.91.59,1.78,1.26,2.57,2.03,1.11,1.04,2.05,2.25,2.85,3.53.49.79.94,1.68,1.4,2.53,1.23,2.34,2.56,4.65,3.75,6.95,1.11,2.13,2.22,4.36,3.08,6.62l.54,1.21Z"/>
        </g>
      </g>
      <g>
        <path class="cls-6" d="M62.26,117.55c-1.56.47-3.44.85-5.63.95-7.49.34-12.92-8.27-10.59-12.57,1.67-2.49,3.49-3.35,5.43-3.35,3.51,0,5.65,2.12,10.29,3.28,4.27-1.48,6.46-3.76,9.9-3.76,2.72,0,5.31,2.34,5.31,6.43,0,.79-.11,1.59-.47,2.29-2.91,5.64-8.08,7.97-14.24,6.74Z"/>
        <path class="cls-6" d="M47.33,104.34c2.81-2.72,4.43-2.18,6.89-2.95,4.62-1.44,4.22-4.26,6.39-4.26,1.08,0,1.45,1.98,1.22,3.11-.56,2.7-3.86,1.71-3.86,4.15,0,2.04,1.5,4.04,2.73,5.59"/>
        <path class="cls-6" d="M75.96,104.62c-1.47-2.71-4.27-2.46-6.73-3.23-4.62-1.44-4.22-4.26-6.39-4.26-1.08,0-1.45,1.98-1.22,3.11.56,2.7,3.86,1.71,3.86,4.15,0,2.04-1.5,4.04-2.73,5.59"/>
      </g>
    </g>
  </g>
</svg>