<?xml version="1.0" encoding="utf-8"?>
<!-- Generator: Adobe Illustrator 25.4.1, SVG Export Plug-In . SVG Version: 6.00 Build 0)  -->
<svg version="1.1" id="Layer_1" xmlns="http://www.w3.org/2000/svg" xmlns:xlink="http://www.w3.org/1999/xlink" x="0px" y="0px"
	 viewBox="0 0 206.6 489.4" style="enable-background:new 0 0 206.6 489.4;" xml:space="preserve">
<style type="text/css">
	.st0{fill:#002776;}
	.st1{fill:#005AA4;}
	.st2{fill:none;}
	.st3{fill:#DC8000;}
	.st4{fill:#F8E9DD;}
	.st5{fill:#33AF85;}
</style>
<g id="underkropp_1_">
	<g>
		<path class="st0" d="M106.1,427.9c-0.3,13.8-1,30.7-4.3,44.5c7.8,6.3,25.4,17,41.4,17c9.2,0,15.6-1.6,22.9-4.7
			c-2.3-30.2-36.2-2.9-36.4-68"/>
	</g>
	<g>
		<path class="st0" d="M84.3,417.1c-10.5,41.6-26.6,22.2-27.5,40.9c2.6,2,6.7,2.4,10.6,2.4c2.1,0,4.1-0.1,5.8-0.1c0,0,0,0,0,0
			c0.1,0,0.1,0,0.2,0c22.1,0,24.6-3.3,37.1-23.3"/>
	</g>
	<g>
		<path class="st1" d="M43.5,187.1c-0.4,3.4-0.8,6.9-1.1,10.3c-1.4,14.1-2.2,28.2-2.2,42.3c0,88.7,21.9,148.1,46.3,180.1l-0.7,14.6
			c0,0,36.1,9.5,64.4-6.5c1.3-33.8,8.3-62.2,8.3-122.6c0-46.3-2.6-70-2.6-105.3c0-9.9,0.2-19.7,0.4-29.6"/>
	</g>
	<g>
		<line class="st2" x1="43.3" y1="197.6" x2="41.4" y2="197.4"/>
		<line class="st2" x1="157.2" y1="170.4" x2="155.3" y2="170.4"/>
		<path class="st0" d="M152.1,410.1c1.1-12.8,2.7-25.8,3.9-38.9c1.3-13.1,2.2-26.3,2.8-39.4c0.6-14.3,0.6-27.1,0.5-39.3
			c-0.1-6.8-0.3-13.5-0.5-20.3c-0.2-6.2-0.5-12.4-0.7-18.6c-0.4-9-0.8-17.9-1.1-26.9c-0.3-8.5-0.5-16.9-0.5-25.4l0.3-25.4
			c0-3-0.2-5.4-0.4-5.4c-0.3,0-0.5,2.4-0.6,5.4c-0.1,8.5-0.3,17.1-0.4,25.6c0,8.5,0.1,17.1,0.4,25.6l1,26.6
			c0.2,6.2,0.4,12.4,0.6,18.6c0.2,6.8,0.3,13.5,0.3,20.3c0.1,12.1,0.1,24.9-0.4,39.3c-0.4,13-1.3,26.1-2.5,39.2
			c-1.2,13.1-2.9,26.1-4,38.9c-0.4,4.4-0.7,8.9-1,13.4l-0.1,2.3l-0.1,1.2l0,0.5c0,0,0,0.1,0,0.1l-3.9,2l-1,0.5l-1.1,0.4l-2.2,0.9
			l-2.2,0.9l-2.2,0.7l-2.2,0.7l-1.1,0.3l-1.1,0.3l-4.6,1l-4.6,0.7c-1.5,0.2-3.1,0.3-4.6,0.5c-6.2,0.5-12.4,0.4-18.6-0.2
			c-3.1-0.3-6.1-0.7-9.2-1.2c-0.8-0.1-1.5-0.3-2.3-0.4l-1.1-0.2l-0.8-0.2c-0.1,0-0.1-0.1-0.1-0.1l0.1-1.1l0.1-2.3
			c0.2-3.3,0.4-6.6,0.5-9.9l0-0.5l0-0.3l-0.2-0.2l-0.5-0.7l-0.7-1l-1.4-2c-1-1.4-2-2.7-2.8-4.1c-1.8-2.8-3.6-5.6-5.2-8.5l-2.5-4.4
			l-2.3-4.5c-6.1-12-10.9-24.7-14.9-37.5c-3.1-9.5-5.4-19.3-7.5-29.1c-3.2-15.5-5.4-31.2-6.7-47.1l-0.7-8.5l-0.4-8.6
			c-0.1-2.9-0.3-5.7-0.4-8.6l-0.1-8.6c-0.3-14.2,0.3-29,1.5-43.5c0.3-2.9,0.3-5.3,0-5.3c-0.3,0-0.7,2.3-1,5.2
			c-1.3,14.5-2,29.4-1.6,43.7l0.1,8.6c0.1,2.9,0.2,5.7,0.4,8.6c0.1,2.9,0.3,5.7,0.4,8.6c0.2,2.9,0.4,5.7,0.7,8.6
			c1.3,15.9,3.4,31.7,6.5,47.4c2.1,9.8,4.3,19.5,7.3,29c3.9,13,8.8,25.7,15,37.9l2.3,4.5l2.5,4.4c1.6,3,3.5,5.8,5.3,8.6
			c0.9,1.4,1.9,2.8,2.9,4.1l1.5,2l0.7,1l0.2,0.3l0.1,0.1c0,0,0,0,0,0c0,0,0,0,0,0l0,0.2c-0.2,3.3-0.3,6.6-0.5,9.9l-0.1,2.3l-0.1,1.2
			l0,1.1c0,0.1,0,0.2,0,0.3l0.3,0.1l0.5,0.1l1.4,0.3l1.1,0.2c0.8,0.2,1.5,0.3,2.3,0.4c3.1,0.5,6.2,1,9.3,1.2
			c6.2,0.6,12.5,0.6,18.8,0.2c1.6-0.2,3.1-0.3,4.7-0.5l4.7-0.7c1.5-0.3,3.1-0.7,4.6-1l1.2-0.3l1.1-0.3l2.3-0.7l2.3-0.7l2.2-0.9
			l2.2-0.9l1.1-0.4l1.1-0.5c1.5-0.7,2.9-1.5,4.4-2.2c0.1-0.1,0.3-0.1,0.4-0.3l0-0.5l0-0.8l0.1-1.2l0.1-2.3
			C151.4,419,151.7,414.6,152.1,410.1z"/>
	</g>
	<g>
		<line class="st2" x1="94.9" y1="231.8" x2="93.1" y2="231.7"/>
		<line class="st2" x1="85.7" y1="414.4" x2="87.6" y2="414.5"/>
		<path class="st0" d="M87.4,337.4c-0.2,8.3-0.4,16.8-0.6,25.2c-0.1,4.6-0.1,8.7-0.1,12.6l0,6.5c0,2,0,4,0,6l-0.1,8.6
			c-0.1,5.4-0.2,10.9-0.3,16.3c0,1,0.2,1.7,0.5,1.8c0.3,0,0.5-0.8,0.6-1.7c0.2-5.5,0.4-11,0.6-16.4l0.2-8.5l0.2-6
			c0-2.2,0.1-4.3,0.1-6.5c0-3.9,0-8,0-12.6c-0.1-8.4,0.2-16.9,0.5-25.1l0.2-4.3c0.3-8,0.8-16.1,1.4-24c0.6-8.5,1.4-17.2,2-25.8
			l0.6-9.6c0.3-5.1,0.6-10.2,0.8-15.3c0.1-3.7,0.3-7.4,0.3-11c0.1-4.6,0.2-9.3,0.3-14c0-0.9-0.2-1.7-0.5-1.7c-0.3,0-0.5,0.7-0.5,1.7
			c-0.2,4.7-0.3,9.4-0.4,14c0,3.7-0.1,7.3-0.3,11c-0.3,5.1-0.7,10.2-1.1,15.3c-0.3,3.2-0.6,6.4-0.8,9.6c-0.8,8.6-1.4,17.4-2,25.9
			c-0.5,7.9-0.9,16-1.3,24L87.4,337.4z"/>
	</g>
</g>
<path id="hår_1_" class="st3" d="M105.3,106.3c28.9,1.6,54.2-20.1,56.1-48.9c0-0.6,0.1-1.2,0.1-1.9c1-28-16.2-54.3-46.5-55.4
	c-14.9-0.6-21.3,4.1-31.7,12.5c-21.5,17.6-62.4-6.8-76,42.1c-3.5,12.5-0.9,22.5,3.8,30.1c6.7,10.7,18.4,17.2,30.9,17.9L105.3,106.3z
	"/>
<g id="hode_3_">
	<path class="st4" d="M132.7,93c-0.8-10.7-2.5-20.8-2.1-31.2c10.9-3.3,17.2-14.5,17.6-25.6c0.6-15.7-10.1-31.7-27.1-32.3
		c-7.4-0.3-12.6,1.9-16.8,6.3c0,0,0.2,8.7-3.7,13.5c-1.3-2-4.3-3.9-6.9-4c-2.8-0.1-4.5,2.1-4.6,4.6c-0.1,2.9,2.1,7,6.2,8.7
		c-0.3,9.1,1,18.8,7.9,24.1c0.9,4.8,1.3,9.8,1.1,14.6c-0.1,3.2-0.5,6.2-1.2,9"/>
	<g>
		<line class="st2" x1="109.9" y1="12.2" x2="111.6" y2="13.1"/>
		<line class="st2" x1="125.4" y1="14.2" x2="126.6" y2="12.8"/>
		<path class="st0" d="M121.2,11.4c0.3,0.1,0.6,0.2,0.9,0.3c0.4,0.2,0.8,0.4,1.2,0.6c0.7,0.4,1.5,0.9,2.1,1.4c0.1,0.1,0.4,0,0.5-0.2
			c0.2-0.2,0.2-0.5,0.1-0.6c-0.7-0.6-1.4-1.2-2.1-1.7c-0.4-0.3-0.8-0.5-1.2-0.8l-0.9-0.5l-0.2-0.1c-1.4-0.4-2.7-0.9-4.1-1.1
			c-0.2,0-0.5-0.1-0.7-0.1l-0.5,0c-0.9,0.1-1.8,0.3-2.6,0.6c-0.6,0.3-1.2,0.6-1.7,1c-0.6,0.5-1.2,1.2-1.5,1.9
			c-0.1,0.1,0.1,0.4,0.3,0.5c0.2,0.1,0.5,0.1,0.6,0c0.4-0.6,0.9-1.1,1.4-1.5c0.4-0.3,0.9-0.6,1.4-0.8c0.7-0.3,1.5-0.3,2.2-0.3
			l0.4,0.1c0.2,0,0.4,0,0.6,0c1.2,0.1,2.5,0.4,3.7,1.1L121.2,11.4z"/>
	</g>
	<g>
		<line class="st2" x1="134.9" y1="14.2" x2="136.2" y2="15.6"/>
		<line class="st2" x1="141.4" y1="13.8" x2="141.8" y2="12"/>
		<path class="st0" d="M139.8,13.7c0.1-0.1,0.2-0.1,0.3-0.1c0.2,0,0.3-0.1,0.5-0.1c0.3-0.1,0.6,0,0.9-0.1c0,0,0.1-0.2,0.2-0.5
			c0.1-0.3,0.1-0.5,0-0.5c-0.4-0.1-0.7-0.2-1.1-0.2c-0.2,0-0.4,0-0.6,0l-0.4,0l-0.1,0c-0.5,0.3-1.1,0.4-1.6,0.5l-0.3,0.1l-0.1,0.1
			c-0.3,0.2-0.5,0.4-0.8,0.6c-0.2,0.1-0.4,0.3-0.6,0.4c-0.2,0.2-0.5,0.4-0.7,0.6c0,0,0.1,0.2,0.3,0.4c0.2,0.2,0.4,0.3,0.4,0.3
			c0.2-0.1,0.4-0.3,0.7-0.4c0.2-0.1,0.3-0.2,0.5-0.3c0.3-0.1,0.5-0.2,0.8-0.3l0.2,0c0.1,0,0.1-0.1,0.2-0.1
			C138.8,13.8,139.2,13.6,139.8,13.7L139.8,13.7z"/>
	</g>
	<g>
		<path class="st4" d="M123.5,14.4c3.2-3.1,7.2-6.3,11.7-6.2c2.5,0.1,3.3,1.6,3.3,3.4c-0.1,2.1-1.4,4.7-2.9,6.2"/>
		<g>
			<line class="st2" x1="122.8" y1="13.8" x2="124.2" y2="15.1"/>
			<line class="st2" x1="134.9" y1="17.2" x2="136.3" y2="18.6"/>
			<path class="st0" d="M136.4,9.2c0.4,0.1,0.8,0.4,1.1,0.7c0.2,0.4,0.3,0.9,0.3,1.4c0,0.5-0.1,1-0.2,1.5c0,0.3-0.1,0.6-0.2,0.8
				c-0.1,0.3-0.1,0.5-0.2,0.8c-0.1,0.4-0.3,0.7-0.5,1.1c-0.3,0.7-0.7,1.3-1.2,1.9c-0.1,0.1,0,0.3,0.2,0.5c0.2,0.2,0.4,0.3,0.5,0.2
				c0.6-0.6,1.1-1.2,1.5-1.9c0.2-0.4,0.5-0.7,0.6-1.1c0.1-0.3,0.3-0.5,0.4-0.8c0.1-0.3,0.3-0.6,0.4-0.9c0.2-0.6,0.3-1.2,0.2-2
				c-0.1-0.7-0.3-1.4-0.7-2.1c-0.4-0.6-1.1-1.1-1.7-1.4c-0.2-0.1-0.5-0.2-0.7-0.2c-1.3-0.1-2.5-0.1-3.7,0.1
				c-1.3,0.2-2.6,0.7-3.6,1.4c-0.4,0.3-0.8,0.5-1.2,0.8c-0.6,0.5-1.2,1-1.7,1.4l-1.2,1.1c-0.5,0.4-1,0.9-1.4,1.4
				c-0.1,0.1,0,0.3,0.2,0.5c0.2,0.2,0.4,0.3,0.5,0.2c0.5-0.4,1-0.9,1.5-1.3c0.4-0.3,0.8-0.7,1.2-1c0.6-0.4,1.2-0.8,1.8-1.1
				c0.4-0.2,0.8-0.4,1.2-0.6c1.1-0.5,2.1-1,3.2-1.3c1-0.3,2.1-0.4,3-0.2C136,9.2,136.2,9.2,136.4,9.2z"/>
		</g>
	</g>
	<g>
		<line class="st2" x1="114.5" y1="19.5" x2="113.3" y2="21"/>
		<line class="st2" x1="142.5" y1="22.9" x2="141.3" y2="21.5"/>
		<path class="st0" d="M133.9,27c0.6-0.1,1.2-0.2,1.7-0.4c0.8-0.2,1.6-0.5,2.4-0.9c1.4-0.7,2.7-1.8,3.8-2.8c0.2-0.2,0.2-0.5,0-0.7
			c-0.2-0.2-0.5-0.2-0.7-0.1c-1.2,1-2.4,1.9-3.7,2.4c-0.7,0.3-1.4,0.5-2.2,0.7c-0.5,0.1-1,0.2-1.6,0.2l-0.4,0
			c-2.2,0.3-4.7,0.2-6.9-0.3c-0.4-0.1-0.8-0.2-1.1-0.3c-0.3,0-0.5-0.1-0.8-0.1c-1.4-0.3-2.7-0.7-4-1.2c-0.9-0.4-1.9-0.8-2.7-1.3
			c-1.1-0.6-2.2-1.3-3.3-2.1c-0.2-0.2-0.5-0.1-0.7,0.1c-0.2,0.2-0.1,0.5,0.1,0.7c1,0.9,2.2,1.6,3.3,2.3c0.9,0.5,1.9,1,2.8,1.4
			c1.3,0.6,2.7,1.1,4.1,1.6c0.2,0.1,0.5,0.2,0.7,0.2c0.4,0.1,0.8,0.2,1.2,0.2c2.4,0.4,4.8,0.5,7.3,0.4L133.9,27z"/>
	</g>
</g>
<g id="overkropp_4_">
	<path id="nakke_1_" class="st4" d="M155,84.3L77.7,64.5C102.7,114.3,149.5,110,155,84.3z"/>
	<path id="overkropp_5_" class="st0" d="M162.5,178.5c0.7-31.3,2.4-62.7,2.9-94L143.3,79c-3.8,6.8-10.2,10.4-19.7,10.4
		c-16.4,0-28.7-10.8-34.6-24.1l-16.1-4.1c-15.6,44-27.4,87.7-32.6,131.1L162.5,178.5z"/>
</g>
<path id="høyre_arm_1_" class="st0" d="M145.3,146.5c9.8,16.9,21.7,25,32.8,25c13.2,0,28.5-10.4,28.5-24.2
	c0-19.3-26.1-44.7-41.3-62.7C165.3,84.5,148.6,89.3,145.3,146.5z"/>
<g id="venstre_arm_2_">
	<path id="venstre_arm_3_" class="st0" d="M80.7,145.9c-2.5,3.1-23.2,11.3-43.1,11.3c-19.4,0-37.6-6.8-37.6-25.8
		c0-40.2,60.4-64.2,72.8-70.2C84.5,68.2,90.5,80.4,80.7,145.9z"/>
</g>
<g id="dokument_1_">
	<g>
		<path class="st4" d="M171.1,204.1c-28,5.9-56.3,12.3-85.1,19.3C94,183.8,66,143,67.7,101.2c28.4-1.4,57-2.2,85.7-2.5
			C147,134.9,172,170,171.1,204.1z"/>
	</g>
	<g>
		<line class="st2" x1="87.1" y1="122.6" x2="87.2" y2="124.5"/>
		<line class="st2" x1="134.9" y1="121.2" x2="134.8" y2="119.3"/>
		<path class="st0" d="M120.5,122l2.6-0.3l3.8-0.3l7.2-0.6c0.4,0,0.8-0.3,0.7-0.6c0-0.3-0.4-0.5-0.8-0.4l-7.2,0.4l-3.8,0.2l-2.6,0.1
			l-0.6,0c-3.7,0.4-7.4,0.6-11.1,0.8l-1.9,0.1l-1.2,0.1c-2.2,0.2-4.5,0.4-6.7,0.6l-4.8,0.4c-2,0.1-4.1,0.3-6.2,0.5
			c-0.4,0-0.7,0.3-0.7,0.6c0,0.3,0.4,0.5,0.8,0.4c2.1-0.1,4.2-0.2,6.2-0.4c1.6-0.1,3.2-0.2,4.8-0.3l6.8-0.3l1.2,0l1.9-0.2
			c3.6-0.3,7.4-0.6,11.1-0.7L120.5,122z"/>
	</g>
	<g>
		<line class="st2" x1="135.7" y1="126.4" x2="135.6" y2="124.5"/>
		<line class="st2" x1="88.1" y1="128.3" x2="88.3" y2="130.1"/>
		<path class="st0" d="M108.1,126.9c-2.1,0.2-4.4,0.5-6.5,0.5c-1.2,0-2.3,0.1-3.3,0.2l-1.7,0.2l-1.5,0.2l-2.2,0.2l-4.2,0.5
			c-0.2,0-0.4,0.3-0.4,0.5s0.2,0.5,0.5,0.5l4.3-0.2l2.2-0.1l1.6,0c0.6,0,1.1,0,1.7-0.1c1-0.1,2.1-0.2,3.3-0.3
			c2.2-0.3,4.4-0.4,6.5-0.6l1.1-0.1c2.1-0.2,4.2-0.3,6.2-0.5c2.2-0.1,4.5-0.2,6.7-0.5l2.5-0.3c1.3-0.2,2.6-0.3,4-0.5
			c0.9-0.1,1.9-0.2,2.9-0.3c1.2-0.1,2.4-0.2,3.6-0.3c0.2,0,0.4-0.3,0.4-0.5s-0.2-0.5-0.5-0.5c-1.2,0-2.4,0.1-3.6,0.2
			c-0.9,0.1-1.9,0.1-2.9,0.2c-1.3,0.1-2.7,0.1-4,0.2c-0.8,0-1.7,0.1-2.5,0.1c-2.3,0.1-4.5,0.3-6.7,0.5c-2,0.2-4.1,0.4-6.2,0.5
			L108.1,126.9z"/>
	</g>
	<g>
		<line class="st2" x1="89.3" y1="133.9" x2="89.5" y2="135.8"/>
		<line class="st2" x1="119.6" y1="133" x2="119.4" y2="131.1"/>
		<path class="st0" d="M110.5,133.7l1.7-0.2l2.4-0.3l4.5-0.5c0.3,0,0.5-0.3,0.4-0.6c0-0.3-0.3-0.5-0.5-0.5l-4.6,0.3l-2.4,0.1
			l-1.7,0.1l-0.4,0c-2.3,0.4-4.7,0.5-7,0.7l-1.2,0.1l-0.8,0.1c-1.4,0.2-2.8,0.4-4.2,0.5c-1,0.1-2,0.2-3.1,0.3
			c-1.3,0.1-2.6,0.2-3.9,0.4c-0.3,0-0.4,0.3-0.4,0.5s0.3,0.5,0.5,0.5c1.3-0.1,2.6-0.2,3.9-0.3c1-0.1,2-0.2,3.1-0.3
			c1.4-0.1,2.8-0.2,4.3-0.3l0.8,0l1.2-0.1c2.3-0.3,4.7-0.5,7-0.6L110.5,133.7z"/>
	</g>
	<g>
		<line class="st2" x1="92.2" y1="145.2" x2="92.4" y2="147.1"/>
		<line class="st2" x1="139.2" y1="142" x2="139" y2="140.1"/>
		<path class="st0" d="M119.5,144c2.1-0.3,4.3-0.6,6.4-0.7c1.2-0.1,2.2-0.2,3.2-0.3l1.7-0.3l1.5-0.2l2.2-0.3l4.2-0.6
			c0.2,0,0.4-0.3,0.4-0.6s-0.2-0.5-0.5-0.4l-4.2,0.3l-2.2,0.2l-1.5,0.1c-0.6,0-1.1,0.1-1.7,0.1c-1,0.1-2,0.2-3.2,0.4
			c-2.1,0.4-4.3,0.6-6.4,0.8l-1.1,0.1c-2,0.3-4.1,0.5-6.1,0.6c-2.2,0.2-4.4,0.4-6.6,0.7l-2.5,0.4c-1.3,0.2-2.6,0.4-3.9,0.6
			c-0.9,0.1-1.9,0.2-2.8,0.3c-1.2,0.1-2.4,0.3-3.6,0.4c-0.2,0-0.4,0.3-0.4,0.5c0,0.3,0.2,0.5,0.5,0.4c1.2-0.1,2.4-0.2,3.6-0.3
			c0.9-0.1,1.9-0.2,2.8-0.3c1.3-0.1,2.6-0.2,3.9-0.3c0.8-0.1,1.6-0.1,2.5-0.2c2.2-0.1,4.5-0.4,6.6-0.7c2-0.3,4.1-0.6,6.1-0.7
			L119.5,144z"/>
	</g>
	<g>
		<line class="st2" x1="137.2" y1="147.5" x2="137" y2="145.6"/>
		<line class="st2" x1="93.8" y1="150.8" x2="94" y2="152.7"/>
		<path class="st0" d="M112,148.8c-1.9,0.3-4,0.6-6,0.7c-1.1,0.1-2.1,0.2-3,0.3l-1.5,0.3l-1.4,0.2l-2,0.3l-3.8,0.6
			c-0.2,0-0.4,0.3-0.3,0.6c0,0.3,0.2,0.5,0.5,0.4l3.9-0.3l2-0.2l1.4-0.1c0.5,0,1-0.1,1.6-0.1c0.9-0.1,1.9-0.2,3-0.4
			c2-0.4,4-0.6,5.9-0.8l1-0.1c1.9-0.3,3.8-0.5,5.7-0.6c2-0.2,4.1-0.4,6.1-0.7l2.3-0.4c1.2-0.2,2.4-0.4,3.6-0.6
			c0.9-0.1,1.7-0.2,2.6-0.3c1.1-0.1,2.2-0.3,3.3-0.5c0.2,0,0.4-0.3,0.3-0.6c0-0.3-0.2-0.5-0.5-0.4c-1.1,0.1-2.2,0.2-3.3,0.3
			c-0.9,0.1-1.7,0.2-2.6,0.3c-1.2,0.1-2.4,0.2-3.6,0.3c-0.8,0.1-1.5,0.1-2.3,0.2c-2.1,0.1-4.1,0.5-6.1,0.8c-1.9,0.3-3.8,0.6-5.7,0.7
			L112,148.8z"/>
	</g>
	<g>
		<line class="st2" x1="142.1" y1="152.3" x2="141.9" y2="150.4"/>
		<line class="st2" x1="95.4" y1="156.4" x2="95.7" y2="158.3"/>
		<path class="st0" d="M109.5,154.8l-2.6,0.4l-3.7,0.5l-7,1c-0.4,0.1-0.7,0.3-0.7,0.6s0.4,0.4,0.8,0.4l7.1-0.8l3.7-0.4l2.6-0.3
			l0.6-0.1c3.6-0.6,7.2-1,10.8-1.4l1.8-0.2l1.2-0.2c2.2-0.3,4.4-0.7,6.5-1l4.7-0.6c2-0.3,4-0.5,6-0.8c0.4-0.1,0.7-0.3,0.7-0.6
			c0-0.3-0.4-0.4-0.8-0.4c-2,0.2-4.1,0.5-6,0.7c-1.6,0.2-3.1,0.4-4.7,0.6l-6.6,0.7l-1.2,0.1l-1.9,0.3c-3.5,0.5-7.2,1-10.8,1.3
			L109.5,154.8z"/>
	</g>
	<g>
		<line class="st2" x1="97" y1="162" x2="97.3" y2="163.9"/>
		<line class="st2" x1="118.8" y1="160.8" x2="118.5" y2="158.9"/>
		<path class="st0" d="M109.7,161.9c1-0.2,2-0.4,3-0.4c0.5,0,1-0.1,1.5-0.2c0.3-0.1,0.5-0.1,0.8-0.2c0.2-0.1,0.5-0.1,0.7-0.2l1-0.2
			l1.9-0.4c0.1,0,0.2-0.3,0.1-0.5c0-0.3-0.2-0.5-0.3-0.5l-1.9,0.2l-1,0.1c-0.2,0-0.5,0-0.7,0c-0.3,0-0.5,0-0.8,0
			c-0.5,0.1-0.9,0.1-1.5,0.3c-1,0.3-2,0.4-3,0.5l-0.5,0c-0.9,0.2-1.9,0.3-2.8,0.4c-1,0.1-2,0.2-3,0.4l-1.1,0.3
			c-0.6,0.1-1.2,0.3-1.8,0.4c-0.4,0.1-0.9,0.2-1.3,0.2c-0.5,0.1-1.1,0.2-1.6,0.3c-0.1,0-0.2,0.3-0.1,0.5c0,0.3,0.2,0.5,0.3,0.5
			c0.6,0,1.1-0.1,1.7-0.2c0.4-0.1,0.9-0.1,1.3-0.2c0.6-0.1,1.2-0.1,1.8-0.1c0.4,0,0.8,0,1.1-0.1c1,0,2.1-0.3,3-0.5
			c0.9-0.2,1.9-0.4,2.8-0.4L109.7,161.9z"/>
	</g>
	<g>
		<g>
			<line class="st2" x1="156.8" y1="192.6" x2="153.8" y2="190.2"/>
			<line class="st2" x1="153.8" y1="190.2" x2="156.8" y2="192.6"/>
			<path class="st5" d="M149.4,176.7c0.9,0.3,1.8,0.9,2.6,1.6c1.1,1,2.1,2.2,2.8,3.6c0.6,1.3,1.1,2.7,1.2,4.1c0.1,1.4-0.2,2.8-0.9,4
				c-0.3,0.4-0.1,1,0.3,1.4c0.4,0.3,1.1,0.2,1.4-0.3c1-1.5,1.5-3.4,1.5-5.2c0-1.8-0.5-3.5-1.2-5.1c-0.7-1.7-1.8-3.2-3.1-4.5
				c-0.9-0.9-2-1.7-3.2-2.4c-0.3-0.2-0.6-0.3-0.9-0.4c-1.4-0.4-2.8-0.6-4.3-0.5l-1.1,0.1c-0.4,0.1-0.8,0.2-1.1,0.3
				c-0.7,0.2-1.4,0.6-2,1c-2.5,1.6-4.1,4.1-4.8,6.7c-0.3,0.9-0.4,1.9-0.4,2.8c0,0.6,0.1,1.2,0.2,1.8c0.5,3.3,2.1,6.4,4.6,8.6
				c1.8,1.6,4.2,2.7,6.7,2.5c3.1-0.1,6-1.9,7.8-4.1c0.4-0.5,0.3-1.1-0.1-1.4c-0.4-0.3-1-0.3-1.4,0.1c-1.8,1.8-4.1,3.2-6.4,3.2
				c-1.8,0.1-3.7-0.7-5-2.1c-1.9-1.8-3.1-4.6-3.2-7.2c0-0.5,0-0.9,0-1.4c0-0.7,0.1-1.5,0.2-2.2c0.5-2,1.7-4,3.4-5.1
				c0.4-0.3,0.9-0.5,1.3-0.6c0.2-0.1,0.5-0.1,0.7-0.2l0.8-0.1c1,0,2.1,0.2,3,0.6C148.9,176.6,149.2,176.6,149.4,176.7z"/>
		</g>
		<g>
			<line class="st2" x1="145.2" y1="181" x2="142.2" y2="183.2"/>
			<line class="st2" x1="155.2" y1="169" x2="151.5" y2="168.2"/>
			<path class="st5" d="M153.3,177.5c0-0.5,0.1-1.1,0.1-1.6l0.2-2.3c0.2-1.5,0.3-2.9,0.5-4.3c0-0.3-0.4-0.6-0.9-0.7s-1,0-1.1,0.3
				c-0.4,1.4-0.7,2.9-1.1,4.3l-0.5,2.2c-0.1,0.5-0.3,1-0.4,1.5l-0.1,0.4c-0.1,2.2-0.6,4.5-1.4,6.4c-0.1,0.3-0.2,0.7-0.4,1l-0.1,0.3
				l0,0.1c0,0.2,0,0.4-0.1,0.6c0,0.1-0.1,0.2-0.1,0.4l-0.1,0.2c0,0.1,0,0-0.1-0.1l-0.1-0.1c-0.1-0.1-0.2-0.3-0.3-0.4l-0.5-0.7
				c-0.7-1.1-1.4-2.1-2.3-3.1c-0.2-0.2-0.7-0.1-1.1,0.2c-0.4,0.3-0.7,0.7-0.5,1c0.6,1.1,1.4,2.1,2,3.1l0.5,0.8
				c0.2,0.3,0.4,0.7,0.6,1c0.4,0.7,0.7,1.6,1.1,2.4l0.3,0.7l0.2-0.1c0.1,0,0.1,0,0.2-0.2l0.4-0.5l0.8-1.1c0.6-0.7,1.1-1.6,1.6-2.5
				c0.1-0.2,0.2-0.4,0.3-0.6l0.2-0.4c0.1-0.4,0.2-0.8,0.4-1.2c0.6-2.3,0.9-4.6,1.7-6.8L153.3,177.5z"/>
		</g>
	</g>
	<g>
		<line class="st2" x1="101.5" y1="192.9" x2="103.4" y2="192.7"/>
		<line class="st2" x1="131" y1="186.1" x2="129.8" y2="184.7"/>
		<path class="st0" d="M111.8,188.7c0.6-1.2,1.3-2.4,2.2-3.3c0.4-0.5,0.9-0.9,1.4-1.1c0.4-0.2,0.9-0.1,1.4,0.1
			c0.9,0.6,1.7,1.8,2.1,3.1c0.5,1.3,0.8,2.6,0.9,3.9c0.1,1.1,0.1,2.3-0.1,3l1.6-0.2c-0.7-1.5-0.6-3-0.3-4.4c0.4-1.2,1.1-2.4,2-3.3
			c0.2-0.2,0.5-0.4,0.7-0.5l0.5-0.3c0.1-0.1,0.1,0,0.2,0.1l0.1,0.1l0.1,0.2c0.1,0.1,0.2,0.3,0.2,0.4c0.9,1.6,1.4,3.4,1.4,5.2
			c0,0.7-0.2,1.4-0.5,2.1l1.1,0.4c0.4-2.8,1.2-5.5,3-7.6c0.4-0.5,0.6-1,0.4-1.2c-0.2-0.2-0.7,0-1.2,0.5c-1,1.1-1.8,2.4-2.3,3.8
			c-0.5,1.4-0.9,2.8-1.1,4.2l-0.7,3.8l1.8-3.4c0.4-0.8,0.6-1.7,0.7-2.6c0.1-2.1-0.4-4.1-1.4-5.9c-0.1-0.2-0.2-0.3-0.3-0.5l-0.1-0.2
			l-0.2-0.3c-0.2-0.2-0.4-0.5-0.6-0.7l-0.1-0.2l-0.1-0.1c0,0-0.1,0-0.1,0l-0.4,0.2c-0.3,0.1-0.6,0.2-0.8,0.4l-0.5,0.3
			c-0.3,0.2-0.6,0.4-0.9,0.6c-1.2,1-2.2,2.4-2.7,4c-0.5,1.7-0.6,3.6,0.4,5.6l1,2.2l0.5-2.3c0.3-1.1,0.2-2.4,0.1-3.6
			c-0.2-1.5-0.6-2.9-1.2-4.3c-0.3-0.7-0.6-1.4-1.1-2c-0.4-0.6-0.9-1.3-1.7-1.7c-0.7-0.5-1.8-0.6-2.7-0.2c-0.8,0.4-1.4,0.9-1.9,1.4
			c-1,1.1-1.8,2.3-2.5,3.6c-0.5,0.9-0.9,1.8-1.2,2.7c-0.9,2.6-1.5,5.3-1.7,8.1c-0.1,1.4-0.2,2.8-0.1,4.1c0,0.7,0.1,1.4,0.1,2
			c0,0.7,0.1,1.4,0.1,2.1l0,0.5l0,0.3l0,0.1l0,0.1c0,0,0.1,0,0.1,0l0.4,0.2l0.2,0.1l-0.1-0.1c0,0,0.2,0.1,0.4,0.2
			c0.1,0,0.2,0,0.2,0.1c0,0,0.1,0,0.1,0l-0.1,0c-0.2-0.1,0.1,0,0.2,0.1l0.4,0.2l0.4-0.4l0.6-0.6c0.3-0.3,0.5-0.6,0.8-0.9
			c0.2-0.3,0.5-0.6,0.7-0.9c0.9-1.3,1.5-2.7,2-4.1c0.5-1.4,0.9-2.9,1.1-4.4c0.3-1.5,0.4-3,0.4-4.5c0.1-2.2-0.1-4.4-0.6-6.6
			c-0.4-1.7-0.8-3.4-1.5-5c-0.4-0.8-0.7-1.6-1.4-2.4c-0.3-0.4-0.7-0.7-1.1-1c-0.4-0.3-0.9-0.4-1.3-0.6c-0.1-0.1-0.2-0.1-0.4-0.2
			l-0.6-0.3c-0.8,0.6-1.2,0.9-1.6,1.3c-0.4,0.4-0.8,0.8-1.2,1.3c-0.7,0.9-1.3,1.9-1.9,2.9c-1.5,2.8-2.2,6.1-2.1,9.3
			c0,0.7,0.3,1.2,0.6,1.1c0.3,0,0.5-0.5,0.4-1.1c0-3.1,0.7-6.1,2.1-8.8c0.5-0.9,1.1-1.8,1.7-2.6c0.3-0.4,0.7-0.8,1.1-1.1
			c0.4-0.3,0.9-0.8,1-0.8c0,0,0.1,0,0.1,0.1l0.3,0.1c0.8,0.3,1.4,0.6,1.8,1.2c0.5,0.6,0.8,1.3,1.1,2.1c0.6,1.5,0.9,3.2,1.2,4.9
			c0.3,2.1,0.4,4.2,0.3,6.2c-0.1,1.4-0.2,2.8-0.5,4.2c-0.2,1.4-0.6,2.8-1.1,4.1c-0.5,1.3-1,2.6-1.8,3.7c-0.2,0.3-0.4,0.6-0.6,0.8
			c-0.2,0.3-0.4,0.5-0.6,0.8c-0.2,0.2-0.1,0.1-0.1,0.2l0,0l0.2,0.1c0,0,0.2,0.1-0.1,0l-0.1,0c0,0,0,0,0,0c0,0,0.1,0,0.1,0
			c0,0,0.2,0.1,0.1,0.1l-0.3-0.1c-0.1,0,0,0,0,0l0.2,0.1c0.1,0,0,0,0-0.1c0-0.6-0.1-1.2-0.1-1.9c0-0.7-0.1-1.3-0.1-2
			c-0.1-1.3,0-2.6,0.1-3.9c0.2-2.6,0.8-5.2,1.7-7.7C111,190.4,111.4,189.5,111.8,188.7z"/>
	</g>
</g>
<g id="hånd_venstre_1_">
	<g>
		<path class="st4" d="M87.3,107c0.6,0.8,1.2,1.5,1.2,2.3c0,1.3-1,2.5-2.6,3.2c0.2,0.9,0.3,1.8,0.3,2.3c-0.1,1.7-1.4,1.3-2.1,2.2
			c-0.7,2.2-2.5,3.4-4.1,3.8c-4.4,1.2-9-0.2-10.4-0.4c-2.5,2.9-6.5,5.6-9.8,5.6c-5.7,0-9.4-6.9-9.4-11.8c0-15.7,11.1-21.1,19.7-24.6
			c7.7,3.7,18.6,10.3,18.6,14.7C88.7,105.3,88,106.3,87.3,107z"/>
	</g>
	<g>
		<line class="st2" x1="69.1" y1="96.1" x2="68.5" y2="97.9"/>
		<line class="st2" x1="86.7" y1="111.1" x2="87.7" y2="112.8"/>
		<path class="st0" d="M82.6,104.1c1,0.6,2.1,1.3,2.9,2.2c0.4,0.5,0.8,0.9,1.2,1.3c0.2,0.2,0.4,0.4,0.6,0.6c0.2,0.2,0.3,0.4,0.4,0.6
			c0.2,0.3,0.2,0.7,0.3,1c0.1,0.6-0.2,1.2-0.7,1.6c-0.1,0.1-0.1,0.3,0.1,0.6c0.1,0.2,0.4,0.4,0.5,0.3c0.4-0.2,0.8-0.6,1-1
			c0.3-0.4,0.4-1,0.4-1.5c0-0.5-0.1-1-0.2-1.5c-0.1-0.3-0.2-0.6-0.4-0.9c-0.2-0.3-0.3-0.6-0.6-0.9c-0.4-0.5-0.9-1-1.4-1.4
			c-1-0.7-2.1-1.5-3.1-2.2l-0.5-0.4c-1.1-0.6-2.1-1.2-3.1-1.8c-1.1-0.6-2.3-1.2-3.5-1.7c-0.5-0.2-0.9-0.3-1.4-0.5l-2.2-0.7
			c-0.5-0.2-1-0.4-1.5-0.5c-0.6-0.2-1.3-0.5-2-0.6c-0.1,0-0.3,0.1-0.4,0.4c-0.1,0.3-0.1,0.5,0.1,0.6c0.6,0.3,1.3,0.5,1.9,0.7
			c0.5,0.2,1,0.4,1.5,0.6c0.7,0.3,1.4,0.6,2,1c0.4,0.2,0.8,0.4,1.2,0.6c1.1,0.6,2.3,1.1,3.4,1.6c1,0.5,2.1,1,3.1,1.6L82.6,104.1z"/>
	</g>
	<g>
		<line class="st2" x1="67.8" y1="103.3" x2="67.2" y2="105.1"/>
		<line class="st2" x1="66.1" y1="112.1" x2="65.6" y2="113.9"/>
		<path class="st0" d="M84.2,115.9c-0.4,0-0.8-0.1-1.3-0.2c-0.5-0.2-1-0.3-1.5-0.5c-1-0.3-2-0.5-3-0.8c-1.1-0.3-2.1-0.4-3-0.5
			c-0.5-0.1-1-0.1-1.6-0.1c-0.5,0-1-0.1-1.4-0.1l-2.1-0.3c-1.3-0.2-2.6-0.4-3.8-0.7c-0.2-0.1-0.5,0.1-0.5,0.4s0.1,0.5,0.3,0.6
			c1.3,0.4,2.6,0.7,3.9,1l2,0.4l1.4,0.3c0.5,0.1,1,0.2,1.6,0.3c0.9,0.1,1.9,0.3,3,0.4c1,0.1,2,0.3,2.9,0.6c0.5,0.1,0.9,0.3,1.4,0.5
			c0.5,0.2,1.1,0.3,1.7,0.4c0.4,0,0.8,0,1.3-0.1c0.6-0.2,1.2-0.5,1.6-1.2c0.2-0.4,0.2-0.8,0.2-1.1c0-0.3-0.1-0.6-0.2-0.9
			c-0.5-1.1-1.2-1.9-2-2.6c-1.6-1.4-3.5-2.5-5.5-3.4c-0.7-0.3-1.5-0.6-2.2-0.9c-1.2-0.5-2.3-0.9-3.5-1.3l-2.5-0.9
			c-1-0.4-2.1-0.8-3.2-1.1c-0.2-0.1-0.5,0.1-0.6,0.3c-0.1,0.3,0,0.5,0.2,0.6c1.1,0.4,2.1,0.8,3.2,1.2c0.8,0.3,1.7,0.6,2.5,1
			c1.1,0.5,2.2,1,3.3,1.6c0.7,0.4,1.4,0.7,2,1.1c1.8,1,3.7,2,5.2,3.2c0.7,0.5,1.3,1.2,1.6,1.9c0.3,0.8,0.2,1-0.6,1.2
			C84.7,115.8,84.5,115.9,84.2,115.9z"/>
	</g>
	<g>
		<line class="st2" x1="63.2" y1="117.6" x2="62.4" y2="119.3"/>
		<line class="st2" x1="85.3" y1="116.5" x2="83.4" y2="116.3"/>
		<path class="st0" d="M76.5,122.1c1.1-0.1,2.3-0.2,3.5-0.3c0.6-0.1,1.2-0.3,1.8-0.5c0.3-0.1,0.6-0.3,0.8-0.5
			c0.2-0.2,0.5-0.4,0.7-0.6c0.3-0.3,0.6-0.7,0.8-1c0.4-0.7,0.7-1.5,0.7-2.3c0-0.1-0.2-0.3-0.5-0.3c-0.3,0-0.5,0-0.5,0.1
			c-0.1,0.7-0.4,1.3-0.8,1.7c-0.2,0.3-0.4,0.5-0.7,0.7c-0.2,0.1-0.4,0.2-0.6,0.4c-0.2,0.1-0.5,0.2-0.7,0.3c-0.4,0.2-0.9,0.3-1.4,0.5
			c-1,0.4-2.1,0.4-3.1,0.4c-0.2,0-0.4,0-0.5,0c-1,0.1-2.1-0.1-3.1-0.3c-1.1-0.2-2.2-0.5-3.3-0.6l-1.2-0.2c-0.7-0.1-1.3-0.2-2-0.4
			c-0.5-0.1-0.9-0.2-1.4-0.4c-0.6-0.2-1.1-0.4-1.7-0.6c-0.1,0-0.3,0.1-0.4,0.4s-0.1,0.5,0,0.5c0.6,0.3,1.2,0.5,1.8,0.7
			c0.5,0.2,0.9,0.3,1.4,0.5l2,0.7c0.4,0.1,0.8,0.3,1.2,0.4c1.1,0.3,2.3,0.5,3.5,0.6c1.1,0.1,2.2,0.1,3.3,0.2
			C76.1,122.1,76.3,122.1,76.5,122.1z"/>
	</g>
</g>
<g id="hånd_høyre_1_">
	<g>
		<path class="st4" d="M140.4,117.8c-0.9,0.6-1.6,1.2-1.9,2.1c-0.4,1.3,0.3,2.9,1.7,4.1c-0.5,0.9-0.8,1.8-1,2.2
			c-0.4,1.8,1.1,1.8,1.5,2.9c0,2.5,1.8,3.9,3.3,4.8c5.3,1.4,8.9,1.6,10.5,1.8c1.7,3.7,4.5,6.9,7.9,7.9c5.9,1.7,10-7.6,11-12.7
			c2.6-14.4-4.6-20.9-10-24.6c-9,1.5-22.3,4-23.6,8.5C139.5,115.6,140,116.8,140.4,117.8z"/>
	</g>
	<g>
		<line class="st2" x1="162.5" y1="114" x2="162.4" y2="112.1"/>
		<line class="st2" x1="139.5" y1="124.6" x2="140.9" y2="123.3"/>
		<path class="st0" d="M145,114.9c-1.3,0.5-2.6,1-4,1.6c-0.7,0.4-1.4,0.8-1.9,1.3c-0.3,0.3-0.5,0.6-0.8,1c-0.2,0.3-0.4,0.7-0.5,1.1
			c-0.1,0.2-0.2,0.7-0.1,1c0.1,0.3,0.2,0.6,0.3,0.8c0.4,0.9,1,1.6,1.6,2.4c0.1,0.1,0.4,0.1,0.6-0.1c0.2-0.2,0.3-0.4,0.2-0.5
			c-0.5-0.7-1-1.4-1.2-2.2c-0.1-0.2-0.1-0.4-0.1-0.5c0-0.2,0-0.1,0.1-0.3c0.1-0.2,0.3-0.5,0.4-0.7c0.2-0.2,0.4-0.4,0.7-0.6
			c0.4-0.4,0.9-0.7,1.5-1.1c1.1-0.8,2.4-1.2,3.7-1.6l0.7-0.2c1.2-0.4,2.5-0.7,3.8-0.9c1.4-0.2,2.8-0.4,4.2-0.7l1.6-0.3
			c0.8-0.2,1.6-0.3,2.5-0.4c0.6-0.1,1.2-0.1,1.8-0.2c0.7-0.1,1.5-0.1,2.3-0.2c0.2,0,0.3-0.3,0.3-0.5c0-0.3-0.1-0.5-0.3-0.5
			c-0.8,0-1.6,0-2.3,0.1c-0.6,0-1.2,0.1-1.8,0.1l-2.5,0.1c-0.5,0-1.1,0.1-1.6,0.1c-1.4,0.1-2.9,0.4-4.3,0.7c-1.3,0.3-2.6,0.6-3.9,1
			L145,114.9z"/>
	</g>
	<g>
		<line class="st2" x1="161.6" y1="121.7" x2="161.6" y2="119.8"/>
		<line class="st2" x1="160.6" y1="131.2" x2="160.7" y2="129.3"/>
		<path class="st0" d="M140.5,128.7c0.3,0.1,0.6,0.2,0.9,0.2c0.3,0.1,0.6,0.1,0.9,0.2c0.6,0.1,1.1,0.1,1.7,0.1
			c1.1,0.1,2.2,0.2,3.2,0.4c1.2,0.2,2.2,0.4,3.2,0.5l1.7,0.2l1.6,0.1c0.7,0.1,1.5,0.1,2.3,0.2c1.4,0.1,2.9,0.2,4.3,0.2
			c0.3,0,0.5-0.2,0.5-0.5c0-0.3-0.2-0.5-0.4-0.5c-1.4-0.1-2.8-0.2-4.2-0.4l-2.2-0.3c-0.5-0.1-1-0.2-1.5-0.3
			c-0.6-0.1-1.1-0.2-1.7-0.3c-1-0.2-2.1-0.3-3.3-0.4c-1.1-0.1-2.2-0.1-3.3-0.2c-0.6,0-1.1-0.1-1.6-0.1c-0.2,0-0.5-0.1-0.7-0.2
			c-0.2-0.1-0.5-0.1-0.7-0.2c-0.3-0.1-0.5-0.3-0.7-0.5c-0.3-0.2-0.6-0.6-0.6-0.8c0-0.1,0-0.1,0-0.2l0.1-0.3c0-0.2,0.1-0.4,0.2-0.5
			c0.4-0.7,1.2-1.2,2-1.6c1.9-0.8,4.1-1.1,6.3-1.4c0.8-0.1,1.6-0.2,2.5-0.3c1.3-0.1,2.6-0.2,3.9-0.3c0.9,0,1.9-0.1,2.9-0.1
			c1.2,0,2.4,0,3.6-0.1c0.2,0,0.4-0.3,0.4-0.5c0-0.3-0.2-0.5-0.5-0.5c-1.2,0-2.4,0-3.6,0c-1,0-1.9,0-2.9,0l-4,0
			c-0.8,0-1.7,0-2.5,0.1c-2.3,0.1-4.6,0.5-6.8,1.6c-1,0.5-2,1.2-2.6,2.4c-0.2,0.3-0.3,0.6-0.3,0.9l-0.1,0.5c0,0.2,0,0.4,0,0.6
			c0.2,0.8,0.6,1.3,1.1,1.7C139.7,128.3,140.1,128.5,140.5,128.7z"/>
	</g>
	<g>
		<line class="st2" x1="162.2" y1="136.5" x2="162" y2="134.6"/>
		<line class="st2" x1="141.7" y1="128.4" x2="139.8" y2="128.2"/>
		<path class="st0" d="M147.9,133.8c-1.1-0.2-2.2-0.5-3.2-1.1c-0.5-0.3-1-0.5-1.4-0.7c-0.2-0.1-0.5-0.2-0.7-0.4
			c-0.2-0.1-0.4-0.3-0.5-0.4c-0.2-0.2-0.4-0.5-0.6-0.8c-0.3-0.5-0.4-1.2-0.3-1.9c0-0.1-0.2-0.3-0.5-0.3c-0.3,0-0.5,0-0.5,0.2
			c-0.1,0.8-0.2,1.7,0.1,2.5c0.2,0.4,0.4,0.9,0.7,1.2c0.2,0.3,0.4,0.5,0.6,0.7c0.2,0.2,0.5,0.4,0.8,0.6c0.5,0.3,1.1,0.5,1.7,0.7
			c1.2,0.3,2.3,0.6,3.4,1l0.6,0.2c1.1,0.2,2.2,0.5,3.3,0.7c1.2,0.2,2.4,0.4,3.6,0.4c0.4,0,0.9,0,1.3,0l2.1-0.1l1.5-0.1
			c0.6,0,1.3-0.1,1.9-0.2c0.1,0,0.2-0.3,0.2-0.5c0-0.3-0.2-0.5-0.3-0.5c-0.6,0-1.3,0-1.9,0.1c-0.5,0-1,0-1.5,0
			c-0.7,0-1.4-0.1-2.1-0.2c-0.4-0.1-0.9-0.1-1.3-0.2c-1.2-0.2-2.3-0.2-3.5-0.3c-1.1-0.1-2.1-0.2-3.1-0.6L147.9,133.8z"/>
	</g>
	<g>
		<line class="st2" x1="159.1" y1="107.1" x2="158.5" y2="105.3"/>
		<line class="st2" x1="139.6" y1="118.3" x2="141.2" y2="117.3"/>
		<path class="st0" d="M145.1,109.8c-1,0.5-2,1.1-3.1,1.6c-0.6,0.3-1.1,0.7-1.5,1.1c-0.2,0.2-0.4,0.5-0.6,0.8
			c-0.2,0.3-0.3,0.5-0.4,0.8c-0.2,0.4-0.3,0.9-0.3,1.4c0,0.9,0.3,1.7,0.7,2.4c0.1,0.1,0.3,0.1,0.6,0c0.2-0.1,0.4-0.3,0.3-0.4
			c-0.3-0.6-0.4-1.2-0.3-1.8c0-0.3,0.2-0.6,0.3-0.8c0.1-0.2,0.3-0.4,0.4-0.5c0.2-0.2,0.4-0.3,0.6-0.5c0.3-0.3,0.7-0.6,1.2-1
			c0.8-0.7,1.8-1.2,2.8-1.5l0.5-0.2c0.9-0.5,2-0.8,3-1.1c1.1-0.3,2.2-0.6,3.3-1l1.2-0.5c0.6-0.2,1.3-0.5,1.9-0.7
			c0.5-0.2,0.9-0.3,1.4-0.4c0.6-0.2,1.2-0.4,1.8-0.6c0.1,0,0.1-0.3,0.1-0.5c-0.1-0.3-0.2-0.4-0.4-0.4c-0.6,0.1-1.2,0.3-1.8,0.5
			c-0.5,0.1-0.9,0.3-1.4,0.4c-0.7,0.2-1.3,0.3-2,0.4c-0.4,0.1-0.8,0.2-1.3,0.3c-1.1,0.2-2.2,0.6-3.3,1.1c-1,0.4-2,0.8-3,1.2
			L145.1,109.8z"/>
	</g>
	<g>
		<line class="st2" x1="155.1" y1="135.3" x2="153.3" y2="135.8"/>
		<line class="st2" x1="165.8" y1="145.3" x2="165.9" y2="143.4"/>
		<path class="st0" d="M160.9,144.3c0.3,0.1,0.6,0.1,0.9,0.2c0.4,0.1,0.9,0.1,1.3,0.2c0.8,0.1,1.6,0.1,2.5,0.1
			c0.1,0,0.3-0.2,0.3-0.5c0-0.3-0.1-0.5-0.2-0.5c-0.8-0.1-1.6-0.2-2.3-0.4c-0.4-0.1-0.8-0.2-1.2-0.3c-0.3-0.1-0.5-0.2-0.8-0.3
			l-0.2-0.1c-1.1-0.2-2.2-0.8-3-1.6c-0.1-0.1-0.3-0.3-0.4-0.4l-0.3-0.2c-0.5-0.5-1-1-1.3-1.6c-0.3-0.4-0.5-0.9-0.7-1.4
			c-0.2-0.6-0.5-1.2-0.7-1.9c-0.1-0.1-0.3-0.2-0.6-0.1c-0.3,0.1-0.4,0.2-0.4,0.4c0.2,0.7,0.4,1.4,0.7,2c0.2,0.5,0.5,1,0.7,1.5
			c0.4,0.7,0.8,1.4,1.3,2l0.3,0.3c0.2,0.2,0.3,0.3,0.5,0.5c1,0.8,2.2,1.4,3.4,2L160.9,144.3z"/>
	</g>
</g>
</svg>
