<?xml version="1.0" encoding="utf-8"?>
<!-- Generator: Adobe Illustrator 28.0.0, SVG Export Plug-In . SVG Version: 6.00 Build 0)  -->
<svg version="1.1" id="Layer_1" xmlns="http://www.w3.org/2000/svg" xmlns:xlink="http://www.w3.org/1999/xlink" x="0px" y="0px"
	 viewBox="0 0 500 500" style="enable-background:new 0 0 500 500;" xml:space="preserve">
<style type="text/css">
	.st0{fill:#FFFFFF;}
	.st1{fill:#005AA4;}
	.st2{fill:#F8E9DD;}
	.st3{fill:none;stroke:#F8E9DD;stroke-width:1.5;stroke-linecap:round;stroke-miterlimit:10;}
	.st4{fill:none;}
</style>
<g>
	<path class="st0" d="M263,414.2c-42.5,5.8-92.4,16.9-122.1,48.7c18.8-32.3,27-59,25.4-80.4c-2.9-39.9-39.7-61.6-105.2-67.5
		c31-21,43.9-46.5,42.2-71.1c-2.1-29.5-25.4-57.7-63.9-75.3c14.7,0.4,29.2,3.4,43.8,2.4c43.9-3.2,73.7-43,70.2-91.2
		c-0.5-7.4-1.9-14.7-4-21.9c28.5,28.5,57.7,40.3,85,38.3c35.2-2.5,67.4-28,91.2-70.4c-9.6,25.8-13.3,46-12.1,61.5
		c2.7,37.8,33.5,48.2,74.4,45.3c18.3-1.3,38.6-5.3,59.4-10.7c-39.6,21-59.3,48.4-57.6,72.6c1.7,24.3,25,45.3,71.4,53.4
		c-18.4,4.6-86.3,1.1-82.2,57.5c2.4,33,32.7,70,53.4,89.3c-22-3.9-42.9-7.2-59.2-6.1c-20.4,1.5-33.3,10-31.7,33.3
		c0.6,9,3.5,20.2,8.9,34.1c-18.3-16.5-54.3-44.3-84.6-42.1C264.9,414,264,414.1,263,414.2z"/>
	<path class="st1" d="M274.1,474.6h-29.6c-1.8,0-3.3-1.5-3.3-3.3v-22.7h36.2v22.7C277.4,473.1,275.9,474.6,274.1,474.6z"/>
	<path class="st1" d="M288.1,461.6h-57.7c-3.6,0-6.4-2.9-6.4-6.4v-60.9h70.6v60.9C294.6,458.7,291.7,461.6,288.1,461.6z"/>
	<path class="st2" d="M308.4,382.6L308.4,382.6c5.5-28.3,17-55,32.7-79.2c10.9-16.8,17.3-37.1,17.3-59.1
		c0-57.8-44.4-104.7-99.1-104.7s-99.1,46.9-99.1,104.7c0,21.9,6.4,42.2,17.3,59.1c15.7,24.2,27.2,50.9,32.7,79.2l0,0
		c2,10.3,11,17.7,21.5,17.7c17.1,0,37.7,0,55.3,0C297.4,400.3,306.4,392.9,308.4,382.6z"/>
	<g>
		<line class="st3" x1="224" y1="421.4" x2="294.6" y2="417.5"/>
		<line class="st3" x1="224" y1="439.1" x2="294.6" y2="435.2"/>
	</g>
	<g>
		<line class="st4" x1="239.7" y1="384.2" x2="249.7" y2="381.6"/>
		<line class="st4" x1="268.9" y1="380.3" x2="279" y2="382.6"/>
		<path class="st0" d="M282.1,216.3c3,0,5.5,3.9,6.9,8.4c1.5,4.6,2.2,9.7,2.5,14.9c0.9,15-0.5,30.5-2.2,45.8
			c-3.5,29-9.3,57.7-15.9,86.3c-1.2,5.1-0.9,9.4,0.6,9.8c1.4,0.3,3.6-3.4,4.8-8.5c7.1-28.7,13.5-57.7,17.5-87.2
			c2-15.3,3.6-30.7,3-46.6c-0.3-5.6-0.9-11.2-2.5-16.9c-0.8-2.8-2-5.8-4-8.5c-0.9-1.4-2.4-2.7-3.8-3.8c-1.7-0.9-3.4-2-5.3-2.1
			c-0.9-0.1-1.8-0.3-2.7-0.3l-2.6,0.3c-1.8,0.1-3.2,0.9-4.8,1.6c-5.4,3-8.5,7.6-11.2,11.9c-2.7,4.4-4.4,9-6.2,13.7
			c-3.2,9.3-5.3,18.9-6.6,28.5c-1.3,9.6-1.8,19.4-1.1,29.2c0.4,4.9,1.1,9.8,2.7,14.8c0.2,0.6,0.4,1.2,0.6,1.8
			c0.2,0.6,0.4,1.2,0.9,2.2c0.8,1.9,1.9,3.6,2.9,5.2c2.3,3.1,4.7,4.7,7.6,7.1c1.6-2.6,2.9-4.4,4.1-7.1c0.6-1.4,1.1-2.8,1.5-4.4
			c0.4-1.4,0.9-3.6,1-4.2c0.7-3.9,1.2-7.6,1.5-11.4c0.6-8,0.5-15.9,0-23.8c-0.5-5.1-1.1-10.2-2-15.2c-1.2-6.9-2.8-13.9-5.3-20.6
			c-2.6-6.7-5.6-13.6-12.1-18.9c-3-2.8-7.6-4.1-11.9-4c-4.3,0-8.6,2.5-11.3,5.6c-5.5,6.4-6.7,13.9-7.8,20.9
			c-1.3,10.2-1.1,20.3-0.6,30.3c0.6,10,1.7,19.9,3.1,29.8c3.6,24.6,9.3,49.7,16.3,74c1.4,5,3.7,8.5,5.1,8.1c1.4-0.4,1.5-4.6,0.2-9.6
			c-6.4-24.3-12-49.2-15.5-73.6c-1.4-9.7-2.4-19.5-3-29.2c-0.5-9.8-0.6-19.6,0.8-29c1-6.4,2.7-13.2,6.5-17.2
			c3.5-4.1,9.7-4.1,13.8-0.4c4.4,3.6,7.2,9.8,9.3,15.9c2.1,6.2,3.4,12.8,4.4,19.5c0.7,4.7,1.1,9.4,1.4,14.1
			c0.6,7.6,0.8,15.2,0.3,22.8c-0.2,3.5-0.6,7.1-1.2,10.5l-0.2,1.2l-0.1,0.6c-0.1,0.4-0.3,0.8-0.5,1.2c-0.4-0.2-0.8-0.7-1.1-1.1
			c-0.1-0.2-0.3-0.5-0.4-0.7l-0.1-0.3l-0.3-0.7c-0.2-0.5-0.4-1-0.5-1.5c-1.3-4.1-2-8.5-2.5-13c-0.8-9-0.3-18.4,1-27.6
			c1.3-9.2,3.4-18.3,6.6-26.9c1.7-4.2,3.4-8.5,5.8-12.1c2.3-3.6,5.2-6.9,8.2-8.3c0.7-0.3,1.5-0.8,2.2-0.8c0.4-0.1,0.7-0.1,1.1-0.2
			L282.1,216.3z"/>
	</g>
</g>
</svg>
