<?xml version="1.0" encoding="utf-8"?>
<!-- Generator: Adobe Illustrator 28.3.0, SVG Export Plug-In . SVG Version: 6.00 Build 0)  -->
<svg version="1.1" id="Layer_1" xmlns="http://www.w3.org/2000/svg" xmlns:xlink="http://www.w3.org/1999/xlink" x="0px" y="0px"
	 viewBox="0 0 139 291" style="enable-background:new 0 0 139 291;" xml:space="preserve">
<style type="text/css">
	.st0{fill:#FAE4E0;}
	.st1{fill:none;}
	.st2{fill:#EE8D9C;}
	.st3{fill:#005AA4;}
	.st4{fill:#002776;}
	.st5{fill:#F8E9DD;}
</style>
<g>
	<g>
		<path class="st0" d="M110,41.51c0.07-0.69,0.08-1.37,0.08-2.06c0-0.56-0.01-1.13-0.01-1.69c0-9.42,2.73-17.24,9.88-21.55
			c2.36-1.42,5.42-0.67,6.81,1.71c0.01,0.02,0.03,0.05,0.04,0.07c1,1.71,0.84,3.86-0.4,5.4c-1.54,1.92-3.14,3.79-4.72,5.67
			c2.77-1.14,6.39-2.76,7.94-2.76c0.24,0,0.46,0.03,0.66,0.1c0.01,0.07,0.01,0.14,0.01,0.2c0,2.02-4.23,5.01-7.72,6.83
			c0,0.02,0,0.04,0,0.06c0,5.15-2.62,9.8-7.72,11.61"/>
	</g>
	<g>
		<g>
			<line class="st1" x1="117.08" y1="27.96" x2="118.6" y2="29.09"/>
		</g>
		<g>
			<line class="st1" x1="127.63" y1="19.08" x2="126.38" y2="17.66"/>
		</g>
		<g>
			<path class="st2" d="M124.57,21.76c0.15-0.2,0.31-0.4,0.47-0.58l0.72-0.8c0.46-0.51,0.93-1,1.41-1.48c0.09-0.09,0-0.33-0.18-0.53
				c-0.18-0.2-0.4-0.31-0.5-0.23l-1.63,1.33l-0.83,0.71c-0.19,0.17-0.39,0.33-0.59,0.49l-0.14,0.11c-0.63,0.88-1.41,1.65-2.15,2.41
				l-0.38,0.4l-0.2,0.3c-0.38,0.53-0.75,1.07-1.13,1.6c-0.27,0.38-0.56,0.75-0.85,1.12c-0.36,0.46-0.72,0.94-1.03,1.45
				c-0.06,0.1,0.06,0.32,0.28,0.48c0.21,0.16,0.45,0.22,0.53,0.13c0.4-0.44,0.76-0.91,1.12-1.36c0.28-0.36,0.57-0.72,0.88-1.06
				c0.42-0.48,0.88-0.94,1.34-1.39l0.25-0.23l0.34-0.43c0.64-0.81,1.32-1.64,2.17-2.28L124.57,21.76z"/>
		</g>
	</g>
	<g>
		<g>
			<line class="st1" x1="114.2" y1="25.82" x2="115.77" y2="26.88"/>
		</g>
		<g>
			<line class="st1" x1="124.63" y1="16.49" x2="123.47" y2="15"/>
		</g>
		<g>
			<path class="st2" d="M121.5,19.13c0.15-0.2,0.31-0.4,0.47-0.6c0.24-0.27,0.48-0.55,0.73-0.81c0.47-0.51,0.96-0.99,1.48-1.45
				c0.09-0.08,0.02-0.33-0.14-0.54s-0.38-0.33-0.49-0.25c-0.59,0.42-1.17,0.86-1.73,1.32c-0.3,0.23-0.57,0.49-0.86,0.73l-0.6,0.52
				l-0.15,0.12c-0.64,0.92-1.4,1.73-2.12,2.55l-0.37,0.43l-0.19,0.32c-0.36,0.57-0.71,1.14-1.08,1.69c-0.25,0.41-0.53,0.8-0.8,1.19
				c-0.34,0.49-0.68,1-0.97,1.53c-0.06,0.11,0.07,0.32,0.3,0.47c0.22,0.15,0.46,0.19,0.54,0.1c0.38-0.47,0.73-0.97,1.07-1.46
				c0.27-0.39,0.54-0.77,0.84-1.14c0.4-0.52,0.84-1.01,1.28-1.49l0.25-0.24l0.32-0.45c0.61-0.86,1.28-1.73,2.12-2.39L121.5,19.13z"
				/>
		</g>
	</g>
	<g>
		<g>
			<line class="st1" x1="109.18" y1="35.5" x2="111.07" y2="35.59"/>
		</g>
		<g>
			<line class="st1" x1="114.55" y1="44.21" x2="115.18" y2="46"/>
		</g>
		<g>
			<path class="st2" d="M122.14,29.7c1-0.42,2.01-0.85,3.02-1.28l0.98-0.4l0.84-0.32c0.56-0.21,1.12-0.4,1.68-0.53l0.4-0.09
				c0.05-0.01,0.08-0.01,0.12-0.02c0.08-0.01,0.16,0,0.22,0.03c0,0.08-0.02,0.15-0.05,0.21c-0.01,0.03-0.04,0.07-0.06,0.1
				l-0.05,0.07l-0.11,0.15c-0.29,0.41-0.68,0.79-1.1,1.15c-1.39,1.22-2.86,2.17-4.25,3.01l-0.78,0.47l-0.47,0.27l-0.76,0.42
				c0,0.29,0.01,0.59,0.01,0.87l0,0.51c-0.04,0.81-0.1,1.62-0.29,2.41c-0.26,1.14-0.67,2.24-1.26,3.26
				c-1.09,1.92-2.82,3.47-4.87,4.37c-0.36,0.15-0.58,0.49-0.49,0.75c0.09,0.26,0.48,0.34,0.89,0.18c2.27-0.91,4.28-2.57,5.58-4.68
				c0.68-1.09,1.19-2.29,1.52-3.53c0.25-0.87,0.38-1.76,0.48-2.66l0.03-0.42l0.02-0.06l0.07-0.02c-0.01,0.01,0.07-0.03,0.14-0.07
				l0.21-0.11c0.28-0.15,0.57-0.3,0.85-0.46c1.48-0.86,3-1.86,4.5-3.34c0.43-0.44,0.85-0.91,1.21-1.48l0.14-0.21
				c0.05-0.08,0.1-0.22,0.15-0.32c0.1-0.23,0.23-0.44,0.25-0.68c0.14-0.48,0.09-0.89,0.06-1.35c-0.45-0.16-0.84-0.32-1.38-0.29
				c-0.25,0-0.52,0.05-0.78,0.08l-0.5,0.11c-0.63,0.16-1.23,0.35-1.82,0.56c-0.53,0.2-1.06,0.39-1.59,0.59l-0.34,0.11l-0.25,0.08
				l0.01-0.01c0.03-0.07,0.13-0.19,0.24-0.33l1.05-1.26l0.84-0.99c0.28-0.34,0.55-0.62,0.86-1.05c0.57-0.82,0.9-1.8,0.97-2.79
				c0.17-2.15-1.04-4.35-2.99-5.39c-0.96-0.53-2.09-0.76-3.18-0.68c-0.55,0.03-1.09,0.18-1.6,0.36c-0.51,0.19-1,0.49-1.38,0.76
				c-1.22,0.78-2.31,1.74-3.3,2.78c-1.55,1.66-2.82,3.58-3.73,5.64c-0.67,1.47-1.18,3.01-1.57,4.57c-0.48,1.95-0.77,4-0.85,6.03
				c-0.02,0.41,0.19,0.75,0.46,0.76s0.51-0.29,0.55-0.69c0.19-1.98,0.47-3.96,0.94-5.84c0.38-1.49,0.86-2.96,1.55-4.34
				c0.92-1.93,2.2-3.66,3.72-5.11c0.97-0.9,2-1.72,3.14-2.38c1.38-0.95,3.05-1.02,4.42-0.3c1.35,0.7,2.27,2.23,2.19,3.74
				c-0.03,0.7-0.23,1.4-0.63,2.01c-0.18,0.28-0.49,0.63-0.75,0.96l-0.82,1l-2.26,2.72c-1.02,1.21-2.04,2.42-3.06,3.62L119.06,31
				L122.14,29.7z"/>
		</g>
	</g>
	<g>
		<path class="st3" d="M26.79,57.21C16.28,60.44,9.13,83.04,8,102.42c0,0,12.9,20.89,28.05,23.44
			C46.35,127.6,33.91,69.62,26.79,57.21z"/>
	</g>
	<g>
		<path class="st4" d="M33.03,127.46c-3.83,26.28-1.48,56.01-3.91,82.44c-1.64,17.8-6.96,32.7-6.96,50.64c0,1.58,0,6.48,4.38,9.2
			c-2.28,3.59-3.3,7.98-3.3,12.27c0,0.1,0,0.21,0,0.31h24.33l8.05-147.74L33.03,127.46z"/>
	</g>
	<g>
		<path class="st4" d="M44.7,139.88c-1.09,7.71-1.45,15.36-1.45,22.99c0,14.84,1.36,32.58,1.36,47.42c0,28.25-5.88,32.33-5.88,47.08
			c0,4.43,0.79,8.74,2.98,12.87c0,0-1.76,3.24-2.59,12.09h44.74c-1.55-5.6-4.74-8.34-9.33-8.34c-1.14,0-2.38,0.17-3.69,0.51
			c-3.68-1.77-7.24-3.92-10.64-6.23c3.09-5.87,2.39-15.48,2.55-33.64c0.26-29.06,11.37-48.44,11.34-108.91
			c-11.99-15.66-37.69-16.83-43.48-7.35c-2.68,8.54-1.74,21.15,6.73,27.93c8.47,6.78,22.4,3.95,22.4,3.95"/>
	</g>
	<g>
		<g>
			<path class="st4" d="M32.59,45.72c0,0-7.56-3.71-7.93-12.08c-5.93-5.27-5.55-20.05,6.21-21.65c2.35-4.24,13.74-6.12,9.88,4.99
				C43.95,31.38,38.74,46.79,32.59,45.72z"/>
		</g>
		<g>
			<path class="st2" d="M43.81,17.78c1.67,0.54,12.55,3.98,12.55,6.49c0,1.83-3.99,2.35-5.92,2.35c-0.38,0-0.76-0.02-1.14-0.06"/>
		</g>
		<g>
			<g>
				<line class="st1" x1="46.99" y1="20.59" x2="48.69" y2="19.76"/>
			</g>
			<g>
				<line class="st1" x1="48.69" y1="19.76" x2="46.99" y2="20.59"/>
			</g>
			<g>
				<path class="st3" d="M53.21,19.5c0.16,0.57,0.29,1.17,0.3,1.76c0,0.57-0.13,1.15-0.43,1.49c-0.3,0.38-0.56,0.47-0.91,0.5
					c-0.2,0.02-0.44,0-0.69-0.08c-0.23-0.07-0.47-0.17-0.69-0.31c-0.33-0.21-0.64-0.47-0.93-0.76c-0.55-0.55-1.03-1.21-1.44-1.92
					c-0.07-0.12-0.34-0.12-0.58-0.01c-0.24,0.12-0.39,0.33-0.32,0.47c0.37,0.8,0.82,1.59,1.4,2.31c0.3,0.37,0.64,0.73,1.04,1.05
					c0.28,0.22,0.58,0.43,0.92,0.61c0.37,0.19,0.8,0.34,1.29,0.36c0.86,0.06,1.91-0.53,2.31-1.42c0.67-1.61,0.43-3.07,0.2-4.42
					c-0.06-0.23-0.1-0.47-0.17-0.7c-0.48-1.24-1-2.49-1.79-3.59c-0.42-0.59-0.93-1.18-1.62-1.62c-0.67-0.45-1.54-0.75-2.44-0.67
					c-0.68,0.05-1.39,0.39-1.84,0.92c-0.72,0.86-0.79,1.88-0.75,2.75c0.05,0.64,0.16,1.24,0.32,1.82c0.2,0.73,0.49,1.45,0.86,2.1
					c0.08,0.13,0.33,0.14,0.57,0.02c0.24-0.12,0.39-0.32,0.34-0.45c-0.25-0.66-0.51-1.32-0.69-1.98c-0.14-0.52-0.23-1.05-0.22-1.56
					c0-0.7,0.23-1.39,0.63-1.69c0.24-0.2,0.52-0.28,0.85-0.26c0.91,0.07,1.91,0.69,2.67,1.62c0.73,0.83,1.31,1.92,1.59,3.05
					C53.09,19.1,53.14,19.3,53.21,19.5z"/>
			</g>
		</g>
		<g>
			<path class="st5" d="M36.39,66.58c0.13-9.32-0.62-14.32-3.8-20.86c2.53-0.15,3.36-4.8,3.37-8.62c-2.8-1.81-4.77-6.49-4.77-9.31
				c0-1.34,0.44-2.26,1.45-2.26c1.24,0,3.37,1.32,4.67,3.94c0.63-1.78,0.96-3.85,0.96-5.96c0-4.05-1.21-8.25-3.79-10.85
				c13.79,1.5,22.02,16.64,21.65,25.72c-0.22,5.33-3.12,9.34-7.68,10.23c0,0,0.21,9.39-1.11,13.63"/>
		</g>
		<g>
			<g>
				<line class="st1" x1="35.44" y1="66.57" x2="37.33" y2="66.59"/>
			</g>
			<g>
				<line class="st1" x1="32.58" y1="43.63" x2="30.94" y2="44.58"/>
			</g>
			<g>
				<path class="st4" d="M35.32,50.28l-0.49-1.22c-0.23-0.59-0.49-1.16-0.75-1.73c-0.52-1.08-1.08-2.13-1.69-3.14
					c-0.11-0.18-0.39-0.21-0.63-0.08c-0.23,0.14-0.35,0.39-0.26,0.57c0.54,1.02,1,2.09,1.41,3.16c0.21,0.56,0.41,1.12,0.58,1.69
					c0.12,0.4,0.24,0.8,0.33,1.21l0.06,0.29c0.66,1.63,0.99,3.42,1.19,5.15l0.1,0.9l0.11,0.58c0.18,1.06,0.33,2.14,0.41,3.22
					c0.08,0.78,0.09,1.56,0.12,2.34c0.02,0.98,0.03,1.99,0.07,2.98c0.01,0.2,0.24,0.37,0.5,0.37c0.27,0,0.49-0.15,0.5-0.36
					c0.07-1.01,0.06-2.03,0.05-3.02c-0.02-0.79-0.04-1.58-0.06-2.38c-0.03-1.11-0.06-2.22-0.13-3.33l-0.02-0.59l-0.16-0.93
					c-0.32-1.78-0.76-3.59-1.14-5.4L35.32,50.28z"/>
			</g>
		</g>
		<g>
			<g>
				<line class="st1" x1="51.24" y1="21.08" x2="49.74" y2="22.24"/>
			</g>
			<g>
				<line class="st1" x1="47.49" y1="52.13" x2="49.38" y2="52.17"/>
			</g>
			<g>
				<path class="st2" d="M53.56,44.31c-0.3,0.52-0.67,1-1.08,1.43c-0.6,0.62-1.3,1.15-2.07,1.55l-0.56,0.27l-0.58,0.22l-0.15,0.06
					l-0.24,0.06l-0.48,0.13l-0.48,0.12c-0.09,0.1-0.02,0.34-0.04,0.5l0.05,2.92c0.01,0.31,0.24,0.57,0.51,0.57s0.49-0.24,0.5-0.56
					l0.03-1.35c0.01-0.42,0.02-1.02,0.03-1.07c0.01-0.04-0.02-0.1,0.03-0.11l0.17-0.03c0.14-0.03,0.15-0.01,0.43-0.11
					c0.46-0.13,0.91-0.3,1.34-0.5c0.9-0.42,1.74-0.99,2.47-1.67c0.51-0.48,0.99-1,1.39-1.58c0.1-0.13,0.21-0.26,0.29-0.4
					c1.38-2.61,1.86-5.6,1.71-8.39c-0.03-0.48-0.06-0.97-0.12-1.44c-0.05-0.31-0.11-0.62-0.18-0.92c-0.34-1.68-0.83-3.31-1.42-4.9
					c-0.44-1.14-0.9-2.27-1.45-3.36c-0.68-1.36-1.49-2.72-2.46-3.95c-0.2-0.25-0.52-0.31-0.73-0.15s-0.25,0.49-0.08,0.74
					c0.84,1.24,1.61,2.55,2.27,3.86c0.52,1.05,0.97,2.14,1.34,3.25c0.52,1.55,0.88,3.15,1.09,4.76c0.04,0.28,0.06,0.57,0.08,0.85
					c0.08,0.45,0.12,0.9,0.16,1.36c0.25,2.56-0.13,5.35-1.59,7.47C53.7,44.08,53.62,44.19,53.56,44.31z"/>
			</g>
		</g>
		<g>
			<g>
				<g>
					<line class="st1" x1="45.85" y1="28.17" x2="44.22" y2="29.13"/>
				</g>
				<g>
					<line class="st1" x1="55.77" y1="33.54" x2="55.08" y2="31.78"/>
				</g>
				<g>
					<path class="st2" d="M51.76,33.97l0.74-0.04c0.35-0.03,0.7-0.07,1.04-0.14c0.65-0.13,1.28-0.33,1.87-0.59
						c0.11-0.05,0.11-0.3,0.01-0.55c-0.1-0.25-0.26-0.43-0.35-0.4c-0.55,0.16-1.13,0.26-1.69,0.28c-0.29,0.01-0.59,0.01-0.88-0.02
						c-0.2-0.03-0.41-0.05-0.6-0.1l-0.14-0.04c-0.86,0.08-1.72-0.24-2.45-0.67c-0.13-0.07-0.25-0.15-0.37-0.23l-0.27-0.1
						c-0.47-0.23-0.94-0.5-1.35-0.84c-0.3-0.24-0.57-0.52-0.83-0.82c-0.31-0.37-0.62-0.77-0.92-1.17c-0.06-0.08-0.3-0.03-0.53,0.1
						c-0.23,0.14-0.37,0.32-0.32,0.42c0.24,0.5,0.58,0.95,0.92,1.37c0.28,0.33,0.58,0.64,0.88,0.96c0.44,0.43,0.89,0.84,1.39,1.23
						l0.26,0.2c0.16,0.08,0.32,0.16,0.48,0.23c0.93,0.4,1.94,0.65,2.95,0.91L51.76,33.97z"/>
				</g>
			</g>
			<g>
				<g>
					<line class="st1" x1="41.9" y1="22.09" x2="43.79" y2="21.89"/>
				</g>
				<g>
					<line class="st1" x1="45.61" y1="19.06" x2="44.53" y2="17.51"/>
				</g>
				<g>
					<path class="st4" d="M44.53,19.74c0.04-0.07,0.08-0.15,0.12-0.22l0.21-0.28c0.14-0.18,0.28-0.35,0.44-0.5
						c0.03-0.03-0.08-0.24-0.24-0.46s-0.31-0.38-0.35-0.36l-0.67,0.36l-0.34,0.2c-0.08,0.05-0.17,0.09-0.25,0.13l-0.06,0.03
						c-0.17,0.38-0.47,0.63-0.77,0.92c-0.05,0.05-0.1,0.1-0.15,0.16l-0.04,0.15c-0.09,0.27-0.18,0.53-0.22,0.88
						c-0.02,0.29,0.02,0.42,0.03,0.59c0.01,0.21,0.03,0.42,0.1,0.63c0.01,0.04,0.24,0.05,0.51,0.02c0.27-0.03,0.48-0.08,0.49-0.12
						c0.04-0.19,0.03-0.38,0.02-0.57c-0.01-0.14-0.02-0.33,0.02-0.34c0.04-0.08,0.16-0.2,0.3-0.31l0.09-0.05
						c0.02-0.04,0.04-0.09,0.07-0.14c0.13-0.27,0.33-0.56,0.68-0.67L44.53,19.74z"/>
				</g>
			</g>
			<g>
				<g>
					<path class="st4" d="M45.28,22.41c-0.32-0.55-1.15-1.69-1.15-2.52c0-0.34,0.16-0.5,0.38-0.5c0.52,0,1.39,0.88,1.39,2.38
						c0,0.04,0,0.08,0,0.12c0,0,0,0,0,0c-0.06,0.31-0.16,0.54-0.45,0.54C45.4,22.44,45.34,22.43,45.28,22.41z"/>
				</g>
				<g>
					<g>
						<line class="st1" x1="44.46" y1="22.89" x2="46.1" y2="21.94"/>
					</g>
					<g>
						<line class="st1" x1="45.5" y1="21.49" x2="45.06" y2="23.33"/>
					</g>
					<g>
						<path class="st4" d="M44.97,20.86c0.06,0.08,0.12,0.18,0.16,0.28c0.05,0.15,0.1,0.31,0.13,0.47c0.03,0.2,0.06,0.19,0.04,0.33
							c0.02,0.03-0.05,0,0.05,0.06c0.08,0.05,0.12,0.1,0.13,0.11c0.01,0.01-0.01-0.01-0.02-0.07c-0.01-0.03-0.01-0.07-0.01-0.11
							c0.01,0-0.02,0-0.02,0c-0.01,0-0.09,0.23-0.16,0.49c-0.07,0.26-0.03,0.49,0.09,0.51c0.14,0.03,0.4,0.02,0.62-0.13
							c0.22-0.15,0.32-0.34,0.38-0.47c0.06-0.13,0.1-0.25,0.14-0.41l0.03-0.38c0.01-0.23,0-0.47-0.02-0.71
							c-0.02-0.17-0.04-0.34-0.08-0.52l-0.02-0.13c-0.22-0.32-0.43-0.62-0.71-0.92c-0.15-0.15-0.3-0.29-0.51-0.42
							c-0.21-0.12-0.48-0.26-0.92-0.19c-0.31,0.04-0.64,0.3-0.76,0.55c-0.07,0.17-0.09,0.32-0.1,0.45c0,0.65,0.23,1,0.4,1.38
							l0.41,0.73c0.17,0.29,0.36,0.58,0.57,0.81c0.04,0.05,0.26-0.03,0.49-0.16s0.39-0.29,0.37-0.36c-0.13-0.32-0.3-0.59-0.45-0.85
							c-0.12-0.21-0.23-0.42-0.29-0.64c-0.1-0.28-0.11-0.63-0.03-0.69c-0.09-0.01-0.24-0.05-0.29-0.09
							c-0.12-0.06-0.09-0.1-0.07-0.02c0.01,0.06,0.02,0.18-0.02,0.29c-0.02,0.09-0.02,0.05-0.01,0.06c0.01,0,0.02,0,0.03,0
							c0.05,0.01,0.12,0.06,0.18,0.13c0.13,0.13,0.23,0.34,0.23,0.56C44.94,20.82,44.95,20.84,44.97,20.86z"/>
					</g>
				</g>
			</g>
		</g>
		<g>
			<g>
				<line class="st1" x1="35.64" y1="26.29" x2="36.45" y2="28"/>
			</g>
			<g>
				<line class="st1" x1="54.17" y1="19.5" x2="53.35" y2="17.79"/>
			</g>
			<g>
				<path class="st3" d="M46.63,22.9c0.78-0.43,1.58-0.88,2.46-1.13c0.47-0.16,0.87-0.34,1.24-0.54c0.2-0.12,0.4-0.25,0.6-0.37
					c0.18-0.12,0.36-0.24,0.55-0.35l0.8-0.47c0.51-0.3,1.01-0.59,1.53-0.87c0.09-0.05,0.06-0.3-0.05-0.54s-0.29-0.41-0.38-0.37
					c-0.55,0.22-1.1,0.43-1.65,0.65l-0.86,0.33c-0.2,0.08-0.41,0.14-0.61,0.21c-0.22,0.07-0.45,0.14-0.67,0.23
					c-0.38,0.17-0.78,0.37-1.2,0.64c-0.74,0.53-1.59,0.88-2.42,1.22l-0.43,0.18c-0.74,0.44-1.56,0.76-2.34,1.08
					c-0.85,0.34-1.72,0.69-2.52,1.19c-0.3,0.18-0.6,0.36-0.89,0.54c-0.47,0.29-0.94,0.58-1.42,0.84c-0.34,0.2-0.7,0.37-1.05,0.54
					c-0.44,0.21-0.9,0.44-1.33,0.7c-0.09,0.05-0.06,0.29,0.05,0.54c0.12,0.24,0.28,0.41,0.38,0.37c0.48-0.17,0.94-0.39,1.38-0.6
					c0.36-0.17,0.71-0.34,1.08-0.48c0.51-0.21,1.03-0.4,1.55-0.58c0.33-0.12,0.65-0.23,0.97-0.35c0.88-0.31,1.71-0.78,2.5-1.22
					c0.74-0.42,1.5-0.84,2.31-1.15L46.63,22.9z"/>
			</g>
		</g>
		<g>
			<g>
				<line class="st1" x1="39.8" y1="18.17" x2="41.68" y2="17.99"/>
			</g>
			<g>
				<line class="st1" x1="43.9" y1="14.97" x2="43.52" y2="13.11"/>
			</g>
			<g>
				<path class="st4" d="M42.7,15.34c0.04-0.07,0.09-0.15,0.15-0.2c0.08-0.08,0.17-0.16,0.27-0.23c0.18-0.14,0.39-0.26,0.62-0.35
					c0.04-0.02,0.02-0.25-0.03-0.52c-0.05-0.27-0.14-0.47-0.2-0.47c-0.31,0.04-0.63,0.09-0.94,0.19c-0.17,0.05-0.32,0.11-0.48,0.19
					c-0.11,0.05-0.23,0.1-0.34,0.15l-0.08,0.03c-0.3,0.45-0.66,0.79-0.97,1.19c-0.05,0.07-0.11,0.14-0.15,0.21L40.5,15.7
					c-0.08,0.3-0.14,0.6-0.19,0.89c-0.03,0.21-0.07,0.42-0.1,0.63c-0.03,0.26-0.05,0.54,0.03,0.82c0.01,0.06,0.24,0.08,0.51,0.05
					c0.27-0.03,0.48-0.08,0.49-0.12c0.04-0.2,0.05-0.4,0.08-0.6c0.02-0.16,0.06-0.31,0.13-0.46c0.08-0.21,0.22-0.39,0.37-0.55
					l0.09-0.08c0.02-0.06,0.04-0.11,0.07-0.17c0.13-0.31,0.34-0.64,0.7-0.72L42.7,15.34z"/>
			</g>
		</g>
	</g>
	<g>
		<path class="st3" d="M74.1,125.71c1.84-2.27,2.45-4.85,2.45-7.53c0-6.88-5.99-23.48-6.66-36.53
			c26.16-10.94,30.58-14.87,40.88-27.39c6.09-1.04,6.62-5.42,6.62-7.42c0-5.34-2.72-10.69-8.43-9.19
			c-4.57,1.2-16.13,8.75-30.11,14.08c-7.15,2.73-14.9,3.7-22.49,2.68c-3.53-0.47-7.02-0.75-10.47-0.75
			c-6.49,0-12.84,0.99-19.11,3.56c-4.84,1.98-7.68,7.04-6.79,12.18c2.39,13.75,5.7,12.47,7.27,21.37
			c1.81,10.24-0.45,17.64,3.36,27.59C45.27,115.41,55.88,127.35,74.1,125.71z"/>
	</g>
	<g>
		<g>
			<line class="st1" x1="20.93" y1="69.24" x2="19.07" y2="69.56"/>
		</g>
		<g>
			<line class="st1" x1="30.15" y1="119.73" x2="31.9" y2="119.01"/>
		</g>
		<g>
			<path class="st4" d="M27.3,97.98c0.19,2.31,0.31,4.72,0.26,7.11c0.01,1.3,0.07,2.48,0.18,3.59c0.07,0.62,0.18,1.23,0.27,1.85
				l0.32,1.69c0.16,0.81,0.33,1.62,0.55,2.42c0.4,1.52,0.9,3.01,1.5,4.45c0.1,0.26,0.4,0.38,0.65,0.27c0.25-0.1,0.38-0.39,0.29-0.64
				c-0.53-1.43-0.92-2.9-1.21-4.39c-0.16-0.77-0.27-1.55-0.38-2.34c-0.06-0.55-0.12-1.1-0.16-1.66c-0.04-0.6-0.07-1.21-0.11-1.81
				c-0.09-1.08-0.18-2.23-0.28-3.52c-0.27-2.34-0.27-4.76-0.36-7.11l-0.05-1.22c-0.24-2.27-0.45-4.58-0.84-6.83
				c-0.19-1.21-0.52-2.45-0.93-3.65c-0.42-1.21-1.01-2.36-1.63-3.42c-0.46-0.8-0.91-1.57-1.34-2.35c-0.68-1.23-1.24-2.53-1.7-3.87
				c-0.35-0.96-0.61-1.95-0.87-2.94c-0.15-0.62-0.29-1.26-0.44-1.9c-0.13-0.64-0.27-1.29-0.42-1.93c-0.06-0.26-0.32-0.43-0.59-0.38
				c-0.26,0.05-0.44,0.29-0.4,0.56c0.1,0.66,0.21,1.32,0.33,1.98c0.15,0.65,0.29,1.3,0.43,1.94c0.26,1.01,0.52,2.03,0.83,3.04
				c0.43,1.4,0.91,2.81,1.51,4.16c0.37,0.85,0.78,1.68,1.17,2.48c0.52,1.1,1.05,2.15,1.45,3.25c0.4,1.1,0.75,2.22,0.99,3.37
				c0.47,2.12,0.8,4.39,0.89,6.61L27.3,97.98z"/>
		</g>
	</g>
</g>
</svg>
