<?xml version="1.0" encoding="utf-8"?>
<!-- Generator: Adobe Illustrator 27.4.1, SVG Export Plug-In . SVG Version: 6.00 Build 0)  -->
<svg version="1.1" id="Layer_1" xmlns="http://www.w3.org/2000/svg" xmlns:xlink="http://www.w3.org/1999/xlink" x="0px" y="0px"
	 viewBox="0 0 429 273" style="enable-background:new 0 0 429 273;" xml:space="preserve">
<style type="text/css">
	.st0{fill:#AB7487;}
	.st1{fill:#002776;}
	.st2{fill:none;}
	.st3{fill:#873953;}
	.st4{fill:#D3D3EA;}
	.st5{fill:#7EB5D2;}
	.st6{fill:#F8E9DD;}
	.st7{fill:#005AA4;}
	.st8{fill:#FFFFFF;}
	.st9{fill:#E44244;}
	.st10{fill:#E60000;}
	.st11{clip-path:url(#SVGID_00000126296423453756911330000003089947832607688106_);}
	.st12{fill:#EE8D9C;}
	.st13{clip-path:url(#SVGID_00000034775258253066501580000017792339974402345661_);}
	.st14{clip-path:url(#SVGID_00000117673380186860119290000002822155955925222038_);}
</style>
<g>
	<g>
		<path class="st0" d="M375.58,262.03c6.53-9.7,17.04-15.16,28.59-15.16c1.99,0,4,0.16,6.04,0.49c-2.62-5.19-5.12-10.41-7.23-15.78
			c0.91-16.9,1.32-33.72,1.56-50.64c0.09-6.68-1.15-13.33-3.7-19.51c-13.28-32.28-19.72-36.38-36.37-40.89l-16,78.23
			c-2.66,17.58,8.03,33.55,17.69,41.89C369.14,247.83,372.38,254.93,375.58,262.03z"/>
	</g>
	<g>
		<path class="st1" d="M223.47,204.66c0,0-85.55-22.08-139.62-18.77c0-0.94,0.01-1.88,0.01-2.81c0-65.39-4.7-92.1-9.6-141.46
			c33.78-2.97,73.02,6.54,149.22,40C223.47,81.61,214.58,165.23,223.47,204.66z"/>
	</g>
	<g>
		<g>
			<path class="st0" d="M56.86,185.28c-1.27-20.28-7.34-40.65-7.34-61.05c0-2.04,0.04-3.77,0.12-5.29
				c9.48-9.77,25.73-24.51,36.1-24.51c9.89,0,15.58,5.85,23.21,8.85c-1.12-0.29-53.48,134.29-53.48,134.29l-27.05-18.49
				L56.86,185.28z"/>
		</g>
		<g>
			<g>
				<g>
					<line class="st2" x1="64.38" y1="121.35" x2="63.95" y2="123.19"/>
				</g>
				<g>
					<line class="st2" x1="86.52" y1="146.21" x2="88.26" y2="145.47"/>
				</g>
				<g>
					<path class="st3" d="M80.31,133.22c0.97,1.18,1.91,2.49,2.52,3.94c0.37,0.77,0.71,1.46,1.02,2.11c0.2,0.35,0.39,0.71,0.58,1.07
						l0.51,1l0.66,1.49l1.2,2.89c0.08,0.17,0.35,0.22,0.59,0.11c0.25-0.11,0.4-0.33,0.34-0.5c-0.34-0.95-0.63-1.97-0.96-2.97
						l-0.53-1.56l-0.39-1.09c-0.13-0.4-0.28-0.8-0.45-1.19c-0.31-0.69-0.68-1.41-1.17-2.16c-0.92-1.35-1.79-2.76-2.73-4.08
						c-0.16-0.23-0.31-0.46-0.5-0.68c-0.55-0.56-1.05-1.17-1.58-1.75c-0.55-0.56-1.1-1.13-1.64-1.68c-0.63-0.54-1.27-1.1-1.93-1.64
						c-0.69-0.5-1.43-0.94-2.16-1.37c-0.53-0.34-1.14-0.54-1.71-0.82l-1.36-0.61l-1.4-0.5c-0.68-0.22-1.32-0.53-2.01-0.72
						c-0.85-0.24-1.74-0.49-2.62-0.68c-0.18-0.04-0.37,0.14-0.43,0.4s0.03,0.51,0.19,0.57c0.83,0.29,1.68,0.54,2.51,0.77
						c0.66,0.18,1.28,0.49,1.91,0.75c0.44,0.19,0.88,0.38,1.3,0.58l1.23,0.73c0.5,0.32,1.04,0.57,1.51,0.94
						c0.64,0.49,1.32,0.91,1.98,1.37c0.63,0.49,1.27,0.97,1.9,1.43c0.54,0.49,1.09,0.99,1.64,1.49c0.52,0.53,0.99,1.11,1.45,1.69
						C79.98,132.8,80.14,133.01,80.31,133.22z"/>
				</g>
			</g>
			<g>
				<g>
					<line class="st2" x1="70.43" y1="123.73" x2="71.26" y2="125.44"/>
				</g>
				<g>
					<line class="st2" x1="98.8" y1="113.52" x2="98.46" y2="111.65"/>
				</g>
				<g>
					<path class="st3" d="M85.12,102.24c-0.36,0.06-0.81,0.21-1.16,0.56c-0.35,0.35-0.51,0.83-0.53,1.21
						c-0.02,0.73,0.07,1.29,0.2,1.93c0.28,1.23,0.85,2.37,1.55,3.4c0.8,1.1,1.76,1.89,2.74,2.47c0.27,0.17,0.56,0.3,0.84,0.43
						c0.28,0.14,0.57,0.26,0.87,0.35c0.54,0.21,1.1,0.34,1.65,0.49c0.8,0.19,1.61,0.31,2.42,0.36c1.54,0.09,3.06,0,4.55-0.28
						c0.27-0.05,0.43-0.32,0.38-0.58c-0.05-0.27-0.29-0.45-0.54-0.42c-1.43,0.2-2.88,0.19-4.29,0.01c-0.73-0.1-1.45-0.25-2.15-0.46
						c-0.49-0.16-0.97-0.33-1.41-0.57c-0.25-0.11-0.49-0.24-0.72-0.38c-0.24-0.14-0.48-0.26-0.7-0.43
						c-0.82-0.51-1.63-1.15-2.38-2.01c-0.7-0.76-1.22-1.71-1.44-2.71c-0.04-0.25-0.1-0.5-0.12-0.76c0-0.23-0.04-0.55-0.01-0.71
						c0.08-0.35,0.11-0.34,0.49-0.43c0.07-0.01,0.15-0.01,0.23-0.01l-0.68-0.39c0.09,0.18,0.16,0.38,0.21,0.6
						c0.25,0.83,0.12,1.96,0.05,2.98c-0.08,0.51-0.14,1.03-0.25,1.54c-0.14,0.5-0.25,1-0.4,1.48c-0.68,2.09-1.82,4.05-3.15,5.86
						c-0.24,0.34-0.5,0.67-0.78,0.99c-0.28,0.32-0.53,0.66-0.84,0.95c-0.91,0.98-1.92,1.89-3,2.71c-0.78,0.59-1.59,1.14-2.43,1.64
						c-1.04,0.64-2.16,1.24-3.25,1.85c-0.22,0.12-0.3,0.42-0.19,0.66c0.12,0.24,0.4,0.35,0.63,0.24c1.17-0.52,2.32-1.13,3.4-1.79
						c0.87-0.51,1.7-1.07,2.54-1.64c1.16-0.81,2.29-1.66,3.35-2.62c0.35-0.28,0.65-0.62,0.97-0.93c0.32-0.31,0.63-0.64,0.91-0.99
						c1.62-1.84,2.79-4.12,3.42-6.45c0.14-0.54,0.24-1.1,0.36-1.65c0.09-0.56,0.14-1.12,0.22-1.68c0.06-0.56,0.05-1.13,0.09-1.69
						c0.04-0.56,0.01-1.19-0.12-1.81c-0.09-0.33-0.21-0.66-0.4-0.97l-0.24-0.42l-0.44,0.03C85.4,102.2,85.26,102.21,85.12,102.24z"
						/>
				</g>
			</g>
			<g>
				<g>
					<line class="st2" x1="77.34" y1="128.26" x2="77.93" y2="130.06"/>
				</g>
				<g>
					<line class="st2" x1="93" y1="113.42" x2="91.16" y2="112.98"/>
				</g>
				<g>
					<path class="st3" d="M88.65,122.15c0.3-0.43,0.59-0.88,0.88-1.33c0.3-0.44,0.6-0.89,0.93-1.32c0.35-0.47,0.58-0.95,0.79-1.4
						c0.11-0.26,0.2-0.52,0.27-0.79c0.07-0.25,0.14-0.49,0.22-0.73c0.13-0.34,0.21-0.7,0.31-1.05c0.2-0.66,0.32-1.34,0.47-2.01
						c0.03-0.12-0.18-0.27-0.44-0.33s-0.5-0.03-0.54,0.08c-0.21,0.63-0.42,1.25-0.69,1.85c-0.13,0.31-0.26,0.63-0.42,0.93
						c-0.11,0.21-0.22,0.42-0.34,0.63c-0.12,0.23-0.27,0.44-0.4,0.67c-0.22,0.41-0.41,0.85-0.64,1.35
						c-0.17,0.48-0.41,0.92-0.69,1.33c-0.27,0.43-0.59,0.81-0.91,1.18l-0.33,0.39c-0.55,0.78-1.24,1.46-1.95,2.06
						c-0.78,0.63-1.58,1.28-2.38,1.93c-0.3,0.24-0.58,0.5-0.89,0.72c-0.48,0.38-0.98,0.73-1.51,1.02c-0.37,0.24-0.78,0.41-1.18,0.59
						c-0.49,0.24-1.03,0.41-1.54,0.67c-0.1,0.05-0.12,0.3-0.03,0.55c0.08,0.25,0.24,0.43,0.36,0.4c0.57-0.16,1.14-0.34,1.66-0.59
						c0.42-0.19,0.85-0.36,1.27-0.57c0.59-0.26,1.18-0.54,1.76-0.83c0.37-0.17,0.72-0.38,1.07-0.59c0.97-0.55,1.79-1.33,2.54-2.11
						c0.69-0.73,1.34-1.54,2.04-2.27L88.65,122.15z"/>
				</g>
			</g>
		</g>
	</g>
	<g>
		<g>
			<path class="st4" d="M99.56,172.26c2.2-0.19,4.41-0.32,6.64-0.38c39.61-1.16,82.46,16.99,117.28,32.78V81.61
				C185.71,48.79,132.1,23.1,93.67,10.97L99.56,172.26z"/>
		</g>
		<g>
			<g id="XMLID_00000151511317287686219450000016676442078076200340_">
				<g>
					<path class="st5" d="M215.05,156.18v35.54c-15.27-6.92-32.33-14.37-49.91-19.91l0.3-40.2
						C182.98,138.56,200.07,147.29,215.05,156.18z"/>
					<path class="st6" d="M215.05,120.64v35.54c-14.98-8.89-32.07-17.62-49.61-24.57l0.3-40.09
						C183.24,99.85,200.35,109.88,215.05,120.64z"/>
					<path class="st1" d="M215.05,85.1v35.54c-14.7-10.76-31.81-20.79-49.31-29.12l0.3-39.96C183.51,61.21,200.62,72.56,215.05,85.1
						z"/>
					<path class="st7" d="M166.04,51.56l-0.3,39.96c-18.86-8.98-38.16-15.98-55.38-19.78c-2.06-0.45-4.09-0.89-6.09-1.26l-1.7-46.59
						C121.18,29.76,143.91,39.31,166.04,51.56z"/>
					<path class="st8" d="M165.74,91.52l-0.3,40.09c-18-7.15-36.45-12.42-53.55-14.08c-1.99-0.19-3.96-0.36-5.91-0.46l-1.71-46.59
						c2,0.37,4.03,0.81,6.09,1.26C127.58,75.54,146.88,82.54,165.74,91.52z"/>
					<path class="st1" d="M165.44,131.61l-0.3,40.2c-17.14-5.4-34.77-8.98-51.71-8.49c-1.93,0.06-3.85,0.17-5.75,0.33l-1.7-46.58
						c1.95,0.1,3.92,0.27,5.91,0.46C128.99,119.19,147.44,124.46,165.44,131.61z"/>
				</g>
			</g>
		</g>
		<g>
			<g>
				<g>
					<g>
						<line class="st2" x1="122.03" y1="139.22" x2="122.68" y2="137.44"/>
					</g>
					<g>
						<line class="st2" x1="120.52" y1="143.26" x2="120.22" y2="141.39"/>
					</g>
					<g>
						<path class="st9" d="M121.22,144.95c0.02,0.02-0.27,0.08-0.5,0.09c-0.24,0.02-0.52,0.02-0.77,0.01
							c-0.51-0.02-1.03-0.12-1.49-0.31c-0.48-0.15-1.02-0.44-0.92-0.39c-0.03,0-0.06-0.02-0.08-0.05c-0.01-0.01-0.02-0.03-0.02-0.04
							c0-0.06-0.03-0.08,0.08-0.2c0.22-0.19,0.51-0.37,0.82-0.52c0.59-0.3,1.24-0.53,1.9-0.69c0.12-0.03,0.17-0.28,0.13-0.54
							c-0.04-0.27-0.18-0.47-0.32-0.45c-0.75,0.11-1.48,0.26-2.22,0.52c-0.38,0.14-0.77,0.3-1.16,0.56c-0.3,0.2-0.71,0.58-0.85,0.99
							c-0.05,0.13-0.08,0.26-0.11,0.4c-0.01,0.36,0.1,0.72,0.33,1.01c0.14,0.18,0.35,0.33,0.55,0.47c0.25,0.15,0.34,0.18,0.52,0.25
							c0.31,0.12,0.63,0.2,0.97,0.25c0.61,0.06,1.2,0.11,1.79,0.14c0.3,0.02,0.58,0.03,0.89,0.03c0.32-0.02,0.58,0.02,1.11-0.15
							c0.32-0.11,0.6-0.3,0.79-0.57c0.11-0.2,0.18-0.42,0.19-0.65c-0.03-0.23-0.03-0.47-0.07-0.69c-0.13-0.43-0.26-0.67-0.43-0.96
							c-0.33-0.53-0.68-0.96-1.02-1.38c-0.74-0.88-1.5-1.7-2.11-2.47c-0.21-0.29-0.41-0.58-0.51-0.87c-0.07-0.13-0.09-0.19-0.1-0.34
							c0.09-0.05,0.13-0.09,0.35-0.11c0.42-0.06,0.86-0.03,1.31,0.04c0.55,0.09,1.12,0.24,1.7,0.39c0.12,0.03,0.28-0.15,0.38-0.4
							c0.09-0.25,0.07-0.49-0.04-0.55c-0.58-0.26-1.22-0.44-1.85-0.55c-0.51-0.08-1.03-0.13-1.57-0.12c-0.16,0-0.49,0.04-0.73,0.08
							c-0.26,0.05-0.5,0.12-0.76,0.19c-0.11,0.53-0.19,1.17-0.11,1.71c0.08,0.54,0.3,1,0.52,1.43c0.63,1.15,1.56,1.92,2.33,2.68
							c0.35,0.35,0.7,0.7,0.95,1.07c0.11,0.16,0.21,0.39,0.23,0.47c0.01,0.06,0.01,0.11-0.04,0.14
							C121.28,144.91,121.25,144.93,121.22,144.95z"/>
					</g>
				</g>
				<g>
					<g>
						<line class="st2" x1="122.05" y1="148.72" x2="123.94" y2="148.78"/>
					</g>
					<g>
						<line class="st2" x1="146.93" y1="149.73" x2="148.62" y2="148.88"/>
					</g>
					<g>
						<path class="st9" d="M139.87,145.22l0.1,0.47c0.07,0.38,0.18,0.83,0.3,1.24c0.02,0.08,0.08,0.25,0.14,0.42
							c0.05,0.16,0.11,0.32,0.18,0.49l0.39,0.99c0.43-0.16,0.86-0.31,1.3-0.51c0.2-0.09,0.49-0.24,0.6-0.31l0.19-0.11l0.03-0.01
							c0.02-0.01,0.03-0.01,0.05-0.02c0.06,0.05-0.02,0,0.35,0.32c0.15,0.14,0.19,0.17,0.5,0.48c0.25,0.26,0.49,0.52,0.72,0.77
							c0.31-0.19,0.58-0.34,0.83-0.52c0.21-0.15,0.45-0.29,0.62-0.47c0.13-0.11,0.24-0.24,0.35-0.37c0.22-0.26,0.41-0.54,0.57-0.83
							c0.29-0.54,0.47-1.1,0.6-1.64c0.12-0.51,0.2-1.02,0.27-1.5l-1.3-0.23l-0.07,0.79c-0.04,0.73-0.17,1.45-0.07,2.21
							c0.07,0.75,0.27,1.51,0.58,2.2c0.11,0.25,0.42,0.33,0.66,0.21c0.24-0.13,0.36-0.39,0.27-0.6c-0.24-0.61-0.36-1.24-0.38-1.89
							c-0.05-0.65,0.12-1.33,0.2-1.99l0.1-0.69l-1.3-0.23c-0.11,0.48-0.21,0.94-0.34,1.37c-0.14,0.45-0.33,0.86-0.57,1.21
							c-0.13,0.19-0.28,0.36-0.44,0.51c-0.08,0.08-0.16,0.15-0.25,0.22c-0.03,0.02-0.03,0.01-0.05,0.02c-0.01,0-0.03,0.01-0.04,0.01
							c0.14,0.14-0.44-0.49-1.93-1.45c-0.16,0.16-0.38,0.36-0.59,0.57c-0.1,0.09-0.19,0.17-0.29,0.25l-0.14,0.11
							c-0.11,0.08-0.06,0.06-0.11,0.09c-0.04,0.04-0.11,0.08-0.17,0.11c-0.05-0.1-0.07-0.09-0.15-0.37
							c-0.11-0.37-0.2-0.72-0.26-1.13c-0.12-0.7-0.17-1.44-0.21-2.25c-0.02-0.86-0.27-1.12-0.4-1.29l-0.17-0.2
							c-0.04-0.03,0-0.05-0.13-0.08c-0.11-0.01-0.06,0.02-0.1,0.02c-0.06,0.06-0.15,0.12-0.3,0.22c-0.13,0.08-0.39,0.23-0.65,0.75
							c-0.3,0.96-0.61,1.58-1,2.13c-0.19,0.25-0.4,0.45-0.61,0.57c-0.41,0.22-0.67,0.16-1.21-0.2c-0.66-0.42-1.28-1.22-2.52-1.64
							c-0.31-0.1-0.69-0.14-1.01-0.11c-0.32,0.02-0.59,0.09-0.83,0.15l-0.67,0.18l-0.14,0.03l-0.01,0c-0.01,0-0.02,0.01-0.02,0.01
							c0.12,0.11-0.37-0.32-0.84-0.51c-0.54-0.27-1.32-0.23-1.76-0.08c-0.46,0.14-0.76,0.26-1.07,0.29
							c-0.23,0.03-0.53,0.02-0.75-0.02c-0.23-0.04-0.38-0.12-0.55-0.27c-0.08-0.07-0.18-0.19-0.28-0.31
							c-0.11-0.13-0.2-0.26-0.42-0.47c-0.39-0.39-0.86-0.57-1.33-0.72l-0.13-0.04c-0.03,0.01-0.06,0.06-0.09,0.09l-0.17,0.2
							c-0.11,0.14-0.22,0.26-0.32,0.43l-0.29,0.48l-0.18,0.36c-0.22,0.47-0.39,0.96-0.5,1.46c-0.28,1.26-0.23,2.53-0.19,3.71
							c0.01,0.24,0.23,0.44,0.5,0.45c0.27,0.01,0.49-0.18,0.51-0.43c0.08-1.22,0.04-2.42,0.28-3.48c0.1-0.42,0.24-0.83,0.43-1.22
							l0.14-0.27l0.07-0.12c0.06-0.06,0.09-0.19,0.17-0.16c0.12,0.05,0.22,0.12,0.29,0.22l0.21,0.29c0.1,0.14,0.21,0.29,0.36,0.45
							c0.29,0.32,0.73,0.59,1.14,0.7c0.42,0.11,0.78,0.16,1.21,0.15c0.52-0.01,1.01-0.16,1.34-0.23c0.35-0.06,0.46-0.04,0.67,0.07
							c0.21,0.13,0.3,0.18,0.94,0.82c0.22-0.02,0.44-0.03,0.66-0.06c0.11-0.02,0.22-0.03,0.34-0.06l0.2-0.05l0.68-0.17
							c0.21-0.05,0.39-0.09,0.54-0.1c0.15-0.01,0.24,0,0.37,0.03c0.56,0.14,1.25,0.77,2.12,1.32c0.36,0.22,0.79,0.45,1.35,0.51
							c0.56,0.07,1.14-0.11,1.56-0.39c0.42-0.28,0.74-0.62,1-0.96c0.04-0.05,0.08-0.13,0.12-0.2l0.12-0.23
							c0.01-0.02,0.01-0.05,0.02-0.07c0.02-0.01,0.01,0.01,0.02,0.02L139.87,145.22z"/>
					</g>
				</g>
			</g>
			<g>
				<path class="st9" d="M149.59,149.74c-0.46-3.15,1.61-5.71,3.83-5.47c1.6,0.17,2.45,1.99,2.59,3.59c0.23,2.73-2.13,5.12-4.3,4.78
					c-0.99-0.16-1.78-0.93-2.03-2.49C149.66,150.01,149.61,149.88,149.59,149.74z"/>
			</g>
		</g>
		<g>
			<g>
				<g>
					<g>
						<line class="st2" x1="123.25" y1="92.16" x2="124.25" y2="90.55"/>
					</g>
					<g>
						<line class="st2" x1="121.3" y1="96.82" x2="121.35" y2="94.93"/>
					</g>
					<g>
						<path class="st1" d="M122.48,99.64c-0.03,0.02-0.06,0.04-0.1,0.05c-0.06,0.01-0.21,0.02-0.36,0c-0.3-0.02-0.63-0.07-0.95-0.14
							c-0.64-0.14-1.28-0.36-1.84-0.69c-0.62-0.32-1.17-0.64-1.52-0.94c-0.1-0.08-0.18-0.16-0.23-0.21
							c-0.04-0.04-0.06-0.04-0.08-0.08c-0.02-0.07-0.06-0.11,0.11-0.28c0.22-0.21,0.62-0.4,1.02-0.53c0.78-0.26,1.65-0.4,2.51-0.44
							c0.15,0,0.28-0.24,0.29-0.51s-0.12-0.49-0.29-0.5c-0.95-0.03-1.9,0.01-2.87,0.23c-0.5,0.13-1.02,0.27-1.55,0.65
							c-0.36,0.23-0.79,0.8-0.79,1.4c0,0.16,0.01,0.33,0.06,0.49c0.03,0.16,0.1,0.32,0.18,0.45c0.14,0.25,0.3,0.44,0.47,0.6
							c0.61,0.56,1.29,0.89,2.07,1.17c0.72,0.21,1.43,0.4,2.16,0.57c0.36,0.08,0.72,0.15,1.11,0.2c0.2,0.02,0.4,0.04,0.68,0.03
							c0.31-0.02,0.61-0.09,0.86-0.25c0.37-0.2,0.59-0.59,0.66-1c0-0.28-0.04-0.55-0.05-0.82l-0.18-0.59
							c-0.15-0.36-0.3-0.71-0.48-1.02c-0.35-0.64-0.72-1.21-1.09-1.77c-0.79-1.19-1.62-2.36-2.32-3.47
							c-0.24-0.42-0.47-0.84-0.59-1.27l-0.08-0.25l-0.03-0.11c-0.02-0.07-0.03-0.15-0.03-0.22c-0.03-0.1,0.06-0.09,0.12-0.11
							c0.08-0.01,0.11-0.02,0.25-0.01c0.54,0.05,1.09,0.21,1.63,0.42c0.67,0.27,1.34,0.62,2.02,0.96c0.14,0.07,0.36-0.06,0.5-0.29
							c0.14-0.23,0.15-0.48,0.02-0.57c-0.65-0.46-1.38-0.84-2.12-1.14c-0.59-0.24-1.22-0.43-1.88-0.55c-0.28-0.05-0.68-0.08-1-0.06
							c-0.3,0.05-0.81-0.1-0.75,0.37l-0.1,0.5l-0.02,0.51c0,0.16-0.03,0.37-0.02,0.51l0.06,0.37c0.09,0.62,0.31,1.18,0.54,1.71
							c0.65,1.43,1.63,2.57,2.48,3.66c0.4,0.51,0.79,1.02,1.1,1.55c0.16,0.26,0.28,0.53,0.38,0.78l0.09,0.37
							c0,0.06,0,0.12-0.01,0.16C122.53,99.55,122.52,99.61,122.48,99.64z"/>
					</g>
				</g>
				<g>
					<g>
						<line class="st2" x1="123.31" y1="104.66" x2="125.2" y2="104.74"/>
					</g>
					<g>
						<line class="st2" x1="149.53" y1="110.14" x2="151.28" y2="109.42"/>
					</g>
					<g>
						<path class="st1" d="M142.54,103.34c0.04,0.23,0.08,0.46,0.12,0.7c0.09,0.54,0.19,1.08,0.32,1.62l0.1,0.4l0.06,0.22l0.1,0.33
							l0.43,1.35c0.6-0.16,1.21-0.3,1.84-0.61c0.15-0.08,0.21-0.12,0.2-0.11l0.03-0.01l0.04-0.02c0.06,0.06-0.04-0.03,0.35,0.43
							c0.16,0.17,0.79,1.03,1.23,1.66c0.09-0.04,0.17-0.1,0.25-0.14c0.51-0.3,0.99-0.59,1.42-1.02c0.33-0.36,0.5-0.66,0.68-1.02
							c0.3-0.64,0.45-1.28,0.55-1.9c0.09-0.55,0.15-1.08,0.2-1.59l-1.31-0.16l-0.04,1.02c-0.14,1.63,0.03,3.39,0.64,4.97
							c0.11,0.28,0.42,0.41,0.66,0.31c0.25-0.11,0.37-0.39,0.29-0.65c-0.49-1.47-0.55-3.01-0.33-4.58l0.09-0.93l-1.31-0.16
							c-0.08,0.51-0.16,1.01-0.27,1.49c-0.12,0.54-0.3,1.03-0.55,1.44c-0.13,0.2-0.32,0.44-0.44,0.54
							c-0.04,0.02-0.07,0.03-0.09,0.03c0,0-0.01,0.01-0.01,0c0.13,0.16-0.39-0.61-1.92-2.05c-0.17,0.17-0.37,0.37-0.58,0.58
							c-0.11,0.1-0.21,0.21-0.33,0.29c-0.14,0.11-0.18,0.12-0.17,0.13c-0.03,0.04-0.11,0.11-0.18,0.13
							c-0.03-0.04-0.05-0.09-0.08-0.14l-0.02-0.05l-0.05-0.16l-0.1-0.37c-0.13-0.49-0.23-0.99-0.3-1.49
							c-0.12-0.76-0.19-1.83-0.25-2.79c-0.03-0.2-0.03-0.51-0.08-0.63c-0.05-0.11-0.11-0.25-0.16-0.34
							c-0.1-0.16-0.19-0.28-0.27-0.37l-0.08-0.1c-0.02-0.02-0.02-0.03-0.05-0.05c-0.03-0.02-0.14-0.03-0.13-0.02
							c-0.03,0.03-0.06,0.06-0.11,0.09c-0.06,0.05-0.16,0.12-0.29,0.21l-0.25,0.21c-0.11,0.19-0.22,0.34-0.33,0.56l-0.27,0.91
							l-0.28,0.7c-0.18,0.38-0.49,0.87-0.56,0.91c-0.24,0.29-0.49,0.42-0.66,0.42c-0.33,0.08-1.02-0.58-1.58-1.24
							c-0.6-0.63-1.13-1.43-2.31-1.95c-0.64-0.25-1.27-0.2-1.73-0.15l-0.65,0.07l-0.13,0.01l-0.02,0c0.1,0.12-0.3-0.36-0.65-0.65
							c-0.36-0.3-0.89-0.61-1.48-0.67c-0.73-0.06-1.19,0.11-1.55,0.12c-0.18,0.01-0.36,0.01-0.53-0.02
							c-0.19-0.04-0.38-0.08-0.55-0.14c-0.55-0.19-0.85-0.55-1.28-1.24c-0.11-0.17-0.23-0.33-0.37-0.52
							c-0.2-0.24-0.42-0.45-0.66-0.63c-0.24-0.16-0.48-0.31-0.74-0.45c-0.06-0.02-0.13-0.11-0.18-0.08l-0.14,0.17l-0.27,0.33
							c-0.13,0.15-0.24,0.35-0.36,0.53c-0.11,0.18-0.25,0.39-0.29,0.5c-0.14,0.26-0.26,0.53-0.37,0.8
							c-0.21,0.55-0.36,1.11-0.46,1.68c-0.24,1.42-0.21,2.84-0.21,4.2c0,0.28,0.22,0.51,0.49,0.52c0.27,0.01,0.5-0.2,0.52-0.49
							c0.11-1.39,0.08-2.79,0.31-4.05c0.09-0.5,0.22-0.99,0.41-1.45c0.1-0.23,0.2-0.46,0.33-0.67c0.07-0.14,0.09-0.15,0.12-0.2
							c0.03-0.04,0.06-0.08,0.09-0.12l0.06-0.08c0.02-0.04,0.04-0.05,0.07-0.01c0.06,0.04,0.11,0.09,0.16,0.13
							c0.05,0.05,0.08,0.1,0.12,0.16c0.08,0.12,0.17,0.26,0.26,0.42c0.18,0.31,0.37,0.69,0.68,1.06c0.31,0.37,0.73,0.67,1.15,0.86
							c0.27,0.13,0.53,0.2,0.81,0.28c0.29,0.07,0.59,0.1,0.88,0.1c0.59,0,1.06-0.1,1.28-0.04c0.18,0.04,0.35,0.13,0.57,0.33
							c0.23,0.22,0.33,0.32,0.89,1.05c0.21,0.02,0.43,0.04,0.64,0.05c0.22,0.01,0.45,0,0.55-0.01l0.69-0.08
							c0.43-0.05,0.73-0.05,0.93,0.02c0.5,0.16,1.13,0.81,1.73,1.43c0.33,0.33,0.66,0.68,1.1,1.02c0.41,0.32,1.04,0.7,1.82,0.62
							c0.77-0.08,1.32-0.55,1.67-0.98c0.24-0.3,0.16-0.22,0.21-0.29l0.07-0.12l0.1-0.2l0.03-0.16
							C142.54,103.26,142.53,103.33,142.54,103.34z"/>
					</g>
				</g>
			</g>
			<g>
				<path class="st10" d="M152.12,110.57c-0.54-3.73,1.26-6.3,3.27-5.64c1.43,0.46,2.27,2.65,2.46,4.47
					c0.33,3.13-1.66,5.57-3.66,4.87c-0.92-0.32-1.69-1.34-1.98-3.21C152.2,110.9,152.15,110.74,152.12,110.57z"/>
			</g>
		</g>
		<g>
			<g>
				<g>
					<g>
						<line class="st2" x1="122.55" y1="47.44" x2="123.67" y2="45.91"/>
					</g>
					<g>
						<line class="st2" x1="120.41" y1="52.27" x2="120.63" y2="50.39"/>
					</g>
					<g>
						<path class="st8" d="M121.84,55.58c-0.08,0.05-0.04,0.08-0.42,0.04c-0.33-0.04-0.68-0.13-1.04-0.23
							c-0.7-0.21-1.4-0.5-2.01-0.89c-0.68-0.39-1.28-0.78-1.72-1.16c-0.24-0.19-0.44-0.43-0.49-0.51c-0.04-0.07-0.07-0.13,0.06-0.27
							c0.2-0.21,0.65-0.41,1.11-0.52c0.88-0.22,1.87-0.28,2.82-0.24c0.17,0.01,0.33-0.21,0.36-0.48c0.03-0.27-0.09-0.5-0.27-0.53
							c-1.04-0.12-2.09-0.16-3.19,0c-0.57,0.1-1.16,0.23-1.77,0.69c-0.43,0.31-0.81,1.03-0.66,1.68c0.16,0.7,0.52,1.09,0.85,1.44
							c0.63,0.58,1.35,0.99,2.18,1.34c0.77,0.28,1.54,0.55,2.32,0.78c0.39,0.11,0.78,0.22,1.22,0.3c0.37,0.08,1.26,0.14,1.74-0.3
							c0.33-0.28,0.53-0.79,0.47-1.2c-0.02-0.3-0.03-0.62-0.11-0.8c-0.07-0.21-0.12-0.44-0.21-0.62c-0.16-0.39-0.34-0.74-0.52-1.09
							c-0.38-0.68-0.77-1.34-1.16-1.95c-0.84-1.34-1.71-2.66-2.46-3.95c-0.25-0.48-0.51-0.97-0.63-1.45l-0.09-0.29l-0.03-0.12
							c-0.02-0.08-0.03-0.16-0.03-0.24c-0.03-0.12,0.09-0.07,0.15-0.09c0.1,0,0.1-0.01,0.3,0.03c0.6,0.12,1.2,0.37,1.77,0.66
							c0.72,0.37,1.44,0.82,2.15,1.26c0.15,0.09,0.39-0.01,0.55-0.23c0.16-0.22,0.18-0.48,0.04-0.59c-0.68-0.56-1.45-1.04-2.23-1.45
							c-0.63-0.32-1.28-0.6-1.99-0.81c-0.26-0.07-0.72-0.17-1.07-0.19l-0.56-0.03c-0.08,0.01-0.22-0.04-0.26,0.02l-0.05,0.27
							l-0.11,0.55l-0.03,0.57c-0.01,0.19-0.02,0.4-0.02,0.57l0.06,0.4c0.1,0.68,0.32,1.28,0.56,1.87c0.67,1.58,1.7,2.89,2.61,4.14
							c0.43,0.58,0.84,1.17,1.2,1.77c0.17,0.3,0.33,0.6,0.44,0.9c0.07,0.15,0.09,0.29,0.13,0.44c0.05,0.17,0.04,0.23,0.04,0.29
							C121.88,55.51,121.88,55.52,121.84,55.58z"/>
					</g>
				</g>
				<g>
					<g>
						<line class="st2" x1="122.73" y1="61.12" x2="124.62" y2="61.19"/>
					</g>
					<g>
						<line class="st2" x1="148.89" y1="68.41" x2="150.66" y2="67.75"/>
					</g>
					<g>
						<path class="st8" d="M142.22,60.91c0.03,0.13,0.06,0.38,0.11,0.69l0.13,0.84l0.17,0.9l0.1,0.45c0.04,0.17,0.05,0.24,0.13,0.53
							l0.44,1.54c0.34-0.07,0.7-0.16,1.06-0.25c0.19-0.06,0.37-0.12,0.55-0.2c0.09-0.04,0.18-0.09,0.27-0.12
							c0.04-0.02,0.11-0.06,0.09-0.05c0.02-0.01,0.04-0.01,0.05-0.02c0.02,0,0.03,0.04,0.04,0.06c0.02,0.02-0.01-0.01,0.04,0.06
							l0.19,0.25c0.14,0.2,0.29,0.4,0.43,0.59c0.23,0.33,0.44,0.67,0.65,1.01l0.16,0.25c0.21-0.11,0.47-0.27,0.7-0.4
							c0.23-0.14,0.45-0.27,0.66-0.46c0.22-0.17,0.38-0.39,0.56-0.59c0.1-0.16,0.21-0.32,0.29-0.49c0.35-0.66,0.49-1.33,0.6-1.97
							c0.1-0.59,0.15-1.17,0.2-1.73l-1.31-0.15l-0.03,0.97c-0.13,1.69,0.03,3.48,0.61,5.12c0.1,0.29,0.41,0.44,0.66,0.34
							c0.25-0.1,0.38-0.39,0.3-0.65c-0.47-1.53-0.52-3.13-0.31-4.76l0.08-0.88l-1.31-0.15c-0.08,0.56-0.16,1.1-0.27,1.61
							c-0.13,0.55-0.31,1.07-0.57,1.47c-0.06,0.11-0.14,0.19-0.21,0.28c-0.03,0.02-0.05,0.04-0.07,0.04
							c-0.03,0.01-0.07,0.03-0.08,0.01l-0.01-0.02c0.16,0.22-0.49-0.78-1.82-2.2c-0.25,0.25-0.56,0.57-0.87,0.84
							c-0.07,0.05-0.15,0.11-0.23,0.17c-0.03,0.02-0.07,0.06-0.11,0.07c-0.03-0.03-0.05-0.08-0.08-0.14c0,0.01-0.06-0.21-0.1-0.32
							l-0.11-0.41c-0.07-0.28-0.13-0.55-0.18-0.83l-0.07-0.42l-0.07-0.48c-0.06-0.51-0.11-1.03-0.15-1.57
							c-0.03-0.56-0.07-1.1-0.12-1.6c-0.23-0.66-0.44-0.78-0.57-0.97c-0.01-0.02-0.11-0.04-0.14-0.03l-0.02,0.03
							c-0.01,0.02-0.03,0.03-0.05,0.05c-0.04,0.03-0.1,0.06-0.17,0.09c-0.12,0.11-0.41,0.16-0.75,0.9c-0.2,0.78-0.39,1.35-0.62,1.8
							c-0.12,0.22-0.22,0.45-0.37,0.63c-0.07,0.1-0.13,0.16-0.19,0.22c-0.13,0.13-0.25,0.21-0.35,0.23
							c-0.09,0.04-0.17,0.02-0.29-0.02c-0.24-0.09-0.58-0.39-0.88-0.74c-0.31-0.36-0.62-0.76-0.95-1.17
							c-0.44-0.51-0.87-1.08-1.62-1.54c-0.37-0.23-0.89-0.39-1.3-0.41c-0.42-0.03-0.78-0.01-1.09,0l-0.37,0
							c-0.01,0-0.02,0-0.03-0.01c0.06,0.08-0.24-0.32-0.5-0.59c-0.27-0.28-0.59-0.57-1.03-0.78c-0.44-0.22-0.98-0.28-1.36-0.25
							c-0.58,0.03-0.91,0.08-1.27,0c-0.37-0.08-0.78-0.22-1.07-0.43c-0.49-0.3-0.77-0.88-1.25-1.63c-0.18-0.3-0.7-0.91-1.18-1.2
							l-0.37-0.26l-0.19-0.13c-0.02-0.01-0.03-0.02-0.05-0.03l-0.04,0.04l-0.07,0.09c-0.19,0.24-0.39,0.45-0.56,0.72l-0.37,0.56
							l-0.22,0.42c-0.13,0.27-0.25,0.55-0.35,0.84c-0.21,0.57-0.34,1.15-0.43,1.73c-0.22,1.46-0.18,2.92-0.18,4.33
							c0,0.29,0.22,0.52,0.49,0.53s0.5-0.21,0.52-0.5c0.1-1.44,0.08-2.88,0.29-4.19c0.08-0.52,0.2-1.03,0.38-1.52
							c0.09-0.24,0.2-0.48,0.31-0.7l0.18-0.32l0.09-0.13c0.04-0.06,0.09-0.11,0.13-0.16c0.04-0.06,0.11,0.06,0.16,0.09
							c0.12,0.12,0.12,0.12,0.35,0.49c0.33,0.57,0.67,1.5,1.48,2.12c0.5,0.39,1.01,0.6,1.59,0.78c0.59,0.17,1.25,0.13,1.65,0.13
							c0.28,0.01,0.41,0.05,0.56,0.13c0.15,0.08,0.34,0.24,0.52,0.44c0.09,0.1,0.18,0.21,0.27,0.32l0.19,0.26
							c0.08,0.12,0.18,0.24,0.28,0.37c0.07,0.17,0.28,0.11,0.42,0.16c0.16,0.03,0.31,0.04,0.47,0.05c0.31,0.01,0.42,0,0.62,0
							c0.35-0.02,0.65-0.04,0.89-0.02c0.25,0.01,0.38,0.05,0.57,0.15c0.39,0.2,0.82,0.65,1.23,1.11c0.33,0.37,0.66,0.77,1.04,1.17
							c0.39,0.39,0.81,0.84,1.55,1.12c0.37,0.12,0.84,0.16,1.23,0.01c0.4-0.13,0.71-0.36,0.94-0.6c0.12-0.12,0.24-0.25,0.32-0.36
							l0.05-0.07l0.08-0.13l0.07-0.14C142.16,61.12,142.16,60.95,142.22,60.91z"/>
					</g>
				</g>
			</g>
			<g>
				<path class="st10" d="M151.38,68.97c-0.51-3.81,1.15-6.29,3.01-5.51c1.31,0.55,2.07,2.79,2.25,4.62c0.31,3.14-1.5,5.5-3.33,4.71
					c-0.85-0.36-1.56-1.42-1.84-3.32C151.45,69.31,151.41,69.14,151.38,68.97z"/>
			</g>
		</g>
		<g>
			<g>
				<g>
					<g>
						<line class="st2" x1="181.6" y1="78.37" x2="182.83" y2="76.93"/>
					</g>
					<g>
						<line class="st2" x1="180.14" y1="82.19" x2="180.48" y2="80.33"/>
					</g>
					<g>
						<path class="st8" d="M180.99,84.33c0.01,0.07-0.05,0.12-0.12,0.12c-0.03,0-0.07,0-0.1-0.01l-0.06-0.01l-0.19-0.06
							c-0.52-0.18-1-0.43-1.43-0.76c-0.48-0.33-0.89-0.65-1.22-0.93c-0.18-0.13-0.36-0.36-0.39-0.35c-0.05-0.03-0.09-0.11-0.06-0.18
							c0.02-0.05,0.05-0.09,0.11-0.13c0.11-0.06,0.25-0.13,0.41-0.17c0.61-0.17,1.35-0.2,2.05-0.14c0.12,0.01,0.26-0.2,0.31-0.47
							c0.05-0.27-0.02-0.5-0.17-0.53c-0.8-0.14-1.6-0.23-2.48-0.1c-0.23,0.03-0.47,0.1-0.72,0.2c-0.29,0.13-0.59,0.34-0.78,0.62
							c-0.28,0.39-0.33,0.91-0.18,1.39c0.21,0.57,0.43,0.81,0.68,1.09c0.46,0.46,0.99,0.81,1.62,1.1c0.58,0.24,1.17,0.47,1.76,0.68
							l0.23,0.08l0.36,0.1c0.25,0.06,0.49,0.09,0.73,0.08c0.45-0.01,0.9-0.28,1.08-0.7c0.07-0.14,0.08-0.3,0.09-0.47
							c0.01-0.17,0.04-0.33,0.02-0.5c-0.11-0.6-0.22-0.81-0.34-1.11c-0.12-0.28-0.25-0.56-0.38-0.82c-0.26-0.53-0.52-1.03-0.78-1.52
							c-0.54-1-1.09-2.04-1.64-3.06c-0.08-0.18-0.19-0.37-0.25-0.55l-0.11-0.27c-0.04-0.09-0.06-0.2-0.07-0.18
							c-0.04-0.06-0.09-0.18-0.09-0.31c-0.03-0.09,0.03-0.09,0.09-0.09c0.05,0,0.11,0,0.18,0.01c0.08-0.02,0.63,0.23,1.01,0.47
							c0.51,0.31,1.02,0.69,1.54,1.05c0.11,0.07,0.33-0.03,0.5-0.24c0.17-0.2,0.24-0.44,0.14-0.54c-0.48-0.47-1.03-0.88-1.6-1.24
							c-0.48-0.27-0.85-0.53-1.74-0.8c-0.27-0.07-0.53-0.11-0.8-0.14l-0.41-0.04c-0.03,0-0.08-0.01-0.1,0l-0.02,0.1l-0.04,0.19
							c-0.07,0.26-0.1,0.52-0.13,0.8c-0.03,0.28-0.07,0.54-0.01,0.88c0.04,0.24,0.04,0.34,0.07,0.47l0.08,0.37
							c0.05,0.25,0.13,0.47,0.21,0.71c0.42,1.25,1.14,2.28,1.78,3.26c0.3,0.45,0.6,0.91,0.85,1.37c0.13,0.23,0.23,0.46,0.33,0.69
							c0.08,0.21,0.17,0.53,0.13,0.48C180.97,84.24,180.99,84.28,180.99,84.33z"/>
					</g>
				</g>
				<g>
					<g>
						<line class="st2" x1="181.54" y1="88.98" x2="183.43" y2="89.08"/>
					</g>
					<g>
						<line class="st2" x1="200.79" y1="96.12" x2="202.6" y2="95.56"/>
					</g>
					<g>
						<path class="st8" d="M196,90.2c0.02,0.09,0.05,0.28,0.08,0.51l0.05,0.43l0.1,0.7c0.08,0.46,0.17,0.93,0.27,1.39l0.14,0.65
							l0.74-0.11c0.24-0.03,0.49-0.08,0.75-0.17c0.13-0.04,0.09-0.02,0.13-0.03c0.02,0,0.02,0.04,0.03,0.06l0.01,0.03
							c0.01,0.01,0,0,0.01,0.03l0.07,0.11c0.19,0.28,0.37,0.56,0.55,0.84c0.2,0.21,0.4,0.42,0.59,0.62
							c0.02,0.02,0.03,0.04,0.05,0.05l0.08-0.04l0.15-0.08l0.29-0.15c0.19-0.09,0.37-0.22,0.55-0.34c0.33-0.27,0.68-0.71,0.84-1.04
							c0.26-0.54,0.38-1.06,0.47-1.56c0.08-0.42,0.13-0.83,0.18-1.23l-1.31-0.2l-0.06,0.88c-0.15,1.31-0.06,2.73,0.34,4.03
							c0.07,0.23,0.35,0.35,0.61,0.26c0.26-0.08,0.42-0.31,0.37-0.52c-0.29-1.2-0.28-2.42-0.05-3.67l0.11-0.79l-1.31-0.2
							c-0.08,0.39-0.15,0.77-0.24,1.13c-0.11,0.43-0.26,0.81-0.46,1.11c-0.12,0.15-0.15,0.1-0.2,0.1l-0.02-0.05l-0.01-0.02
							l-0.04-0.07c-0.17-0.26-0.35-0.52-0.53-0.8c-0.2-0.3-0.43-0.66-0.63-0.92c-0.17,0.16-0.36,0.33-0.57,0.53
							c-0.19,0.19-0.46,0.39-0.58,0.43c-0.12,0.07-0.27,0.12-0.44,0.16l0.88,0.55c-0.14-0.4-0.25-0.82-0.34-1.24
							c-0.04-0.21-0.08-0.42-0.11-0.63l-0.04-0.32c-0.02-0.19-0.04-0.39-0.06-0.59c-0.03-0.39-0.05-0.8-0.06-1.22l-0.01-0.64
							c0-0.21,0-0.46-0.04-0.56c-0.14-0.57-0.33-0.71-0.44-0.88l-0.07-0.08c-0.01-0.01-0.04-0.03-0.1-0.04
							c-0.04,0-0.02,0.01-0.03,0.01c-0.01,0.02-0.04,0.04-0.07,0.06c-0.05,0.05-0.14,0.12-0.28,0.19c-0.08,0.06-0.16,0.08-0.28,0.19
							l-0.19,0.17c-0.07,0.09-0.15,0.28-0.22,0.41c-0.08,0.31-0.16,0.52-0.24,0.73l-0.12,0.32l-0.12,0.24
							c-0.08,0.16-0.16,0.32-0.26,0.42l-0.14,0.18c-0.04,0.04-0.04,0.03-0.06,0.05c-0.08,0.07-0.13,0.06-0.2,0.03
							c-0.06-0.03-0.31-0.24-0.48-0.48c-0.19-0.25-0.39-0.54-0.59-0.83c-0.4-0.54-0.73-1.18-1.61-1.72
							c-0.49-0.28-1.02-0.31-1.37-0.32l-0.44-0.01c-0.01,0-0.02,0-0.03-0.01l-0.12-0.16c-0.12-0.17-0.26-0.34-0.43-0.5
							c-0.16-0.17-0.36-0.34-0.62-0.47c-0.25-0.14-0.57-0.23-0.83-0.25c-0.58-0.03-0.8,0.02-1.04-0.03
							c-0.23-0.04-0.55-0.18-0.75-0.32c-0.3-0.21-0.49-0.51-0.78-1.07c-0.43-0.84-1.04-1.33-1.65-1.75l-0.36,0.51
							c-0.19,0.28-0.37,0.55-0.53,0.86c-0.08,0.15-0.17,0.3-0.23,0.47c-0.07,0.17-0.1,0.24-0.14,0.37
							c-0.16,0.45-0.27,0.91-0.34,1.37c-0.18,1.14-0.16,2.28-0.16,3.38c0,0.22,0.22,0.41,0.49,0.42c0.27,0.01,0.5-0.15,0.52-0.38
							c0.1-1.12,0.1-2.24,0.26-3.25c0.07-0.4,0.15-0.79,0.3-1.16c0.02-0.08,0.09-0.21,0.1-0.24c0.02-0.03,0.04-0.08,0.06-0.11
							c0.04-0.07,0.09-0.14,0.13-0.2l0.09-0.1c0.15,0.07,0.26,0.31,0.31,0.45c0.17,0.41,0.47,1.12,1.02,1.59
							c0.4,0.33,0.77,0.54,1.28,0.7c0.5,0.15,1.04,0.12,1.22,0.16c0.16,0.04,0.21,0.08,0.39,0.27c0.08,0.09,0.17,0.2,0.25,0.32
							l0.19,0.29l0.27,0.44c0.31,0.08,0.62,0.16,0.95,0.18c0.28,0.01,0.4,0.01,0.57,0.01c0.32,0,0.49,0.02,0.59,0.08
							c0.29,0.13,0.72,0.64,1.1,1.15c0.22,0.28,0.44,0.58,0.71,0.89c0.29,0.3,0.55,0.64,1.17,0.91c0.54,0.22,1.19,0.07,1.61-0.27
							l0.13-0.1l0.02-0.02l0.03-0.04c0.02-0.03,0.04-0.05,0.06-0.08c0.06-0.09,0.09-0.18,0.11-0.2C195.94,90.26,196,90.1,196,90.2z"
							/>
					</g>
				</g>
			</g>
			<g>
				<path class="st10" d="M202.9,96.64c-0.26-3.04,1.14-4.93,2.57-4.2c1.01,0.52,1.52,2.35,1.58,3.82c0.11,2.51-1.41,4.24-2.8,3.5
					c-0.64-0.34-1.15-1.22-1.3-2.72C202.94,96.91,202.91,96.78,202.9,96.64z"/>
			</g>
		</g>
		<g>
			<g>
				<g>
					<g>
						<line class="st2" x1="182.11" y1="115.46" x2="183.35" y2="114.03"/>
					</g>
					<g>
						<line class="st2" x1="180.7" y1="119.25" x2="181.04" y2="117.38"/>
					</g>
					<g>
						<path class="st1" d="M181.52,121.34c0.01,0.07-0.04,0.13-0.11,0.13c-0.03,0-0.07,0-0.1-0.01c-0.04-0.01-0.04-0.01-0.2-0.06
							c-0.51-0.18-0.98-0.42-1.41-0.76c-0.47-0.33-0.87-0.64-1.19-0.92c-0.17-0.13-0.36-0.35-0.38-0.34
							c-0.05-0.03-0.09-0.11-0.06-0.17c0.02-0.05,0.05-0.09,0.1-0.13c0.1-0.06,0.24-0.12,0.39-0.16c0.59-0.17,1.32-0.2,2.01-0.14
							c0.12,0.01,0.26-0.2,0.31-0.47c0.05-0.27-0.02-0.5-0.16-0.53c-0.79-0.14-1.57-0.23-2.45-0.1c-0.23,0.04-0.46,0.1-0.72,0.21
							c-0.3,0.15-0.58,0.35-0.76,0.63c-0.27,0.39-0.3,0.9-0.15,1.37c0.21,0.55,0.42,0.79,0.67,1.08c0.45,0.45,0.98,0.8,1.6,1.09
							c0.57,0.24,1.15,0.47,1.74,0.67c0.11,0.04,0.38,0.13,0.62,0.18c0.24,0.06,0.48,0.08,0.71,0.06c0.44-0.02,0.87-0.31,1.02-0.73
							c0.07-0.13,0.06-0.31,0.08-0.46c0-0.16,0.05-0.32,0-0.49c-0.05-0.22-0.1-0.49-0.15-0.66l-0.17-0.44
							c-0.12-0.27-0.24-0.55-0.37-0.81c-0.25-0.53-0.51-1.02-0.76-1.5c-0.52-0.99-1.06-2.01-1.6-3.03
							c-0.08-0.18-0.19-0.36-0.25-0.54l-0.11-0.27l-0.06-0.13c-0.05-0.12-0.09-0.2-0.1-0.35c-0.03-0.09,0.02-0.1,0.08-0.1
							c0.05,0,0.11,0,0.17,0.01c0.04,0.01,0.09,0.02,0.14,0.03l0.07,0.03l0.15,0.07c0.21,0.1,0.41,0.21,0.61,0.33
							c0.5,0.31,1,0.68,1.51,1.04c0.1,0.07,0.33-0.03,0.5-0.24c0.18-0.2,0.24-0.44,0.15-0.53c-0.47-0.47-1.01-0.88-1.57-1.23
							c-0.23-0.14-0.46-0.27-0.7-0.39l-0.19-0.09l-0.28-0.12c-0.19-0.08-0.38-0.14-0.57-0.19c-0.27-0.07-0.52-0.1-0.78-0.13
							l-0.4-0.04c-0.09-0.04-0.08,0.06-0.1,0.11l-0.04,0.19c-0.07,0.25-0.1,0.51-0.13,0.78c-0.05,0.27-0.03,0.55,0,0.83
							c0.02,0.16,0.03,0.4,0.05,0.51l0.08,0.36c0.05,0.25,0.13,0.47,0.2,0.7c0.4,1.23,1.11,2.25,1.74,3.22
							c0.29,0.45,0.59,0.9,0.83,1.35c0.13,0.23,0.23,0.46,0.32,0.69l0.11,0.33c0.03,0.09,0.01,0.09,0.01,0.13
							C181.5,121.26,181.51,121.29,181.52,121.34z"/>
					</g>
				</g>
				<g>
					<g>
						<line class="st2" x1="182.05" y1="125.97" x2="183.94" y2="126.07"/>
					</g>
					<g>
						<line class="st2" x1="200.9" y1="133.05" x2="202.71" y2="132.49"/>
					</g>
					<g>
						<path class="st1" d="M196.22,127.2c0.02,0.09,0.05,0.27,0.08,0.5l0.05,0.41l0.1,0.69c0.07,0.46,0.16,0.91,0.26,1.37l0.14,0.66
							l0.74-0.11c0.24-0.03,0.5-0.09,0.75-0.17c0.03-0.01,0.07-0.01,0.09-0.02c0.02,0,0.02,0.04,0.03,0.06l0.01,0.03l0.01,0.02
							l0.07,0.11c0.17,0.27,0.38,0.6,0.56,0.86c0.2,0.21,0.39,0.41,0.59,0.61c0.38-0.12,0.77-0.36,1.11-0.6
							c0.34-0.27,0.64-0.7,0.82-1.05c0.25-0.53,0.36-1.05,0.45-1.54c0.07-0.41,0.12-0.81,0.17-1.19l-1.31-0.2l-0.06,0.89
							c-0.15,1.3-0.05,2.7,0.33,3.98c0.07,0.23,0.35,0.34,0.61,0.26c0.26-0.08,0.42-0.31,0.37-0.52c-0.28-1.19-0.28-2.39-0.05-3.63
							l0.11-0.8l-1.31-0.2c-0.07,0.38-0.15,0.75-0.24,1.1c-0.11,0.42-0.26,0.81-0.45,1.1c-0.1,0.13-0.14,0.09-0.18,0.09
							c-0.02-0.04-0.02-0.04-0.05-0.1c-0.17-0.26-0.35-0.53-0.53-0.81c-0.2-0.3-0.42-0.66-0.62-0.92c-0.16,0.15-0.35,0.32-0.54,0.51
							c-0.19,0.18-0.41,0.39-0.58,0.45c-0.13,0.07-0.27,0.12-0.44,0.17l0.88,0.55c-0.14-0.4-0.25-0.8-0.33-1.22
							c-0.04-0.21-0.08-0.41-0.11-0.62l-0.04-0.33c-0.02-0.19-0.04-0.38-0.05-0.58c-0.03-0.39-0.05-0.79-0.06-1.2l-0.01-0.63
							c-0.01-0.19,0.01-0.47-0.04-0.56c-0.14-0.57-0.33-0.71-0.44-0.88l-0.06-0.08c0.02-0.02-0.16-0.07-0.13-0.04
							c-0.01,0.02-0.03,0.05-0.06,0.06c-0.05,0.05-0.13,0.12-0.27,0.19c-0.09,0.06-0.15,0.08-0.29,0.19
							c-0.06,0.05-0.13,0.09-0.19,0.16l-0.23,0.43c-0.08,0.32-0.16,0.48-0.23,0.72c-0.08,0.24-0.16,0.4-0.24,0.55
							c-0.08,0.17-0.16,0.3-0.26,0.41L195,126.5l-0.06,0.05c-0.05,0.05-0.12,0.05-0.18,0.02c-0.03-0.01-0.29-0.23-0.45-0.46
							c-0.19-0.24-0.37-0.52-0.57-0.81c-0.39-0.54-0.71-1.17-1.57-1.72c-0.48-0.29-1.02-0.32-1.37-0.33l-0.42-0.01
							c-0.02,0-0.02,0-0.03-0.01l-0.11-0.16c-0.12-0.17-0.25-0.33-0.42-0.5c-0.16-0.16-0.36-0.33-0.61-0.47
							c-0.25-0.14-0.57-0.23-0.82-0.25c-0.57-0.03-0.79,0.02-1.02-0.03c-0.22-0.04-0.54-0.18-0.73-0.32
							c-0.3-0.23-0.46-0.48-0.78-1.1c-0.43-0.82-1.01-1.29-1.61-1.7l-0.36,0.52c-0.18,0.27-0.36,0.54-0.52,0.85
							c-0.16,0.28-0.31,0.67-0.37,0.84c-0.16,0.45-0.26,0.9-0.33,1.35c-0.17,1.13-0.16,2.25-0.15,3.33c0,0.22,0.22,0.4,0.49,0.42
							c0.27,0.01,0.5-0.15,0.52-0.38c0.1-1.1,0.1-2.21,0.26-3.21c0.06-0.4,0.15-0.78,0.29-1.15c0.08-0.23,0.1-0.25,0.14-0.33
							c0.04-0.07,0.09-0.14,0.13-0.2l0.09-0.1c0.15,0.07,0.25,0.3,0.3,0.44c0.13,0.33,0.44,1.08,0.97,1.54
							c0.39,0.34,0.76,0.55,1.26,0.71c0.5,0.16,1.04,0.12,1.21,0.17c0.15,0.04,0.19,0.08,0.37,0.27c0.08,0.09,0.16,0.2,0.24,0.32
							l0.19,0.29l0.27,0.44c0.31,0.08,0.62,0.17,0.94,0.18c0.3,0.02,0.41,0.01,0.58,0.01c0.31,0,0.46,0.03,0.56,0.08
							c0.29,0.14,0.71,0.65,1.08,1.15c0.21,0.27,0.42,0.56,0.68,0.86c0.28,0.3,0.52,0.62,1.15,0.9c0.53,0.21,1.14,0.09,1.58-0.25
							l0.12-0.09l0.02-0.02l0.03-0.04c0.02-0.03,0.04-0.05,0.06-0.08c0.06-0.09,0.1-0.19,0.11-0.21l0.03-0.13
							C196.21,127.13,196.21,127.2,196.22,127.2z"/>
					</g>
				</g>
			</g>
			<g>
				<path class="st10" d="M202.99,133.56c-0.25-3.01,1.12-4.88,2.51-4.16c0.99,0.51,1.49,2.33,1.55,3.79
					c0.1,2.49-1.38,4.2-2.74,3.47c-0.63-0.34-1.13-1.21-1.27-2.7C203.03,133.83,203,133.69,202.99,133.56z"/>
			</g>
		</g>
		<g>
			<g>
				<g>
					<g>
						<line class="st2" x1="181.93" y1="155.2" x2="183.09" y2="153.7"/>
					</g>
					<g>
						<line class="st2" x1="180.81" y1="158.85" x2="181.05" y2="156.97"/>
					</g>
					<g>
						<path class="st8" d="M181.63,160.67c0.01,0.16-0.15,0.15-0.32,0.1c-0.49-0.14-0.95-0.35-1.36-0.65
							c-0.46-0.29-0.85-0.56-1.16-0.81c-0.09-0.07-0.17-0.13-0.24-0.19c-0.09-0.08-0.06-0.02-0.1-0.06
							c-0.05-0.03-0.09-0.1-0.07-0.16c0.03-0.09,0.07-0.15,0.4-0.28c0.55-0.19,1.23-0.26,1.88-0.24c0.11,0.01,0.24-0.22,0.27-0.49
							s-0.04-0.5-0.18-0.52c-0.75-0.1-1.5-0.14-2.33,0.02c-0.23,0.05-0.4,0.09-0.71,0.25c-0.27,0.16-0.52,0.36-0.67,0.63
							c-0.24,0.38-0.24,0.86-0.1,1.29c0.05,0.12,0.09,0.23,0.16,0.35c0.08,0.12,0.14,0.22,0.19,0.29c0.11,0.15,0.23,0.28,0.36,0.41
							c0.45,0.41,0.97,0.71,1.58,0.95c0.56,0.19,1.12,0.38,1.68,0.55c0.4,0.12,0.92,0.23,1.32,0.16c0.4-0.05,0.79-0.34,0.92-0.73
							c0.06-0.13,0.05-0.28,0.06-0.43c0-0.15,0.04-0.29-0.01-0.46c-0.06-0.22-0.11-0.45-0.18-0.66l-0.2-0.44
							c-0.13-0.25-0.26-0.52-0.39-0.75c-0.26-0.49-0.54-0.94-0.8-1.38c-0.55-0.91-1.11-1.84-1.66-2.77
							c-0.09-0.16-0.19-0.33-0.26-0.49l-0.11-0.24l-0.05-0.07c-0.06-0.08-0.11-0.22-0.12-0.38c0.05-0.04,0.15-0.04,0.24-0.03
							c0.09,0.01,0.15,0.02,0.29,0.07c0.2,0.08,0.4,0.18,0.59,0.28c0.49,0.26,0.98,0.59,1.48,0.9c0.1,0.06,0.31-0.06,0.48-0.27
							c0.16-0.21,0.22-0.45,0.13-0.53c-0.46-0.42-1-0.78-1.55-1.09c-0.22-0.12-0.45-0.23-0.69-0.34c-0.3-0.13-0.7-0.27-1.05-0.34
							c-0.41-0.07-0.78-0.08-1.21-0.09c-0.04,0.29-0.09,0.59-0.1,0.88l-0.04,0.45c0.01,0.16,0.04,0.32,0.06,0.49
							c0.03,0.17,0.04,0.37,0.08,0.52l0.1,0.35c0.06,0.23,0.15,0.44,0.23,0.65c0.44,1.15,1.17,2.08,1.81,2.96
							c0.3,0.41,0.61,0.82,0.86,1.23c0.14,0.21,0.24,0.42,0.34,0.63l0.11,0.28c0.01,0.03,0,0.05,0,0.07
							C181.6,160.59,181.62,160.63,181.63,160.67z"/>
					</g>
				</g>
				<g>
					<g>
						<line class="st2" x1="182.38" y1="165.08" x2="184.28" y2="165.07"/>
					</g>
					<g>
						<line class="st2" x1="200.58" y1="170.82" x2="202.36" y2="170.17"/>
					</g>
					<g>
						<path class="st8" d="M195.61,163.21c0.15,1.63,0.39,3.41,0.86,5.1l0.18,0.64l0.73-0.14c0.22-0.04,0.48-0.11,0.69-0.19
							c0.04,0,0.06-0.01,0.07-0.01c0.01-0.01,0.02,0.04,0.03,0.05l0.01,0.03c0.02,0.03-0.04-0.06,0.09,0.13
							c0.2,0.26,0.39,0.58,0.59,0.78c0.2,0.18,0.39,0.36,0.59,0.53c0.16,0,0.36-0.19,0.52-0.26c0.17-0.1,0.33-0.22,0.49-0.34
							c0.31-0.27,0.56-0.64,0.75-1.04c0.24-0.59,0.3-1.04,0.36-1.53c0.05-0.39,0.07-0.77,0.1-1.14l-1.32-0.13l-0.01,0.84
							c-0.07,1.23,0.09,2.56,0.52,3.75c0.08,0.22,0.36,0.3,0.61,0.21c0.26-0.1,0.41-0.32,0.35-0.52c-0.32-1.11-0.38-2.24-0.22-3.41
							l0.06-0.75l-1.32-0.13c-0.05,0.37-0.1,0.72-0.17,1.05c-0.07,0.38-0.22,0.81-0.35,1.01c-0.06,0.06-0.12,0.07-0.16,0.05
							c-0.02-0.03-0.03-0.05-0.05-0.08c-0.17-0.23-0.35-0.47-0.53-0.72c-0.21-0.27-0.43-0.61-0.64-0.84
							c-0.29,0.27-0.67,0.77-1.04,0.99c-0.12,0.07-0.24,0.13-0.4,0.18l0.91,0.5c-0.62-1.47-0.75-3.09-0.8-4.73l-0.01-0.24l0-0.03
							c0,0-0.02-0.16-0.05-0.23c-0.07-0.18-0.15-0.34-0.46-0.5c-0.14-0.07-0.51-0.13-0.79,0.1c-0.26,0.21-0.28,0.43-0.3,0.5
							l-0.01,0.05l-0.1,0.42c-0.1,0.49-0.25,0.99-0.47,1.38c-0.27,0.45-0.34,0.42-0.44,0.39c0,0-0.25-0.19-0.42-0.4
							c-0.19-0.22-0.37-0.47-0.57-0.73c-0.4-0.49-0.73-1.07-1.59-1.56c-0.48-0.25-1-0.25-1.33-0.25l-0.37,0.01
							c-0.01,0-0.02,0-0.03,0l-0.1-0.13c-0.12-0.15-0.26-0.3-0.42-0.45c-0.16-0.15-0.36-0.3-0.61-0.42
							c-0.25-0.12-0.56-0.19-0.81-0.2c-0.55,0-0.75,0.06-0.96,0.03c-0.21-0.03-0.51-0.14-0.69-0.25c-0.14-0.09-0.26-0.2-0.38-0.35
							c-0.06-0.07-0.12-0.17-0.18-0.26l-0.27-0.44c-0.46-0.73-1.03-1.12-1.61-1.48l-0.31,0.5c-0.32,0.5-0.61,1.12-0.78,1.68
							c-0.13,0.43-0.2,0.87-0.24,1.3c-0.11,1.08-0.04,2.14,0.03,3.16c0.01,0.21,0.24,0.37,0.51,0.37c0.27,0,0.49-0.17,0.5-0.38
							c0.05-1.05-0.01-2.09,0.09-3.04c0.04-0.38,0.1-0.74,0.21-1.09c0.07-0.21,0.12-0.31,0.21-0.44l0.08-0.1
							c0.15,0.05,0.26,0.28,0.31,0.41l0.02,0.05l0.08,0.17c0.06,0.12,0.13,0.25,0.21,0.38c0.16,0.26,0.39,0.53,0.65,0.75
							c0.4,0.3,0.76,0.48,1.24,0.62c0.48,0.12,1,0.07,1.16,0.1c0.13,0.03,0.16,0.06,0.34,0.22c0.08,0.08,0.16,0.18,0.24,0.28
							l0.2,0.28l0.27,0.4c0.29,0.06,0.59,0.13,0.9,0.13l0.34,0l0.23-0.01c0.3-0.01,0.43,0,0.52,0.04c0.26,0.1,0.69,0.56,1.07,1.01
							c0.21,0.25,0.43,0.51,0.69,0.78c0.28,0.27,0.52,0.56,1.16,0.81c0.47,0.14,1.01,0.07,1.41-0.23c0.43-0.32,0.58-0.6,0.76-0.9
							c0.33-0.59,0.52-1.16,0.68-1.74l0.1-0.51l0.01-0.06l0,0l0,0l-0.69-0.12l-0.02,0c-0.01,0-0.02-0.01-0.02-0.01
							c-0.01-0.01,0,0,0,0.01c-0.01,0.03-0.03,0.04-0.03,0.04l-0.67,0.05l0,0.03L195.61,163.21z"/>
					</g>
				</g>
			</g>
			<g>
				<path class="st10" d="M202.63,171.18c-0.39-2.83,0.81-4.67,2.17-4.05c0.96,0.43,1.52,2.12,1.66,3.5
					c0.22,2.34-1.09,4.03-2.42,3.41c-0.61-0.29-1.13-1.08-1.34-2.48C202.68,171.43,202.65,171.31,202.63,171.18z"/>
			</g>
		</g>
		<g>
			<g>
				<g>
					<line class="st2" x1="162.51" y1="169.05" x2="163.13" y2="168.34"/>
				</g>
				<g>
					<line class="st2" x1="109.67" y1="121.84" x2="109.05" y2="122.56"/>
				</g>
				<g>
					<path class="st5" d="M125.74,135.93c-0.99-0.84-1.99-1.69-2.97-2.54l-4.28-3.68c-2.7-2.32-5.4-4.64-8.1-6.96
						c-0.48-0.41-0.94-0.65-1.02-0.55c-0.09,0.1,0.22,0.52,0.69,0.93c2.69,2.36,5.38,4.73,8.06,7.1l4.19,3.69
						c0.98,0.86,1.95,1.73,2.93,2.6l0.68,0.61c4.18,3.53,8.38,7.22,12.44,10.79l2.11,1.85l1.39,1.18c2.53,2.16,5.07,4.33,7.6,6.51
						c1.82,1.56,3.63,3.14,5.44,4.71c2.26,1.96,4.6,4,6.92,5.98c0.47,0.4,0.92,0.64,1,0.54c0.09-0.1-0.21-0.51-0.67-0.92
						c-2.29-2.03-4.63-4.07-6.9-6.04c-1.81-1.57-3.61-3.14-5.42-4.73c-2.51-2.2-5.02-4.42-7.52-6.64L141,149.2l-2.15-1.85
						c-4.09-3.53-8.33-7.17-12.43-10.84L125.74,135.93z"/>
				</g>
			</g>
			<g>
				<g>
					<line class="st2" x1="213.15" y1="188.53" x2="213.86" y2="187.91"/>
				</g>
				<g>
					<line class="st2" x1="167.83" y1="134.45" x2="167.11" y2="135.06"/>
				</g>
				<g>
					<path class="st1" d="M181.65,150.63c-0.86-0.97-1.72-1.95-2.57-2.93l-3.69-4.23c-2.33-2.67-4.66-5.34-6.99-8.02
						c-0.41-0.47-0.83-0.78-0.93-0.69c-0.1,0.09,0.14,0.54,0.55,1.02c2.31,2.71,4.62,5.43,6.93,8.15l3.6,4.23
						c0.84,0.99,1.68,1.98,2.51,2.98l0.59,0.7c3.62,4.08,7.23,8.31,10.72,12.41l1.82,2.13l1.2,1.36c2.19,2.49,4.37,4.99,6.56,7.5
						c1.57,1.8,3.13,3.61,4.69,5.42c1.95,2.26,3.96,4.59,5.97,6.88c0.41,0.47,0.81,0.76,0.91,0.67c0.1-0.09-0.13-0.53-0.53-1
						c-1.97-2.33-3.98-4.67-5.93-6.94c-1.56-1.81-3.11-3.62-4.66-5.44c-2.16-2.53-4.31-5.07-6.46-7.61l-1.13-1.34l-1.85-2.13
						c-3.53-4.06-7.18-8.26-10.7-12.46L181.65,150.63z"/>
				</g>
			</g>
			<g>
				<g>
					<line class="st2" x1="163.04" y1="133.54" x2="162.6" y2="132.7"/>
				</g>
				<g>
					<line class="st2" x1="110.64" y1="160.18" x2="111.09" y2="161.02"/>
				</g>
				<g>
					<path class="st5" d="M126.35,151.97c-0.95,0.52-1.9,1.04-2.85,1.55l-4.12,2.22c-2.6,1.4-5.2,2.8-7.8,4.2
						c-0.46,0.25-0.78,0.55-0.71,0.67s0.48,0.02,0.95-0.22c2.63-1.37,5.27-2.74,7.91-4.11l4.11-2.13c0.96-0.5,1.92-0.99,2.89-1.48
						l0.68-0.34c3.97-2.19,8.09-4.34,12.06-6.41l2.07-1.08l1.32-0.73c2.43-1.32,4.86-2.64,7.3-3.94c1.75-0.94,3.51-1.88,5.27-2.81
						c2.2-1.16,4.47-2.36,6.69-3.57c0.45-0.25,0.76-0.54,0.7-0.65c-0.06-0.12-0.47-0.03-0.93,0.21c-2.26,1.16-4.53,2.37-6.73,3.53
						c-1.76,0.93-3.51,1.86-5.28,2.78c-2.46,1.29-4.92,2.56-7.39,3.83l-1.3,0.66l-2.07,1.11c-3.95,2.12-8.04,4.31-12.11,6.38
						L126.35,151.97z"/>
				</g>
			</g>
			<g>
				<g>
					<line class="st2" x1="213.5" y1="158.24" x2="213.25" y2="157.33"/>
				</g>
				<g>
					<line class="st2" x1="167.16" y1="169.76" x2="167.41" y2="170.68"/>
				</g>
				<g>
					<path class="st1" d="M181.08,166.09c-0.84,0.24-1.69,0.49-2.53,0.72l-3.66,1.03c-2.31,0.65-4.62,1.29-6.93,1.94
						c-0.41,0.11-0.71,0.32-0.67,0.45c0.04,0.13,0.39,0.15,0.8,0.04c2.33-0.61,4.67-1.22,7.01-1.82l3.64-0.94
						c0.85-0.22,1.7-0.44,2.56-0.65l0.6-0.15c3.54-1.04,7.18-1.99,10.71-2.91l1.83-0.48l1.18-0.34c2.16-0.61,4.32-1.23,6.49-1.83
						c1.56-0.44,3.12-0.86,4.68-1.28c1.95-0.53,3.96-1.07,5.94-1.63c0.4-0.11,0.69-0.31,0.66-0.44s-0.38-0.15-0.79-0.05
						c-2,0.51-4.02,1.05-5.97,1.58c-1.56,0.42-3.12,0.84-4.69,1.25c-2.18,0.57-4.36,1.13-6.54,1.69l-1.15,0.29l-1.84,0.51
						c-3.51,0.97-7.14,1.98-10.74,2.87L181.08,166.09z"/>
				</g>
			</g>
		</g>
	</g>
	<g>
		<path class="st0" d="M63.04,242.24l22.59-32.88c8.49-5.55,18.64-14.03,18.64-34.43c0-11.07-4.1-18.36-4.1-26.63
			c0-11.21,10.42-15.67,10.42-32.21c0-4.44-0.87-9.13-2.76-13.1c-2.64-5.54-10.54-5.63-13.19-0.09
			c-6.61,13.82-1.43,28.95-25.68,44.15l-1.77,42.81l-16.32,32.11L63.04,242.24z"/>
	</g>
	<g>
		<g>
			<line class="st2" x1="95.49" y1="103.31" x2="93.78" y2="102.49"/>
		</g>
		<g>
			<line class="st2" x1="68.45" y1="146.24" x2="69.46" y2="147.85"/>
		</g>
		<g>
			<path class="st3" d="M84.29,131.43c-0.53,1.05-1.26,1.99-1.96,2.97c-0.66,1-1.56,1.83-2.39,2.69c-0.86,0.97-1.79,1.7-2.57,2.49
				c-0.44,0.43-0.85,0.89-1.3,1.32l-1.29,1.12l-1.89,1.59c-1.25,0.93-2.53,1.83-3.8,2.74c-0.23,0.16-0.29,0.48-0.14,0.71
				c0.14,0.23,0.45,0.29,0.68,0.14l4.03-2.59l2-1.5l1.42-1.03c0.51-0.39,0.98-0.82,1.46-1.24c0.83-0.79,1.76-1.57,2.59-2.67
				c0.74-0.99,1.61-1.88,2.31-2.92c0.72-1.01,1.53-1.96,2.13-3.03l0.67-1.08l0.43-0.78l0.38-0.81l0.77-1.61
				c0.5-1.07,0.91-2.18,1.36-3.26c0.83-2.35,1.59-4.83,2.03-7.31l0.52-2.75c0.27-1.45,0.54-2.89,0.9-4.31
				c0.26-1.02,0.51-2.04,0.87-3.03c0.22-0.61,0.4-1.26,0.65-1.87c0.25-0.62,0.5-1.24,0.74-1.86c0.1-0.25-0.03-0.55-0.27-0.66
				c-0.24-0.12-0.53-0.01-0.65,0.24c-0.3,0.62-0.58,1.25-0.86,1.88c-0.27,0.63-0.46,1.29-0.69,1.92c-0.37,1.01-0.63,2.05-0.95,3.07
				c-0.41,1.43-0.8,2.87-1.19,4.3c-0.24,0.9-0.48,1.79-0.72,2.68c-0.63,2.42-1.25,4.84-1.94,7.15c-0.39,1.05-0.73,2.14-1.19,3.18
				l-0.73,1.54l-0.38,0.76c-0.14,0.24-0.3,0.48-0.45,0.72L84.29,131.43z"/>
		</g>
	</g>
	<g>
		<path class="st1" d="M374.04,207.66c0-50.72,4.96-156.1,4.96-156.1l-36.72,9.21l-118.81,143.9L374.04,207.66z"/>
	</g>
	<g>
		<path class="st6" d="M18.79,222.14l20.62-22.7c0.83-0.09,1.66-0.13,2.48-0.13c13.58,0,25.19,12.04,28.88,26.1
			c1.15,4.39,1.19,8.79,1.34,13.19L56.4,261.52"/>
	</g>
	<g>
		<g>
			<polygon class="st4" points="372.04,204.66 223.47,204.66 223.47,81.61 372.04,46.14 			"/>
		</g>
		<g>
			<defs>
				<path id="SVGID_1_" d="M330.76,82.15c0,7.41-4.64,14.24-10.26,15.22c-5.52,0.97-9.93-4.08-9.93-11.25s4.4-13.95,9.93-15.16
					C326.13,69.74,330.76,74.74,330.76,82.15z"/>
			</defs>
			<use xlink:href="#SVGID_1_"  style="overflow:visible;fill:#005AA4;"/>
			<clipPath id="SVGID_00000119076919210966717300000009979566369414613136_">
				<use xlink:href="#SVGID_1_"  style="overflow:visible;"/>
			</clipPath>
			<g style="clip-path:url(#SVGID_00000119076919210966717300000009979566369414613136_);">
				<polygon class="st12" points="320.5,84.17 320.5,101.7 332.45,90.75 				"/>
			</g>
			<g style="clip-path:url(#SVGID_00000119076919210966717300000009979566369414613136_);">
				<polygon class="st1" points="335.67,75.08 320.5,63.95 320.5,84.17 330.6,95.39 				"/>
			</g>
		</g>
		<g>
			<defs>
				<path id="SVGID_00000151503110591721420810000009465217461894668938_" d="M303.99,87.42c0,7.09-4.25,13.59-9.4,14.49
					c-5.07,0.89-9.11-3.98-9.11-10.85c0-6.87,4.04-13.33,9.11-14.44C299.74,75.5,303.99,80.32,303.99,87.42z"/>
			</defs>
			<use xlink:href="#SVGID_00000151503110591721420810000009465217461894668938_"  style="overflow:visible;fill:#005AA4;"/>
			<clipPath id="SVGID_00000072260297419175424370000001725122028551642295_">
				<use xlink:href="#SVGID_00000151503110591721420810000009465217461894668938_"  style="overflow:visible;"/>
			</clipPath>
			<g style="clip-path:url(#SVGID_00000072260297419175424370000001725122028551642295_);">
				<path class="st1" d="M294.59,76.63v12.64l12.18-2.4C306.77,86.87,307.63,68.17,294.59,76.63"/>
			</g>
		</g>
		<g>
			<g>
				<polygon class="st7" points="360.06,99.66 285.48,111.67 285.48,135.47 334.46,141.93 352.72,136.59 360.06,124.77 				"/>
			</g>
			<g>
				<path class="st1" d="M285.48,149.33l74.58-7.15v-17.41c-4.11,5.56-9.91,8.05-15.95,8.72c-13.18,1.47-29.58-6.93-44.82-4.97
					c-5.3,0.68-10.11,2.68-13.81,6.94V149.33z"/>
			</g>
			<g>
				<path class="st6" d="M337.65,120.25c0,5.98-3.79,11.27-8.4,11.81c-4.54,0.53-8.17-3.77-8.17-9.59c0-5.82,3.63-11.09,8.17-11.78
					C333.86,109.99,337.65,114.26,337.65,120.25z"/>
			</g>
			<g>
				<g>
					<line class="st2" x1="290.15" y1="115.64" x2="290.43" y2="117.52"/>
				</g>
				<g>
					<line class="st2" x1="310.72" y1="114.45" x2="310.44" y2="112.57"/>
				</g>
				<g>
					<path class="st5" d="M304.58,115.21c0.37-0.09,0.74-0.17,1.11-0.24l1.6-0.32c1.01-0.2,2.03-0.4,3.04-0.59
						c0.18-0.03,0.29-0.29,0.25-0.56c-0.04-0.27-0.22-0.47-0.4-0.45c-1.03,0.12-2.06,0.23-3.1,0.34l-1.61,0.17
						c-0.38,0.04-0.75,0.07-1.13,0.1l-0.27,0.01c-1.54,0.4-3.15,0.58-4.71,0.76l-0.81,0.1l-0.51,0.12c-0.95,0.2-1.89,0.41-2.84,0.58
						c-0.68,0.13-1.37,0.24-2.06,0.34c-0.86,0.13-1.74,0.27-2.61,0.46c-0.18,0.04-0.28,0.28-0.24,0.55
						c0.04,0.27,0.21,0.46,0.39,0.45c0.89-0.08,1.77-0.21,2.63-0.34c0.69-0.1,1.37-0.2,2.07-0.28c0.96-0.12,1.93-0.21,2.89-0.29
						l0.51-0.03l0.81-0.15c1.54-0.29,3.13-0.58,4.73-0.66L304.58,115.21z"/>
				</g>
			</g>
			<g>
				<g>
					<line class="st2" x1="290.16" y1="119.78" x2="290.43" y2="121.65"/>
				</g>
				<g>
					<line class="st2" x1="304.79" y1="119.58" x2="304.52" y2="117.71"/>
				</g>
				<g>
					<path class="st5" d="M300.44,120.04c0.26-0.07,0.52-0.13,0.78-0.19l1.13-0.24c0.72-0.15,1.43-0.3,2.15-0.44
						c0.13-0.02,0.2-0.27,0.16-0.54c-0.04-0.27-0.17-0.47-0.3-0.46c-0.73,0.07-1.46,0.13-2.2,0.19l-1.14,0.09
						c-0.27,0.02-0.54,0.03-0.8,0.04l-0.19,0c-1.09,0.32-2.23,0.43-3.33,0.53l-0.57,0.06l-0.36,0.1c-0.67,0.16-1.33,0.31-2.01,0.43
						c-0.48,0.1-0.97,0.17-1.46,0.24c-0.61,0.09-1.23,0.18-1.85,0.33c-0.12,0.03-0.19,0.27-0.15,0.53c0.04,0.27,0.17,0.47,0.3,0.46
						c0.63-0.03,1.26-0.12,1.87-0.21c0.49-0.07,0.97-0.14,1.46-0.18c0.68-0.07,1.37-0.11,2.05-0.15l0.36-0.01l0.57-0.11
						c1.09-0.21,2.21-0.43,3.35-0.43L300.44,120.04z"/>
				</g>
			</g>
		</g>
		<g>
			<polygon class="st7" points="316.55,195.12 285.48,195.61 285.48,157.95 316.55,155.44 			"/>
		</g>
		<g>
			<polygon class="st6" points="360.06,184.44 324.51,185.54 324.51,154.79 360.06,151.92 			"/>
		</g>
		<g>
			<path class="st1" d="M285.48,195.61c5.51-3.01,9.49-10.55,9.49-19.29c0-8.74-3.98-15.89-9.49-18.37V195.61z"/>
		</g>
		<g>
			<g>
				<line class="st2" x1="297.32" y1="161.94" x2="297.45" y2="163.83"/>
			</g>
			<g>
				<line class="st2" x1="312.77" y1="162.75" x2="312.64" y2="160.86"/>
			</g>
			<g>
				<path class="st5" d="M308.14,162.91c0.28-0.05,0.56-0.1,0.84-0.13l1.21-0.16c0.77-0.1,1.53-0.2,2.3-0.29
					c0.14-0.02,0.23-0.26,0.21-0.53c-0.02-0.27-0.14-0.48-0.28-0.48c-0.78,0.02-1.55,0.03-2.33,0.04l-1.21,0.01
					c-0.28,0-0.57-0.01-0.85-0.02l-0.2-0.01c-1.17,0.24-2.38,0.27-3.56,0.3l-0.61,0.02l-0.39,0.07c-0.72,0.11-1.43,0.22-2.15,0.3
					c-0.52,0.07-1.04,0.1-1.55,0.14c-0.65,0.05-1.32,0.1-1.97,0.2c-0.13,0.02-0.22,0.25-0.2,0.52c0.02,0.27,0.14,0.48,0.28,0.48
					c0.67,0.01,1.34-0.04,1.99-0.08c0.52-0.04,1.04-0.07,1.56-0.08c0.72-0.03,1.45-0.02,2.18-0.01l0.38,0.02l0.61-0.07
					c1.16-0.14,2.37-0.28,3.57-0.2L308.14,162.91z"/>
			</g>
		</g>
		<g>
			<g>
				<line class="st2" x1="297.33" y1="166.93" x2="297.45" y2="168.82"/>
			</g>
			<g>
				<line class="st2" x1="308.18" y1="168.15" x2="308.06" y2="166.26"/>
			</g>
			<g>
				<path class="st5" d="M304.93,168.19c0.2-0.04,0.39-0.08,0.59-0.11l0.85-0.13c0.54-0.08,1.07-0.16,1.61-0.23
					c0.1-0.01,0.16-0.25,0.14-0.52s-0.11-0.49-0.2-0.49c-0.54,0-1.09-0.01-1.64-0.03l-0.85-0.02c-0.2,0-0.4-0.02-0.6-0.04
					l-0.14-0.02c-0.82,0.21-1.67,0.21-2.49,0.21l-0.43,0l-0.27,0.06c-0.5,0.09-1,0.18-1.51,0.24c-0.36,0.05-0.73,0.08-1.09,0.1
					c-0.45,0.03-0.92,0.06-1.38,0.15c-0.09,0.02-0.15,0.25-0.14,0.52c0.02,0.27,0.1,0.48,0.2,0.49c0.47,0.03,0.94,0,1.39-0.03
					c0.36-0.02,0.73-0.04,1.09-0.04c0.51-0.01,1.02,0.02,1.53,0.05l0.27,0.03l0.43-0.05c0.82-0.11,1.66-0.21,2.5-0.11L304.93,168.19
					z"/>
			</g>
		</g>
		<g>
			<path class="st7" d="M360.06,178.97c-2.2,2.43-5.67,3.74-8.38,3.83c-7.59,0.26-13.84-7.34-20.47-7.03
				c-2.17,0.1-4.39,1.05-6.7,3.41V195l35.55-0.56V178.97z"/>
		</g>
		<g>
			<defs>
				<path id="SVGID_00000108990689560288990660000005632883977970186650_" d="M360.06,76.39c0,7.76-5.08,14.94-11.24,16.02
					c-6.04,1.06-10.86-4.18-10.86-11.68c0-7.5,4.82-14.63,10.86-15.95C354.98,63.44,360.06,68.63,360.06,76.39z"/>
			</defs>
			<use xlink:href="#SVGID_00000108990689560288990660000005632883977970186650_"  style="overflow:visible;fill:#005AA4;"/>
			<clipPath id="SVGID_00000029762850335622430370000011540051366886336661_">
				<use xlink:href="#SVGID_00000108990689560288990660000005632883977970186650_"  style="overflow:visible;"/>
			</clipPath>
			<g style="clip-path:url(#SVGID_00000029762850335622430370000011540051366886336661_);">
				<polygon class="st12" points="348.82,78.6 348.82,96.93 361.91,85.38 				"/>
			</g>
			<g style="clip-path:url(#SVGID_00000029762850335622430370000011540051366886336661_);">
				<polygon class="st1" points="365.43,68.93 348.82,57.44 348.82,78.6 359.87,86.45 				"/>
			</g>
			<g style="clip-path:url(#SVGID_00000029762850335622430370000011540051366886336661_);">
				<polygon class="st5" points="348.82,78.6 364.54,75.51 359.87,90.25 				"/>
			</g>
		</g>
		<g>
			<polygon class="st9" points="278.49,186.97 251.09,187.82 251.09,160.73 278.49,158.52 			"/>
		</g>
		<g>
			<path class="st7" d="M278.49,182.19c-1.69,2.12-4.35,3.25-6.42,3.32c-5.83,0.2-10.65-6.5-15.78-6.26
				c-1.68,0.08-3.4,0.9-5.19,2.97v13.93l27.4-0.43V182.19z"/>
		</g>
		<g>
			<g>
				<g>
					<line class="st2" x1="252.66" y1="191.32" x2="254.2" y2="192.44"/>
				</g>
				<g>
					<line class="st2" x1="276.7" y1="161.48" x2="275.17" y2="160.37"/>
				</g>
				<g>
					<path class="st6" d="M267.07,174.4c0.97-1.43,1.98-2.91,3.14-4.24c0.61-0.74,1.13-1.43,1.59-2.1c0.25-0.38,0.49-0.76,0.74-1.15
						c0.22-0.35,0.44-0.71,0.67-1.06l1-1.5c0.63-0.95,1.26-1.9,1.91-2.84c0.11-0.17,0.02-0.43-0.2-0.59s-0.49-0.16-0.62,0
						c-0.7,0.91-1.41,1.81-2.13,2.7l-1.11,1.4c-0.26,0.33-0.53,0.65-0.8,0.97c-0.29,0.35-0.59,0.7-0.87,1.06
						c-0.49,0.65-0.99,1.35-1.51,2.17c-0.9,1.51-2,2.92-3.06,4.29l-0.55,0.71c-0.92,1.39-1.97,2.74-2.99,4.04
						c-1.09,1.4-2.22,2.85-3.2,4.38c-0.37,0.56-0.74,1.13-1.11,1.7c-0.58,0.9-1.16,1.79-1.77,2.67c-0.43,0.64-0.88,1.26-1.33,1.88
						c-0.56,0.78-1.14,1.58-1.67,2.4c-0.11,0.17-0.02,0.43,0.2,0.59s0.49,0.16,0.61,0.01c0.62-0.76,1.21-1.56,1.77-2.34
						c0.45-0.62,0.9-1.24,1.38-1.84c0.65-0.85,1.33-1.68,2-2.51c0.42-0.52,0.85-1.04,1.26-1.56c1.15-1.41,2.18-2.93,3.17-4.4
						c0.93-1.37,1.88-2.78,2.92-4.08L267.07,174.4z"/>
				</g>
			</g>
			<g>
				<g>
					<line class="st2" x1="275.19" y1="191.94" x2="276.68" y2="190.77"/>
				</g>
				<g>
					<line class="st2" x1="254.18" y1="162.08" x2="252.69" y2="163.24"/>
				</g>
				<g>
					<path class="st6" d="M263.5,174.27c-1.06-1.26-2.15-2.57-3.06-3.99c-0.52-0.75-1.02-1.41-1.51-2.01
						c-0.28-0.33-0.57-0.65-0.86-0.97c-0.27-0.29-0.54-0.59-0.79-0.89l-1.12-1.31c-0.71-0.83-1.41-1.65-2.11-2.48
						c-0.12-0.15-0.4-0.12-0.62,0.04c-0.21,0.17-0.29,0.43-0.18,0.58c0.65,0.88,1.28,1.77,1.92,2.66l0.99,1.38
						c0.23,0.32,0.45,0.65,0.68,0.99c0.24,0.36,0.48,0.72,0.74,1.07c0.47,0.62,0.98,1.26,1.6,1.95c1.16,1.21,2.16,2.59,3.14,3.92
						l0.51,0.69c1.04,1.21,2,2.52,2.93,3.79c1,1.37,2.03,2.78,3.17,4.08c0.42,0.49,0.84,0.97,1.27,1.45c0.67,0.76,1.35,1.53,2,2.31
						c0.47,0.56,0.93,1.13,1.38,1.71c0.56,0.72,1.15,1.46,1.77,2.16c0.13,0.14,0.4,0.12,0.61-0.05c0.21-0.17,0.29-0.42,0.18-0.57
						c-0.53-0.77-1.11-1.51-1.68-2.24c-0.45-0.58-0.9-1.15-1.33-1.75c-0.61-0.82-1.19-1.66-1.77-2.49c-0.36-0.53-0.73-1.05-1.1-1.57
						c-0.99-1.42-2.12-2.76-3.21-4.06c-1.01-1.2-2.06-2.45-2.98-3.74L263.5,174.27z"/>
				</g>
			</g>
		</g>
		<g>
			<g>
				<g>
					<line class="st2" x1="256.4" y1="92.31" x2="256.02" y2="90.46"/>
				</g>
				<g>
					<line class="st2" x1="229.32" y1="95.98" x2="229.7" y2="97.83"/>
				</g>
				<g>
					<path class="st7" d="M237.4,94.47c-0.49,0.13-0.97,0.26-1.46,0.38l-2.11,0.51c-1.33,0.32-2.67,0.65-4,0.96
						c-0.24,0.06-0.38,0.32-0.32,0.59c0.05,0.27,0.29,0.44,0.53,0.4c1.36-0.24,2.72-0.48,4.08-0.71l2.12-0.36
						c0.5-0.09,0.99-0.16,1.49-0.23l0.35-0.05c2.03-0.58,4.15-0.96,6.2-1.33l1.06-0.19l0.68-0.19c1.24-0.32,2.49-0.63,3.74-0.92
						c0.9-0.22,1.8-0.4,2.71-0.59c1.13-0.24,2.29-0.48,3.44-0.77c0.23-0.06,0.37-0.32,0.32-0.58c-0.05-0.26-0.28-0.44-0.52-0.4
						c-1.17,0.18-2.34,0.42-3.47,0.66c-0.9,0.19-1.81,0.37-2.72,0.53c-1.27,0.24-2.54,0.44-3.81,0.64l-0.67,0.09l-1.06,0.25
						c-2.03,0.47-4.12,0.96-6.23,1.24L237.4,94.47z"/>
				</g>
			</g>
			<g>
				<g>
					<line class="st2" x1="250.64" y1="97.61" x2="250.27" y2="95.76"/>
				</g>
				<g>
					<line class="st2" x1="229.32" y1="99.93" x2="229.69" y2="101.78"/>
				</g>
				<g>
					<path class="st7" d="M235.67,98.83c-0.38,0.11-0.76,0.21-1.14,0.3l-1.65,0.4c-1.04,0.26-2.09,0.51-3.13,0.75
						c-0.19,0.04-0.29,0.3-0.24,0.57s0.25,0.45,0.43,0.42c1.07-0.18,2.13-0.34,3.2-0.51l1.66-0.26c0.39-0.06,0.78-0.11,1.17-0.16
						l0.28-0.03c1.59-0.48,3.25-0.75,4.86-1.02l0.84-0.14l0.53-0.15c0.97-0.25,1.95-0.51,2.93-0.73c0.7-0.17,1.41-0.31,2.12-0.45
						c0.88-0.18,1.8-0.36,2.69-0.6c0.18-0.05,0.28-0.3,0.23-0.56c-0.05-0.26-0.24-0.45-0.43-0.42c-0.92,0.13-1.83,0.31-2.72,0.48
						c-0.71,0.14-1.42,0.28-2.13,0.39c-0.99,0.17-1.99,0.31-2.99,0.45l-0.53,0.06l-0.83,0.19c-1.59,0.37-3.23,0.75-4.89,0.92
						L235.67,98.83z"/>
				</g>
			</g>
		</g>
		<g>
			<g>
				<g>
					<line class="st2" x1="256.35" y1="123.7" x2="256.07" y2="121.83"/>
				</g>
				<g>
					<line class="st2" x1="229.37" y1="125.82" x2="229.65" y2="127.69"/>
				</g>
				<g>
					<path class="st7" d="M237.45,124.78c-0.49,0.1-0.97,0.2-1.46,0.29l-2.12,0.39c-1.34,0.25-2.67,0.49-4.01,0.73
						c-0.24,0.04-0.39,0.3-0.35,0.57c0.04,0.27,0.26,0.46,0.5,0.43c1.35-0.17,2.71-0.32,4.07-0.48l2.11-0.24
						c0.49-0.06,0.99-0.1,1.49-0.15l0.35-0.03c2.04-0.47,4.15-0.73,6.2-0.98l1.06-0.13l0.68-0.15c1.25-0.25,2.49-0.49,3.75-0.71
						c0.9-0.16,1.81-0.3,2.71-0.44c1.13-0.17,2.3-0.35,3.44-0.57c0.23-0.05,0.38-0.3,0.34-0.56s-0.26-0.46-0.49-0.43
						c-1.16,0.12-2.33,0.29-3.46,0.46c-0.9,0.13-1.81,0.27-2.72,0.37c-1.26,0.16-2.53,0.29-3.8,0.42l-0.67,0.06l-1.06,0.19
						c-2.03,0.36-4.13,0.73-6.22,0.88L237.45,124.78z"/>
				</g>
			</g>
			<g>
				<g>
					<line class="st2" x1="256.34" y1="127.86" x2="256.08" y2="125.98"/>
				</g>
				<g>
					<line class="st2" x1="229.37" y1="129.77" x2="229.64" y2="131.64"/>
				</g>
				<g>
					<path class="st7" d="M237.45,128.79c-0.49,0.1-0.97,0.2-1.46,0.28l-2.12,0.37c-1.34,0.24-2.67,0.47-4.01,0.7
						c-0.24,0.04-0.39,0.3-0.36,0.57c0.04,0.27,0.26,0.46,0.5,0.43c1.35-0.16,2.71-0.3,4.07-0.45l2.11-0.23
						c0.49-0.05,0.99-0.09,1.49-0.13l0.35-0.02c2.04-0.45,4.15-0.69,6.2-0.93l1.06-0.12l0.68-0.14c1.25-0.24,2.49-0.47,3.75-0.68
						c0.9-0.16,1.81-0.29,2.71-0.42c1.13-0.16,2.3-0.33,3.44-0.55c0.23-0.04,0.39-0.3,0.35-0.56c-0.04-0.27-0.25-0.46-0.49-0.44
						c-1.16,0.11-2.33,0.27-3.46,0.43c-0.9,0.13-1.81,0.25-2.72,0.35c-1.26,0.15-2.53,0.27-3.8,0.39l-0.67,0.05l-1.06,0.18
						c-2.03,0.34-4.13,0.7-6.22,0.83L237.45,128.79z"/>
				</g>
			</g>
			<g>
				<g>
					<line class="st2" x1="253.56" y1="132.38" x2="253.3" y2="130.51"/>
				</g>
				<g>
					<line class="st2" x1="229.38" y1="133.72" x2="229.63" y2="135.59"/>
				</g>
				<g>
					<path class="st7" d="M236.62,132.91c-0.44,0.09-0.87,0.18-1.31,0.25l-1.9,0.33c-1.2,0.21-2.39,0.42-3.59,0.61
						c-0.21,0.03-0.35,0.29-0.32,0.56c0.04,0.27,0.24,0.47,0.45,0.44c1.21-0.13,2.43-0.24,3.64-0.36l1.89-0.18
						c0.44-0.04,0.89-0.07,1.33-0.1l0.31-0.02c1.83-0.41,3.72-0.6,5.55-0.8l0.95-0.1l0.61-0.13c1.12-0.21,2.23-0.42,3.36-0.6
						c0.81-0.14,1.62-0.25,2.43-0.36c1.01-0.14,2.06-0.28,3.08-0.47c0.21-0.04,0.34-0.29,0.31-0.55c-0.04-0.27-0.23-0.46-0.44-0.44
						c-1.04,0.08-2.09,0.22-3.1,0.36c-0.81,0.11-1.62,0.21-2.43,0.3c-1.13,0.13-2.27,0.22-3.41,0.31l-0.6,0.04l-0.95,0.15
						c-1.82,0.3-3.7,0.61-5.58,0.7L236.62,132.91z"/>
				</g>
			</g>
			<g>
				<g>
					<line class="st2" x1="245.33" y1="137.56" x2="245.09" y2="135.68"/>
				</g>
				<g>
					<line class="st2" x1="229.39" y1="137.67" x2="229.63" y2="139.55"/>
				</g>
				<g>
					<path class="st7" d="M234.14,137.23c-0.29,0.07-0.57,0.13-0.86,0.18l-1.24,0.23c-0.78,0.15-1.57,0.29-2.35,0.43
						c-0.14,0.02-0.22,0.27-0.19,0.54c0.03,0.27,0.17,0.48,0.31,0.46c0.8-0.07,1.6-0.12,2.4-0.17l1.25-0.09
						c0.29-0.02,0.58-0.03,0.88-0.04l0.21,0c1.19-0.31,2.44-0.41,3.64-0.51l0.63-0.05l0.4-0.1c0.73-0.15,1.46-0.3,2.2-0.42
						c0.53-0.1,1.06-0.16,1.59-0.23c0.66-0.09,1.35-0.17,2.02-0.32c0.14-0.03,0.22-0.27,0.18-0.53s-0.17-0.47-0.31-0.46
						c-0.69,0.03-1.37,0.12-2.04,0.2c-0.53,0.07-1.06,0.13-1.6,0.17c-0.74,0.07-1.49,0.1-2.24,0.14l-0.4,0.01l-0.62,0.11
						c-1.19,0.21-2.42,0.42-3.66,0.41L234.14,137.23z"/>
				</g>
			</g>
		</g>
	</g>
	<g>
		<g>
			<path class="st0" d="M375.87,235.78c-8.48-7.87-11-15.76-11-22.6c0-10,5.37-16.04,5.37-27.85c0-9.63-5.25-16.19-5.25-23.56
				c0-5.71,3.12-13.69,10.48-17.49c4.47-2.31,9.66,1.43,8.88,6.4c-0.66,4.17-1.53,8.08-1.53,11.33c0,12.42,9.2,11.5,14.63,33.16"/>
		</g>
		<g>
			<g>
				<line class="st2" x1="378.95" y1="142.66" x2="378.77" y2="144.54"/>
			</g>
			<g>
				<line class="st2" x1="396.54" y1="195.38" x2="398.37" y2="194.92"/>
			</g>
			<g>
				<path class="st3" d="M386.17,173.75c1.6,2.12,3.3,4.21,4.5,6.57c0.37,0.61,0.65,1.24,0.97,1.8c0.32,0.57,0.61,1.13,0.86,1.68
					l0.94,1.81l0.77,1.71c0.38,0.82,0.68,1.67,1,2.52c0.63,1.6,1.1,3.25,1.6,4.9c0.09,0.29,0.38,0.47,0.64,0.4
					c0.26-0.07,0.41-0.36,0.34-0.66c-0.44-1.7-0.83-3.41-1.39-5.09c-0.27-0.87-0.53-1.75-0.87-2.6l-0.66-1.82
					c-0.25-0.66-0.54-1.3-0.83-1.94c-0.25-0.58-0.55-1.15-0.9-1.74c-0.35-0.58-0.67-1.22-1.11-1.83c-1.52-2.24-3.16-4.46-4.65-6.6
					l-0.75-1.11c-1.47-2-2.45-4.31-2.74-6.69l-0.13-0.96l-0.03-0.98c-0.02-0.66-0.05-1.32-0.01-1.98c0.07-1.33,0.23-2.68,0.39-4.03
					l0.4-3.04l0.33-2.42c0.11-0.78,0.24-1.69,0.14-2.58c-0.13-1.28-0.63-2.51-1.43-3.51c-0.99-1.24-2.48-2.16-4.08-2.4
					c-0.33-0.04-0.61,0.15-0.63,0.42s0.18,0.52,0.44,0.57c1.33,0.3,2.56,1.07,3.39,2.11c0.66,0.83,1.07,1.85,1.12,2.91
					c0.06,0.74-0.09,1.44-0.25,2.27l-0.49,2.39c-0.21,1-0.42,2-0.6,3.01c-0.26,1.37-0.45,2.78-0.5,4.21
					c-0.04,0.72,0.01,1.44,0.06,2.15l0.07,1.06l0.19,1.05c0.43,2.6,1.65,5.13,3.06,7.29L386.17,173.75z"/>
			</g>
		</g>
		<g>
			<g>
				<line class="st2" x1="367.13" y1="226.16" x2="368.81" y2="225.28"/>
			</g>
			<g>
				<line class="st2" x1="366.18" y1="208.75" x2="364.31" y2="208.45"/>
			</g>
			<g>
				<path class="st3" d="M365.77,215.93c-0.14-0.76-0.24-1.57-0.09-2.36c0.04-0.43,0.07-0.81,0.06-1.18
					c-0.01-0.2-0.03-0.41-0.05-0.61c-0.02-0.19-0.04-0.38-0.04-0.57l0-0.82c0.01-0.52,0.03-1.03,0.07-1.55
					c0.01-0.09-0.21-0.2-0.48-0.24s-0.5,0-0.52,0.09c-0.12,0.52-0.23,1.05-0.34,1.59l-0.14,0.83l-0.11,0.59
					c-0.04,0.21-0.08,0.43-0.11,0.64c-0.03,0.39-0.02,0.8,0.05,1.26c0.17,0.83,0.16,1.67,0.2,2.49l0.02,0.43
					c0.16,0.78,0.25,1.58,0.35,2.36c0.11,0.84,0.28,1.71,0.63,2.5c0.12,0.3,0.25,0.59,0.4,0.88l0.67,1.36
					c0.17,0.32,0.3,0.66,0.46,0.98c0.19,0.41,0.39,0.83,0.65,1.21c0.05,0.08,0.29,0.04,0.52-0.08c0.24-0.12,0.4-0.29,0.37-0.37
					c-0.15-0.42-0.35-0.82-0.52-1.22c-0.15-0.31-0.27-0.64-0.39-0.97c-0.16-0.46-0.28-0.93-0.38-1.4l-0.18-0.89
					c-0.14-0.8-0.41-1.57-0.63-2.34c-0.2-0.71-0.39-1.46-0.4-2.21L365.77,215.93z"/>
			</g>
		</g>
	</g>
	<g>
		<g>
			<line class="st2" x1="224.42" y1="85.61" x2="222.53" y2="85.61"/>
		</g>
		<g>
			<line class="st2" x1="222.53" y1="199.61" x2="224.42" y2="199.61"/>
		</g>
		<g>
			<path class="st7" d="M222.72,151.61c0.05,5.15,0.11,10.48-0.05,15.72c-0.05,2.85-0.07,5.42-0.05,7.86
				c0.02,1.35,0.05,2.7,0.08,4.06c0.03,1.24,0.06,2.49,0.08,3.73l0.07,5.38c0.05,3.39,0.09,6.79,0.13,10.18
				c0.01,0.6,0.24,1.08,0.51,1.08s0.49-0.48,0.5-1.08c0.04-3.41,0.08-6.83,0.13-10.24l0.07-5.32c0.02-1.24,0.05-2.49,0.08-3.73
				c0.03-1.35,0.06-2.7,0.08-4.07c0.02-2.42,0-4.99-0.05-7.87c-0.16-5.21-0.1-10.54-0.05-15.69l0.03-2.68
				c-0.07-4.98-0.02-10.06,0.04-14.97c0.06-5.29,0.12-10.76,0.02-16.15c-0.03-2.01-0.07-4.01-0.1-6.02
				c-0.06-3.17-0.12-6.35-0.14-9.54c-0.03-2.29-0.03-4.58-0.03-6.86c0-2.85,0-5.8-0.06-8.72c-0.01-0.59-0.24-1.06-0.51-1.06
				s-0.49,0.47-0.5,1.06c-0.06,2.92-0.06,5.88-0.06,8.73c0,2.28,0,4.56-0.03,6.86c-0.03,3.19-0.08,6.37-0.14,9.56
				c-0.04,2-0.07,3.99-0.1,5.98c-0.1,5.4-0.04,10.87,0.02,16.16c0.05,4.91,0.11,9.99,0.04,14.95L222.72,151.61z"/>
		</g>
	</g>
</g>
</svg>
