<?xml version="1.0" encoding="utf-8"?>
<!-- Generator: Adobe Illustrator 27.4.1, SVG Export Plug-In . SVG Version: 6.00 Build 0)  -->
<svg version="1.1" id="Layer_1" xmlns="http://www.w3.org/2000/svg" xmlns:xlink="http://www.w3.org/1999/xlink" x="0px" y="0px"
	 viewBox="0 0 462 487" style="enable-background:new 0 0 462 487;" xml:space="preserve">
<style type="text/css">
	.st0{fill:#E60000;}
	.st1{fill:#AF0000;}
	.st2{fill:#FFFFFF;}
	.st3{fill:none;}
	.st4{fill:#002776;}
	.st5{fill:#F8E9DD;}
	.st6{fill:#EE8D9C;}
	.st7{fill:#873953;}
</style>
<g>
	<g>
		<path class="st0" d="M231,36.99c-19.36,0-38,3.02-55.51,8.59c73.71-15.99,146.78,14.37,173.1,76.57
			c30.42,71.89-13.12,159.04-97.27,194.64c-75.48,31.94-157.95,11.53-196.1-44.9C77.54,347.9,147.77,403.42,231,403.42
			c101.19,0,183.22-82.03,183.22-183.22S332.19,36.99,231,36.99z"/>
		<path class="st1" d="M251.32,316.78c84.14-35.61,127.69-122.75,97.27-194.64c-26.32-62.2-99.39-92.56-173.1-76.57
			c-74.05,23.52-127.7,92.8-127.7,174.63c0,17.96,2.63,35.29,7.44,51.69C93.37,328.32,175.85,348.73,251.32,316.78z"/>
		<g>
			<path class="st2" d="M277.97,303.01V114.88c0-3.74-3.05-6.78-6.79-6.78h-42.6c-3.04,0-4.75,0.68-7.47,1.69l-54.97,28.3
				c-3.38,1.37-4.74,3.39-4.74,6.79v30.83c0,3.62,2.94,6.55,6.55,6.55h35.18v147.9c16.06-2.23,32.28-6.64,48.19-13.38
				C260.73,312.81,269.62,308.18,277.97,303.01z"/>
			<path class="st3" d="M209.9,360.19h61.27c3.74,0,6.79-3.07,6.79-6.79v-50.39c-8.34,5.17-17.24,9.8-26.64,13.78
				c-15.91,6.73-32.14,11.14-48.19,13.38v23.24C203.13,357.12,206.19,360.19,209.9,360.19z"/>
		</g>
	</g>
	<g>
		<path class="st4" d="M340.52,194.16c0.32,5.94,5.73,12.8,11.97,12.81c5.34,0.01,13.16-4.32,13.18-13.58c0-0.23,0-0.46-0.01-0.7
			c6.28-2.69,8.61-8.19,8.62-12.96c0.02-9.57-9.83-20.19-20.49-20.22c-4.65-0.01-11.91,1.49-13.2,6.1L340.52,194.16z"/>
		<path class="st4" d="M360.63,186.92c9.97,0.23,25.58,15.21,25.52,41.27c-0.01,5.05-0.66,15.32-5.67,15.31
			c-7.18-0.02-11.82-20.11-11.81-27.31c0.01-2.37,0.35-4.51,1.2-6.14c3.44,2.53,3.79,17.72,3.78,21.81
			c-0.04,18.27-5.53,31.46-8.46,31.45c-4.06-0.01-4.67-15.27-4.66-19.34c0.02-10.18,1.65-22.8,1.67-34.28
			c0.01-6.21-0.44-12.09-1.87-17.07"/>
		<path class="st5" d="M319.56,198.52c4.86-0.14,10.28,1.53,10.29-3.44c0.01-3.54-2.36-7.12-2.36-10.72
			c0.03-11.55,8.7-21.64,22.26-21.68c6.3-0.02,9.44,2.27,11.2,6.46c-3.31,2.96-4.9,6.71-5.25,11.07c1.87-1.22,3.75-1.76,5.17-1.75
			c2.41,0.01,3.65,1.56,3.64,3.37c-0.01,2.73-2.77,5.63-7.27,5.62c-0.04,0-0.08,0-0.12,0c-2.15,11.25-11.4,14.76-11.42,20.45
			c-0.01,2.58,2.16,6.03,4.59,7.8C309.15,219.58,314.55,218.59,319.56,198.52z"/>
		<g>
			<path class="st5" d="M348.13,165.33c-1.58-0.79-6.31-2.38-9.11-2.16c-0.97,0.08-1.58,0.49-1.51,1.42
				c0.15,1.97,2.05,4.41,3.41,5.84"/>
			<g>
				<line class="st3" x1="347.71" y1="166.18" x2="348.55" y2="164.49"/>
				<line class="st3" x1="340.24" y1="171.09" x2="341.61" y2="169.78"/>
				<path class="st6" d="M337.06,166.06c0.16,0.35,0.34,0.68,0.52,1c0.26,0.46,0.55,0.9,0.86,1.31c0.59,0.78,1.23,1.5,1.91,2.19
					c0.12,0.12,0.38,0.06,0.58-0.13c0.2-0.19,0.27-0.44,0.16-0.56c-0.6-0.7-1.14-1.45-1.61-2.22c-0.25-0.4-0.46-0.81-0.65-1.23
					c-0.14-0.29-0.23-0.59-0.31-0.88c-0.02-0.07-0.03-0.14-0.04-0.21c-0.14-0.28-0.21-0.59-0.25-0.84c-0.02-0.24,0.02-0.32,0.11-0.4
					c0.22-0.21,0.97-0.22,1.61-0.16c0.23,0.01,0.46,0.05,0.69,0.08l0.46,0.01c0.84,0.06,1.69,0.18,2.53,0.38
					c0.61,0.13,1.2,0.3,1.79,0.5c0.73,0.24,1.49,0.51,2.22,0.78c0.14,0.06,0.36-0.1,0.48-0.34c0.12-0.24,0.1-0.49-0.06-0.58
					c-0.74-0.4-1.53-0.68-2.29-0.94c-0.61-0.19-1.23-0.38-1.84-0.58c-0.86-0.25-1.73-0.5-2.64-0.69l-0.48-0.11
					c-0.27-0.01-0.53-0.04-0.8-0.03c-0.38-0.01-0.77,0.01-1.18,0.06c-0.42,0.06-0.91,0.16-1.38,0.52c-0.49,0.37-0.7,1.06-0.68,1.54
					c0.01,0.47,0.07,0.88,0.16,1.29C336.98,165.9,337.01,165.98,337.06,166.06z"/>
			</g>
		</g>
		<g>
			<line class="st3" x1="334.13" y1="169.78" x2="332.24" y2="169.61"/>
			<line class="st3" x1="347.34" y1="177.67" x2="346.81" y2="175.85"/>
			<path class="st4" d="M341.57,177.97c0.35,0,0.7,0,1.05-0.01c0.5,0,1-0.03,1.5-0.08c0.95-0.1,1.88-0.27,2.8-0.55
				c0.16-0.05,0.23-0.31,0.15-0.57c-0.08-0.26-0.26-0.44-0.41-0.41c-0.86,0.19-1.74,0.26-2.63,0.26c-0.46,0-0.92-0.02-1.37-0.06
				c-0.32-0.02-0.64-0.08-0.95-0.13l-0.22-0.04c-1.35,0.02-2.7-0.37-3.85-0.93c-0.21-0.09-0.39-0.21-0.58-0.32
				c-0.13-0.05-0.27-0.1-0.4-0.17c-0.71-0.34-1.34-0.82-1.84-1.4c-0.19-0.21-0.35-0.43-0.47-0.68c-0.15-0.23-0.24-0.5-0.34-0.75
				c-0.23-0.65-0.32-1.37-0.33-2.1c0-0.15-0.23-0.28-0.49-0.31c-0.27-0.03-0.49,0.09-0.51,0.26c-0.07,0.42-0.02,0.85-0.01,1.27
				c0.07,0.42,0.13,0.85,0.28,1.25c0.12,0.32,0.23,0.64,0.4,0.93c0.15,0.31,0.33,0.59,0.54,0.86c0.56,0.75,1.25,1.42,2.02,1.94
				c0.13,0.11,0.27,0.19,0.41,0.28c0.24,0.11,0.47,0.24,0.71,0.32c1.39,0.55,2.85,0.84,4.3,1.16L341.57,177.97z"/>
		</g>
		<g>
			<line class="st3" x1="351.58" y1="166.15" x2="349.73" y2="165.73"/>
			<line class="st3" x1="354.91" y1="170.77" x2="354.89" y2="168.87"/>
			<path class="st4" d="M352.66,170.25c0.14,0.02,0.29,0.03,0.42,0.05c0.2,0.02,0.4,0.05,0.6,0.05c0.37,0.02,0.75,0,1.11-0.03
				c0.07,0,0.12-0.24,0.11-0.51c0-0.27-0.05-0.49-0.1-0.5c-0.31-0.04-0.62-0.11-0.91-0.21c-0.15-0.05-0.3-0.11-0.44-0.17
				c-0.1-0.05-0.2-0.1-0.29-0.16l-0.06-0.05c-0.47,0-0.86-0.28-1.11-0.58c-0.05-0.05-0.09-0.1-0.12-0.16l-0.12-0.06
				c-0.18-0.14-0.37-0.31-0.47-0.54c-0.08-0.15-0.13-0.33-0.13-0.51c-0.04-0.22,0.04-0.47,0-0.73c-0.01-0.05-0.22-0.14-0.48-0.2
				c-0.26-0.06-0.48-0.06-0.5,0.01c-0.08,0.32-0.18,0.66-0.13,1c0.01,0.27,0.07,0.55,0.13,0.82c0.09,0.38,0.26,0.75,0.46,1.1
				l0.11,0.19c0.08,0.08,0.17,0.15,0.26,0.22c0.52,0.38,1.07,0.61,1.58,0.97L352.66,170.25z"/>
		</g>
		<path class="st4" d="M307.7,276.8c-5.2,38.02-86.47,49.92-71.18,139.68c-13.28,17.65-22.11,30.36-41.05,33.53l16.05-32.11
			c3.1-6.2,4.44-13.09,4.09-20.01c0-0.03,0-0.07-0.01-0.1l-16.23-4.03c4.96-90.64,50.68-92.38,59.12-147.04L307.7,276.8z"/>
		<path class="st4" d="M299.81,261.63c-21.61-14.47-44.27-30.56-68.44-42.27c-13.03-6.31-28.53,1.21-31.53,15.38l-16.48,77.8
			c-14.89,14.31-32,13.04-42.38,16.3c8.53,2.13,21.91,7.8,46.23,7c4.43-0.15,7.02-0.47,8.99-0.89c1.94-10.35,4.15-20.55,8.08-30.38
			c5.8,1.1,11.6,2.17,17.47,2.75L232,265.06c13.83,14.77,28.07,31.61,38.86,35.58L299.81,261.63z"/>
		<path class="st6" d="M319.27,289.03c3.85,2.38,7.89,3.86,11.99,3.86c19.44,0,23.53-36.2,23.53-55.05
			c0-17.28-3.32-22.73-8.22-28.11c0,0-9.48-2.09-25.16,0.34c-0.08-0.81-0.11-1.62-0.11-2.44c0-3.39,0.58-6.84,1.08-10.08
			c-1.23-0.08-2.42-0.12-3.58-0.12c-16.62,0-26.08,8.22-34.67,24.1c-8.92,0.9-16.79,4.82-16.79,13.68
			c0,9.64,28.99,60.86,40.76,60.86C312.52,296.07,316.75,293.83,319.27,289.03z"/>
		<g>
			<path class="st5" d="M300.11,225.21c1.35-0.98,2.45-1.27,3.48-1.19c1.55,0.13,1.89,1.19,1.89,1.81c0,2.85-3.67,3.2-3.67,7.19
				c0,3.08,2.31,6.69,2.31,9.8c0,4.99-3.94,11.04-9.04,14.41c-0.22,0.01-0.45,0.01-0.67,0.01c-9.39,0-15.92-10.33-15.92-17.63
				c0-4.93,3.72-12.99,8.05-12.99c0.43,0,0.86,0.05,1.3,0.14c2.79,0.56,5.65-0.51,7.17-2.92c0.84-1.33,1.51-2.45,2.27-2.45
				c0.01,0,0.01,0,0.02,0c2.03,0.05,2.85,1.44,2.85,3.21C300.14,224.79,300.13,225,300.11,225.21z"/>
			<g>
				<line class="st3" x1="299.33" y1="236.03" x2="300.79" y2="234.84"/>
				<path class="st6" d="M289.24,236.38c1.88,1.83,3.62,4.07,4.52,6.52c0.11,0.3,0.16,0.61,0.25,0.91c0.01,0.29,0.08,0.59,0.05,0.87
					c-0.05,0.56-0.28,1.03-0.67,1.32c-0.79,0.61-2.17,0.47-3.4,0.1c-2.74-0.81-5.09-2.22-7.15-3.64c-1.14-0.8-2.26-1.66-3.19-2.63
					c-0.21-0.21-0.43-0.48-0.57-0.65c-0.04-0.06-0.13-0.12-0.1-0.18c0.02-0.03,0.05-0.05,0.08-0.08c0.02-0.02,0.05-0.04,0.19-0.13
					c0.23-0.13,0.47-0.23,0.72-0.29c0.73-0.17,1.56,0.02,2.33,0.4c0.77,0.37,1.52,0.9,2.18,1.52c1.28,1.16,2.37,2.57,3.26,4.08
					c0.44,0.76,0.84,1.54,1.1,2.35c0.08,0.2,0.13,0.4,0.18,0.6c0.06,0.2,0.1,0.4,0.11,0.59c0.07,0.4,0.01,0.74-0.13,0.95
					c-0.15,0.27-0.59,0.49-0.61,0.76c0,0.13,0.13,0.27,0.41,0.31c0.26,0.04,0.72-0.08,1.01-0.46c0.39-0.54,0.43-1.17,0.36-1.65
					c-0.01-0.26-0.06-0.51-0.12-0.74c-0.05-0.24-0.11-0.48-0.19-0.7c-0.28-0.92-0.69-1.77-1.14-2.59c-0.91-1.64-2.03-3.16-3.41-4.47
					c-0.71-0.68-1.51-1.3-2.44-1.77c-0.91-0.46-2.02-0.79-3.17-0.56c-0.4,0.08-0.78,0.22-1.13,0.41c-0.15,0.08-0.4,0.24-0.63,0.42
					c-0.23,0.18-0.43,0.38-0.63,0.58l-0.16,0.15c-0.06,0.05,0.04,0.12,0.05,0.18l0.2,0.38c0.14,0.25,0.25,0.52,0.42,0.75
					c0.26,0.36,0.44,0.61,0.69,0.88c1.02,1.15,2.16,2.11,3.36,2.99c2.17,1.52,4.6,2.98,7.77,3.8c0.36,0.09,0.74,0.13,1.11,0.2
					c0.38,0.04,0.77,0.06,1.16,0.06c0.79-0.03,1.68-0.22,2.4-0.8c0.73-0.58,1.11-1.5,1.17-2.33c0.04-0.43-0.04-0.82-0.07-1.23
					c-0.1-0.37-0.17-0.76-0.3-1.11c-1.05-2.82-2.8-5.12-4.79-7.15c-0.69-0.7-1.45-1.34-2.28-1.93c-0.6-0.38-1.22-0.74-1.94-1
					c-0.36-0.12-0.72-0.24-1.15-0.27c-0.4-0.07-0.86-0.04-1.28,0.09c-0.11,0.03-0.22,0.07-0.33,0.12c-0.14,0.06-0.27,0.14-0.39,0.23
					c-0.24,0.18-0.43,0.41-0.54,0.68c-0.21,0.55,0,1.24,0.17,1.56c0.38,0.76,0.89,1.29,1.4,1.79c2.1,1.91,4.49,3.23,6.97,4.31
					c1.36,0.54,2.72,1.08,4.43,1.13c0.84,0,1.84-0.22,2.59-1c0.36-0.39,0.62-0.9,0.68-1.47c0.03-0.56-0.06-1.01-0.24-1.49
					c-0.4-0.91-1.08-1.5-1.73-1.97c-0.67-0.47-1.36-0.8-2.05-1.11c-1.38-0.61-2.78-1.04-4.17-1.46c-2.05-0.63-4.12-1.18-6.02-1.96
					c-0.74-0.31-1.47-0.67-2.05-1.12c-0.58-0.46-0.96-0.99-0.91-1.57c0.01-0.29,0.1-0.5,0.3-0.68c0.19-0.19,0.51-0.33,0.86-0.42
					c0.71-0.19,1.53-0.18,2.35-0.15c2.35,0.1,4.66,0.79,6.79,1.83c2.66,1.31,5.12,3.24,7.18,5.47c0.41,0.46,0.9,0.69,1.11,0.52
					c0.21-0.17,0.05-0.69-0.36-1.19c-2.07-2.4-4.65-4.43-7.45-5.82c-2.24-1.1-4.68-1.84-7.21-2c-0.87-0.05-1.77-0.09-2.71,0.13
					c-0.47,0.11-0.97,0.29-1.41,0.67c-0.46,0.37-0.73,1-0.76,1.55c-0.03,0.55,0.09,1.14,0.38,1.6c0.26,0.48,0.63,0.83,0.99,1.14
					c0.74,0.6,1.54,1.02,2.34,1.39c2.02,0.91,4.07,1.52,6.06,2.19c1.35,0.46,2.7,0.92,3.96,1.48c1.23,0.55,2.48,1.29,2.87,2.16
					c0.08,0.2,0.12,0.46,0.12,0.62c-0.01,0.15-0.08,0.31-0.21,0.45c-0.25,0.28-0.75,0.47-1.32,0.47c-1.17,0-2.54-0.44-3.78-0.93
					c-2.33-0.95-4.69-2.22-6.55-3.89c-0.45-0.42-0.86-0.89-1.08-1.33c-0.12-0.27-0.11-0.29-0.1-0.36c0.01-0.03,0.04-0.06,0.07-0.08
					c0.01-0.01,0.03-0.02,0.04-0.02c0.04-0.02,0.09-0.04,0.14-0.05c0.85-0.22,2.06,0.32,3.04,1.02
					C287.87,235.16,288.59,235.73,289.24,236.38z"/>
			</g>
			<g>
				<line class="st3" x1="300.07" y1="226.76" x2="298.83" y2="225.33"/>
				<line class="st3" x1="295.33" y1="231.51" x2="297.2" y2="231.82"/>
				<path class="st6" d="M296.09,229.47c-0.02,0.13-0.04,0.26-0.07,0.39c-0.04,0.19-0.08,0.37-0.11,0.56
					c-0.06,0.35-0.1,0.71-0.12,1.06c-0.01,0.06,0.22,0.15,0.48,0.19c0.27,0.04,0.5,0.04,0.51-0.01c0.09-0.3,0.21-0.59,0.35-0.87
					c0.06-0.15,0.15-0.29,0.22-0.43c0.05-0.1,0.12-0.19,0.19-0.29l0.05-0.06c0.03-0.49,0.31-0.91,0.6-1.28l0.15-0.19l0.05-0.16
					c0.11-0.27,0.24-0.54,0.4-0.78c0.11-0.18,0.25-0.34,0.39-0.49c0.18-0.19,0.37-0.38,0.53-0.6c0.03-0.04-0.08-0.25-0.26-0.45
					c-0.17-0.2-0.35-0.34-0.41-0.31c-0.26,0.16-0.49,0.37-0.69,0.59c-0.16,0.17-0.32,0.35-0.49,0.51c-0.23,0.24-0.47,0.47-0.7,0.71
					l-0.13,0.12l-0.13,0.25c-0.24,0.49-0.44,1-0.8,1.44L296.09,229.47z"/>
			</g>
		</g>
		<g>
			<line class="st3" x1="305.73" y1="242.46" x2="304.95" y2="244.19"/>
			<line class="st3" x1="332.89" y1="237.91" x2="331.3" y2="236.87"/>
			<path class="st7" d="M335.67,264.9c-3.21-1.1-6.14-3.58-7.39-6.8c-0.72-1.72-1-3.39-1.03-4.98c-0.02-0.89,0-1.79,0.12-2.68
				c0.1-0.82,0.24-1.65,0.45-2.46c0.3-1.17,0.68-2.33,1.13-3.47c0.86-2.15,1.93-4.23,3.16-6.22c0.22-0.35,0.2-0.76-0.03-0.91
				s-0.59,0.01-0.83,0.37c-1.32,2-2.51,4.1-3.49,6.31c-0.51,1.15-0.95,2.33-1.31,3.55c-0.25,0.85-0.47,1.72-0.64,2.6
				c-0.19,0.96-0.28,1.94-0.29,2.94c0,1.78,0.35,3.71,1.28,5.63c1.72,3.46,4.81,6.19,8.33,7.54c0.62,0.21,1.23,0.44,1.87,0.58
				l0.33,0.07c0.1,0.02,0.24,0.06,0.45,0.09c0.31,0.03,0.65,0.04,0.97,0.03c0.32-0.02,0.63-0.05,0.91-0.11l0.35-0.31l0.18-0.16
				c0.03-0.06-0.05-0.13-0.07-0.2l-0.78-1.63c-0.13-0.25-0.25-0.6-0.4-0.76l-0.43-0.53l-0.85-1.05c-0.3-0.34-0.61-0.65-0.92-0.97
				c-0.31-0.32-0.61-0.65-0.93-0.95l-0.97-0.88c-2.79-2.51-5.95-4.73-9.22-6.63c-1.2-0.73-2.45-1.38-3.68-2.06
				c-1.97-1.03-3.94-2.04-5.93-3.03l-4.3-2.11c-1.79-0.86-3.65-1.74-5.53-2.52c-0.38-0.16-0.77-0.09-0.88,0.16
				c-0.11,0.24,0.09,0.58,0.46,0.76c1.83,0.88,3.68,1.76,5.46,2.62c1.42,0.7,2.84,1.4,4.24,2.15c1.95,1.03,3.86,2.14,5.76,3.27
				c1.17,0.73,2.36,1.44,3.5,2.2c3.12,2.04,6.27,4.11,9.03,6.44l0.96,0.82c0.31,0.28,0.6,0.58,0.9,0.88c0.3,0.3,0.61,0.59,0.89,0.9
				l0.8,0.96l0.4,0.48c0.09,0.1,0.09,0.12,0.11,0.15l0.06,0.1l0.25,0.39c0.07,0.08-0.04,0.07-0.05,0.11c-0.04,0-0.09-0.02-0.13-0.02
				l-0.13-0.03l-0.47-0.12C336.8,265.28,336.24,265.07,335.67,264.9z"/>
		</g>
	</g>
</g>
</svg>
