<?xml version="1.0" encoding="utf-8"?>
<!-- Generator: Adobe Illustrator 27.6.1, SVG Export Plug-In . SVG Version: 6.00 Build 0)  -->
<svg version="1.1" id="Layer_1" xmlns="http://www.w3.org/2000/svg" xmlns:xlink="http://www.w3.org/1999/xlink" x="0px" y="0px"
	 viewBox="0 0 200 200" style="enable-background:new 0 0 200 200;" xml:space="preserve">
<style type="text/css">
	.st0{fill:#EE8D9C;}
	.st1{fill:#002776;}
	.st2{fill:#873953;}
	.st3{fill:#7EB5D2;}
	.st4{fill:#F8E9DD;}
	.st5{fill:#005AA4;}
	.st6{fill:none;}
</style>
<g>
	<g>
		<g>
			<g>
				<path class="st0" d="M112.2,48.6c-0.1-1.6-0.2-3.3-0.2-5c0-5.5,1.5-9.6,5.7-9.6c6,0,8.9,7.3,9.3,14.2"/>
			</g>
			<g>
				<path class="st0" d="M149.1,48.6c-0.1-1.6-0.2-3.3-0.2-5c0-5.5,1.5-9.6,5.7-9.6c6,0,8.9,7.3,9.3,14.2"/>
			</g>
		</g>
		<g>
			<polygon class="st1" points="81.2,106.7 92.1,45.4 179.5,45.4 183,51.5 174.3,100.7 169.9,106.7 			"/>
		</g>
		<g>
			<polygon class="st2" points="179.6,55.8 102.5,55.8 93.4,106.7 170.5,106.7 			"/>
		</g>
		<g>
			<path class="st0" d="M181.6,99.2l7.9-44c0.5-3-0.8-6-3.4-7.6c-1.9-1.2-4.1-1.9-6.6-2.2l-11,61.3c0,0,4.8,0,9.2-2.2
				C179.8,103.5,181.2,101.5,181.6,99.2z"/>
		</g>
	</g>
	<g>
		<g>
			<g>
				<path class="st1" d="M156.5,122.9c0.3-2.8,0.6-5.7,0.6-8.7c0-9.3-5.1-20.2-13.4-20.2h-9.5v25.8"/>
			</g>
			<g>
				<path class="st3" d="M115.3,118.5c0.7-10.7,9.7-24.4,18.8-24.4c8.3,0,13.4,10.9,13.4,20.2c0,3-0.3,5.9-0.6,8.7"/>
			</g>
		</g>
		<g>
			<g>
				
					<rect x="4.3" y="110" transform="matrix(0.8616 0.5076 -0.5076 0.8616 71.5485 -22.6686)" class="st3" width="146.1" height="19.7"/>
			</g>
			<g>
				<path class="st4" d="M24.7,88.4l7.4,4.3c0.9,0.5,2.1,0.2,2.6-0.7l0.6-1c0.5-0.9,0.2-2.1-0.7-2.6l-7.4-4.3
					c-0.9-0.5-2.1-0.2-2.6,0.7l-0.6,1C23.5,86.7,23.8,87.9,24.7,88.4z"/>
			</g>
		</g>
		<g>
			<g>
				<path class="st3" d="M137,137.2c-0.3,0-0.5,0.1-0.8,0.1l-27.3-34.4c3.1-3.7,2.8-7.9,0.2-11.1c-2.4-3-6.5-4.6-10.5-2.8l4.1,5.2
					l-1,5.4l-6.4,0l-3.7-4.7c-2,3.6-1.6,7.1,0.3,9.5c2.3,2.8,6.5,4.2,10.9,2.7l27.5,34.6c-0.5,1.1-0.7,2.3-0.6,3.7
					c0,0.2,0.1,0.5,0.1,0.7c1.2,5.6,6.2,7.9,10.4,7.3c3.7-0.5,6.7-3.2,6.1-8C145.6,139.8,141.8,136.5,137,137.2z M142.6,145.4
					c0.4,2.6-1.3,4.1-3.3,4.4c-2.3,0.3-5.1-1-5.7-4c0-0.1-0.1-0.3-0.1-0.4c-0.3-2.6,1.9-4.2,4-4.5
					C140.1,140.5,142.2,142.3,142.6,145.4z"/>
			</g>
		</g>
	</g>
	<g>
		<g>
			<polygon class="st1" points="103.8,106.7 17.6,106.7 26,166.2 108.8,166.2 160.4,166.2 168.8,106.7 			"/>
		</g>
		<g>
			<g>
				<path class="st5" d="M35.6,108.6c-0.1,1.3-0.2,2.6-0.2,3.8c0,4.2,1.5,7.4,5.7,7.4c6,0,8.9-5.7,9.3-11"/>
			</g>
			<g>
				<path class="st5" d="M72.6,108.6c-0.1,1.3-0.2,2.6-0.2,3.8c0,4.2,1.5,7.4,5.7,7.4c6,0,8.9-5.7,9.3-11"/>
			</g>
		</g>
		<g>
			<g>
				<line class="st6" x1="108.4" y1="162" x2="110.2" y2="161.9"/>
			</g>
			<g>
				<line class="st6" x1="106.1" y1="108.3" x2="104.2" y2="108.5"/>
			</g>
			<g>
				<path class="st5" d="M107.2,124.5c-0.1-1-0.2-2-0.3-2.9l-0.4-4.3c-0.3-2.7-0.5-5.4-0.8-8.1c0-0.5-0.3-0.8-0.6-0.8
					c-0.3,0-0.5,0.4-0.4,0.9c0.2,2.7,0.3,5.4,0.5,8.1l0.3,4.2c0.1,1,0.1,2,0.2,3l0,0.7c0.5,4.1,0.8,8.3,1,12.4l0.1,2.1l0.2,1.4
					c0.3,2.5,0.5,5,0.7,7.5c0.2,1.8,0.3,3.6,0.5,5.4c0.2,2.3,0.4,4.6,0.6,6.9c0,0.5,0.3,0.8,0.6,0.8c0.3,0,0.5-0.4,0.4-0.9
					c-0.1-2.3-0.3-4.7-0.5-6.9c-0.1-1.8-0.3-3.6-0.4-5.4c-0.2-2.5-0.3-5.1-0.4-7.6l-0.1-1.3l-0.2-2.1c-0.4-4.1-0.8-8.3-0.9-12.5
					L107.2,124.5z"/>
			</g>
		</g>
		<g>
			<path class="st1" d="M171.3,111.6H15.1v-4c0-1.9,1.6-3.5,3.5-3.5h149.2c1.9,0,3.5,1.6,3.5,3.5V111.6z"/>
		</g>
		<g>
			<g>
				<line class="st6" x1="164.2" y1="112.5" x2="164.2" y2="110.6"/>
			</g>
			<g>
				<line class="st6" x1="22.2" y1="110.6" x2="22.2" y2="112.5"/>
			</g>
			<g>
				<path class="st5" d="M82,110.8c-6.4,0.1-13.1,0.1-19.6-0.1c-3.6-0.1-6.8-0.1-9.8-0.1c-1.7,0-3.4,0-5.1,0.1
					c-1.5,0-3.1,0.1-4.6,0.1l-6.7,0.1c-4.2,0-8.5,0.1-12.7,0.1c-0.8,0-1.3,0.2-1.3,0.5s0.6,0.5,1.3,0.5c4.3,0,8.5,0.1,12.8,0.1
					l6.6,0.1c1.6,0,3.1,0,4.6,0.1c1.7,0,3.4,0.1,5.1,0.1c3,0,6.2,0,9.8-0.1c6.5-0.2,13.1-0.1,19.6-0.1l3.3,0c6.2-0.1,12.5,0,18.7,0
					c6.6,0.1,13.4,0.1,20.1,0c2.5,0,5-0.1,7.5-0.1c4-0.1,7.9-0.1,11.9-0.1c2.9,0,5.7,0,8.6,0c3.6,0,7.2,0,10.9-0.1
					c0.7,0,1.3-0.2,1.3-0.5s-0.6-0.5-1.3-0.5c-3.6-0.1-7.3-0.1-10.9-0.1c-2.8,0-5.7,0-8.5,0c-4,0-7.9-0.1-11.9-0.1
					c-2.5,0-5-0.1-7.5-0.1c-6.7-0.1-13.6,0-20.1,0c-6.1,0.1-12.5,0.1-18.6,0L82,110.8z"/>
			</g>
		</g>
	</g>
</g>
</svg>
